{
.appVersion = "3309";
copyright = "Copyright 2024 The New Amsterdam Project Authors (https://github.com/vladimirnikolic1/NewAmsterdam)";
customParameters = (
{
name = "Use Typo Metrics";
value = 1;
},
{
name = fsType;
value = (
);
},
{
name = license;
value = "This Font Software is licensed under the SIL Open Font License, Version 1.1. This license is available with a FAQ at: https://openfontlicense.org";
},
{
name = licenseURL;
value = "https://openfontlicense.org";
},
{
name = trademark;
value = "New Amsterdam Regular is a trademark of Vladimir Nikolic.";
}
);
date = "2024-07-25 09:20:16 +0000";
designer = "Vladimir Nikolic";
designerURL = "https://www.coroflot.com/vladimirnikolic";
familyName = "New Amsterdam";
featurePrefixes = (
{
code = "###\\012# OpenType Layout feature definitions\\012# Format: Adobe FDK for OpenType (AFDKO) version 2.5\\012# Generated on: 2024-7-20 12:16\\012# Generated by: FontLab 8.0.0\\012# Font PostScript name: NewAmsterdam-Regular\\012# Font copyright: Copyright (c) 2024 by Vladimir Nikolic. All rights reserved.\\012#\\012# Totals:\\012# Languagesystems: 0\\012# GSUB lookups: 0\\012# GPOS lookups: 0\\012\\012#\\012# Languagesystem definitions\\012#\\012\\012#> languagesystem\\012languagesystem DFLT dflt;\\012languagesystem latn dflt;\\012#< languagesystem\\012\\012\\012#\\012# Lookup definitions\\012#\\012\\012\\012#\\012# Feature definitions\\012#\\012\\012";
name = Languagesystems;
}
);
fontMaster = (
{
ascender = 650;
capHeight = 650;
customParameters = (
{
name = typoAscender;
value = 650;
},
{
name = typoDescender;
value = -65;
},
{
name = typoLineGap;
value = 46;
},
{
name = winAscent;
value = 820;
},
{
name = winDescent;
value = 212;
},
{
name = underlineThickness;
value = 50;
},
{
name = underlinePosition;
value = -75;
},
{
name = strikeoutPosition;
value = 250;
},
{
name = strikeoutSize;
value = 50;
},
{
name = subscriptXOffset;
value = 0;
},
{
name = subscriptXSize;
value = 700;
},
{
name = subscriptYOffset;
value = 140;

glyphs = (
{
glyphname = A;
lastChange = "2024-07-25 09:45:54 +0000";
layers = (
{
layerId = "27BA4E46-0A2B-46F0-A320-1D87D61B7B36";
paths = (
{
closed = 1;
nodes = (
"119 0 LINE",
"119 128 LINE",
"246 128 LINE",
"246 0 LINE",
"358 0 LINE",
"358 0 LINE",
"358 139 LINE SMOOTH",
"358 318.379 OFFCURVE",
"344.387 485.75 OFFCURVE",
"218 649 CURVE",
"146 649 LINE",
"21.543 484.822 OFFCURVE",
"8 323.648 OFFCURVE",
"8 139 CURVE SMOOTH",
"8 0 LINE"
);
},
{
closed = 1;
nodes = (
"123 326.333 OFFCURVE",
"142 420 OFFCURVE",
"182 504 CURVE",
"220.288 421.954 OFFCURVE",
"239.364 325.989 OFFCURVE",
"245 233 CURVE",
"119 233 LINE"
);
}
);
width = 370;
}
);
unicode = 0041;
},
{
glyphname = Aacute;
lastChange = "2024-07-25 09:45:54 +0000";
layers = (
{
layerId = "27BA4E46-0A2B-46F0-A320-1D87D61B7B36";
paths = (
{
closed = 1;
nodes = (
"119 0 LINE",
"119 128 LINE",
"246 128 LINE",
"246 0 LINE",
"358 0 LINE",
"358 0 LINE",
"358 139 LINE SMOOTH",
"358 318.379 OFFCURVE",
"344.387 485.75 OFFCURVE",
"218 649 CURVE",
"146 649 LINE",
"21.543 484.822 OFFCURVE",
"8 323.648 OFFCURVE",
"8 139 CURVE SMOOTH",
"8 0 LINE"
);
},
{
closed = 1;
nodes = (
"123 326.333 OFFCURVE",
"142 420 OFFCURVE",
"182 504 CURVE",
"220.288 421.954 OFFCURVE",
"239.364 325.989 OFFCURVE",
"245 233 CURVE",
"119 233 LINE"
);
},
{
closed = 1;
nodes = (
"162 681 LINE",
"162 681 OFFCURVE",
"162 681 OFFCURVE",
"162 681 CURVE",
"162 681 OFFCURVE",
"162 681 OFFCURVE",
"162 681 CURVE",
"168 681 LINE",
"168 681 OFFCURVE",
"168 681 OFFCURVE",
"168 681 CURVE",
"168 681 OFFCURVE",
"168 681 OFFCURVE",
"168 681 CURVE",
"168 681 OFFCURVE",
"168 681 OFFCURVE",
"168 681 CURVE",
"173 681 LINE",
"173 681 OFFCURVE",
"173 681 OFFCURVE",
"173 681 CURVE",
"173 681 OFFCURVE",
"173 681 OFFCURVE",
"173 681 CURVE",
"173 681 OFFCURVE",
"173 681 OFFCURVE",
"173 681 CURVE",
"174 681 LINE",
"174 681 OFFCURVE",
"174 681 OFFCURVE",
"174 681 CURVE",
"174 681 OFFCURVE",
"174 681 OFFCURVE",
"174 681 CURVE",
"174 681 OFFCURVE",
"174 681 OFFCURVE",
"174 681 CURVE",
"175 681 LINE",
"175 681 OFFCURVE",
"175 681 OFFCURVE",
"175 681 CURVE",
"175 681 OFFCURVE",
"175 681 OFFCURVE",
"175 681 CURVE",
"175 681 OFFCURVE",
"175 681 OFFCURVE",
"175 681 CURVE",
"175 681 OFFCURVE",
"175 681 OFFCURVE",
"175 681 CURVE",
"175 681 OFFCURVE",
"175 681 OFFCURVE",
"175 681 CURVE",
"175 681 OFFCURVE",
"175 681 OFFCURVE",
"175 681 CURVE",
"177 681 LINE",
"177 681 OFFCURVE",
"177 681 OFFCURVE",
"177 681 CURVE",
"177 681 OFFCURVE",
"177 681 OFFCURVE",
"177 681 CURVE",
"177 681 OFFCURVE",
"177 681 OFFCURVE",
"177 681 CURVE",
"178 681 LINE",
"178 681 OFFCURVE",
"178 681 OFFCURVE",
"178 681 CURVE",
"178 681 OFFCURVE",
"178 681 OFFCURVE",
"178 681 CURVE",
"192 681 OFFCURVE",
"208 681.333 OFFCURVE",
"226 682 CURVE",
"280 764 LINE",
"183 764 LINE",
"157 724 LINE SMOOTH",
"150.333 714 OFFCURVE",
"144.333 704.667 OFFCURVE",
"139 696 CURVE SMOOTH",
"133.667 687.333 OFFCURVE",
"131 682.667 OFFCURVE",
"131 682 CURVE SMOOTH",
"131 681.333 OFFCURVE",
"136 681 OFFCURVE",
"146 681 CURVE SMOOTH"
);
}
);
width = 370;
}
);
unicode = 00C1;
},
{
glyphname = Abreve;
lastChange = "2024-07-25 09:45:54 +0000";
layers = (
{
layerId = "27BA4E46-0A2B-46F0-A320-1D87D61B7B36";
paths = (
{
closed = 1;
nodes = (
"119 0 LINE",
"119 128 LINE",
"246 128 LINE",
"246 0 LINE",
"358 0 LINE",
"358 0 LINE",
"358 139 LINE SMOOTH",
"358 318.379 OFFCURVE",
"344.387 485.75 OFFCURVE",
"218 649 CURVE",
"146 649 LINE",
"21.543 484.822 OFFCURVE",
"8 323.648 OFFCURVE",
"8 139 CURVE SMOOTH",
"8 0 LINE"
);
},
{
closed = 1;
nodes = (
"123 326.333 OFFCURVE",
"142 420 OFFCURVE",
"182 504 CURVE",
"220.288 421.954 OFFCURVE",
"239.364 325.989 OFFCURVE",
"245 233 CURVE",
"119 233 LINE"
);
},
{
closed = 1;
nodes = (
"269 676 LINE",
"327 770 LINE",
"327 770 LINE",
"223 770 LINE",
"184 710 LINE",
"142 766 LINE",
"38 766 LINE",
"98 674 LINE"
);
}
);
width = 370;
}
);
unicode = 0102;
},
{
glyphname = Acircumflex;
lastChange = "2024-07-25 09:45:54 +0000";
layers = (
{
layerId = "27BA4E46-0A2B-46F0-A320-1D87D61B7B36";
paths = (
{
closed = 1;
nodes = (
"119 0 LINE",
"119 128 LINE",
"246 128 LINE",
"246 0 LINE",
"358 0 LINE",
"358 0 LINE",
"358 139 LINE SMOOTH",
"358 318.379 OFFCURVE",
"344.387 485.75 OFFCURVE",
"218 649 CURVE",
"146 649 LINE",
"21.543 484.822 OFFCURVE",
"8 323.648 OFFCURVE",
"8 139 CURVE SMOOTH",
"8 0 LINE"
);
},
{
closed = 1;
nodes = (
"123 326.333 OFFCURVE",
"142 420 OFFCURVE",
"182 504 CURVE",
"220.288 421.954 OFFCURVE",
"239.364 325.989 OFFCURVE",
"245 233 CURVE",
"119 233 LINE"
);
},
{
closed = 1;
nodes = (
"145 679 LINE",
"184 736 LINE",
"226 680 LINE",
"330 680 LINE",
"269 774 LINE",
"109 774 LINE",
"49 679 LINE",
"49 679 LINE"
);
}
);
width = 370;
}
);
unicode = 00C2;
},
{
glyphname = Adieresis;
lastChange = "2024-07-25 09:45:54 +0000";
layers = (
{
layerId = "27BA4E46-0A2B-46F0-A320-1D87D61B7B36";
paths = (
{
closed = 1;
nodes = (
"119 0 LINE",
"119 128 LINE",
"246 128 LINE",
"246 0 LINE",
"358 0 LINE",
"358 0 LINE",
"358 139 LINE SMOOTH",
"358 318.379 OFFCURVE",
"344.387 485.75 OFFCURVE",
"218 649 CURVE",
"146 649 LINE",
"21.543 484.822 OFFCURVE",
"8 323.648 OFFCURVE",
"8 139 CURVE SMOOTH",
"8 0 LINE"
);
},
{
closed = 1;
nodes = (
"123 326.333 OFFCURVE",
"142 420 OFFCURVE",
"182 504 CURVE",
"220.288 421.954 OFFCURVE",
"239.364 325.989 OFFCURVE",
"245 233 CURVE",
"119 233 LINE"
);
},
{
closed = 1;
nodes = (
"89 682 LINE",
"89 682 OFFCURVE",
"89 682 OFFCURVE",
"89 682 CURVE",
"89 682 OFFCURVE",
"89 682 OFFCURVE",
"89 682 CURVE",
"89 682 OFFCURVE",
"89 682 OFFCURVE",
"89 682 CURVE",
"90 682 LINE",
"90 682 OFFCURVE",
"90 682 OFFCURVE",
"90 682 CURVE",
"90 682 OFFCURVE",
"90 682 OFFCURVE",
"90 682 CURVE",
"90 682 OFFCURVE",
"90 682 OFFCURVE",
"90 682 CURVE",
"92 682 LINE",
"92 682 OFFCURVE",
"92 682 OFFCURVE",
"92 682 CURVE",
"92 682 OFFCURVE",
"92 682 OFFCURVE",
"92 682 CURVE",
"92 682 OFFCURVE",
"92 682 OFFCURVE",
"92 682 CURVE",
"94 682 LINE",
"94 682 OFFCURVE",
"94 682 OFFCURVE",
"94 682 CURVE",
"94 682 OFFCURVE",
"94 682 OFFCURVE",
"94 682 CURVE",
"94 682 OFFCURVE",
"94 682 OFFCURVE",
"94 682 CURVE",
"96 682 LINE",
"96 682 OFFCURVE",
"96 682 OFFCURVE",
"96 682 CURVE",
"96 682 OFFCURVE",
"96 682 OFFCURVE",
"96 682 CURVE",
"96 682 OFFCURVE",
"96 682 OFFCURVE",
"96 682 CURVE",
"98 682 LINE",
"98 682 OFFCURVE",
"98 682 OFFCURVE",
"98 682 CURVE",
"98 682 OFFCURVE",
"98 682 OFFCURVE",
"98 682 CURVE",
"101 682 LINE",
"101 682 OFFCURVE",
"101 682 OFFCURVE",
"101 682 CURVE",
"101 682 OFFCURVE",
"101 682 OFFCURVE",
"101 682 CURVE",
"102 682 LINE",
"102 682 OFFCURVE",
"102 682 OFFCURVE",
"102 682 CURVE",
"102 682 OFFCURVE",
"102 682 OFFCURVE",
"102 682 CURVE",
"103 682 LINE",
"103 682 OFFCURVE",
"103 682 OFFCURVE",
"103 682 CURVE",
"103 682 OFFCURVE",
"103 682 OFFCURVE",
"103 682 CURVE",
"103 682 OFFCURVE",
"103 682 OFFCURVE",
"103 682 CURVE",
"103 682 OFFCURVE",
"103 682 OFFCURVE",
"103 682 CURVE",
"103 682 OFFCURVE",
"103 682 OFFCURVE",
"103 682 CURVE",
"103 682 OFFCURVE",
"103 682 OFFCURVE",
"103 682 CURVE",
"103 682 OFFCURVE",
"103 682 OFFCURVE",
"103 682 CURVE",
"103 682 OFFCURVE",
"103 682 OFFCURVE",
"103 682 CURVE",
"106 682 LINE SMOOTH",
"120 682 OFFCURVE",
"136 682.333 OFFCURVE",
"154 683 CURVE",
"153 765 LINE",
"59 764 LINE",
"59 683 LINE SMOOTH",
"59 682.333 OFFCURVE",
"64 682 OFFCURVE",
"74 682 CURVE SMOOTH"
);
},
{
closed = 1;
nodes = (
"101 682 OFFCURVE",
"101 682 OFFCURVE",
"101 682 CURVE",
"101 682 OFFCURVE",
"101 682 OFFCURVE",
"101 682 CURVE"
);
},
{
closed = 1;
nodes = (
"230 684 LINE",
"230 684 OFFCURVE",
"230 684 OFFCURVE",
"230 684 CURVE",
"230.667 684 OFFCURVE",
"231 684 OFFCURVE",
"231 684 CURVE",
"231 684 OFFCURVE",
"231 684 OFFCURVE",
"231 684 CURVE",
"231 684 OFFCURVE",
"231 684 OFFCURVE",
"231 684 CURVE",
"231 684 OFFCURVE",
"231 684 OFFCURVE",
"231 684 CURVE",
"231 684 OFFCURVE",
"231 684 OFFCURVE",
"231 684 CURVE",
"231 684 OFFCURVE",
"231 684 OFFCURVE",
"231 684 CURVE",
"231 684 OFFCURVE",
"231 684 OFFCURVE",
"231 684 CURVE",
"243 684 LINE",
"243 684 OFFCURVE",
"243 684 OFFCURVE",
"243 684 CURVE",
"243 684 OFFCURVE",
"243 684 OFFCURVE",
"243 684 CURVE",
"243 684 OFFCURVE",
"243 684 OFFCURVE",
"243 684 CURVE",
"243 684 OFFCURVE",
"243 684 OFFCURVE",
"243 684 CURVE",
"243.667 684 OFFCURVE",
"244 684 OFFCURVE",
"244 684 CURVE",
"244 684 OFFCURVE",
"244 684 OFFCURVE",
"244 684 CURVE",
"244 684 OFFCURVE",
"244 684 OFFCURVE",
"244 684 CURVE",
"244 684 OFFCURVE",
"244 684 OFFCURVE",
"244 684 CURVE",
"244 684 OFFCURVE",
"244 684 OFFCURVE",
"244 684 CURVE",
"244 684 OFFCURVE",
"244 684 OFFCURVE",
"244 684 CURVE",
"244 684 OFFCURVE",
"244 684 OFFCURVE",
"244 684 CURVE",
"244 684 OFFCURVE",
"244 684 OFFCURVE",
"244 684 CURVE",
"247 684 LINE",
"247 684 OFFCURVE",
"247 684 OFFCURVE",
"247 684 CURVE",
"247 684 OFFCURVE",
"247 684 OFFCURVE",
"247 684 CURVE",
"247.667 684 OFFCURVE",
"248 684 OFFCURVE",
"248 684 CURVE",
"248 684 OFFCURVE",
"248 684 OFFCURVE",
"248 684 CURVE",
"248 684 OFFCURVE",
"248 684 OFFCURVE",
"248 684 CURVE",
"248 684 OFFCURVE",
"248 684 OFFCURVE",
"248 684 CURVE",
"248 684 OFFCURVE",
"248 684 OFFCURVE",
"248 684 CURVE",
"248 684 OFFCURVE",
"248 684 OFFCURVE",
"248 684 CURVE",
"249 684 LINE",
"249 684 OFFCURVE",
"249 684 OFFCURVE",
"249 684 CURVE",
"249 684 OFFCURVE",
"249 684 OFFCURVE",
"249 684 CURVE",
"249 684 OFFCURVE",
"249 684 OFFCURVE",
"249 684 CURVE",
"249 684 OFFCURVE",
"249 684 OFFCURVE",
"249 684 CURVE",
"249.667 684 OFFCURVE",
"250 684 OFFCURVE",
"250 684 CURVE",
"250 684 OFFCURVE",
"250 684 OFFCURVE",
"250 684 CURVE",
"250 684 OFFCURVE",
"250 684 OFFCURVE",
"250 684 CURVE",
"250 684 OFFCURVE",
"250 684 OFFCURVE",
"250 684 CURVE",
"250 684 OFFCURVE",
"250 684 OFFCURVE",
"250 684 CURVE",
"250 684 OFFCURVE",
"250 684 OFFCURVE",
"250 684 CURVE",
"250 684 OFFCURVE",
"250 684 OFFCURVE",
"250 684 CURVE",
"250 684 OFFCURVE",
"250 684 OFFCURVE",
"250 684 CURVE",
"251 684 LINE",
"251 684 OFFCURVE",
"251 684 OFFCURVE",
"251 684 CURVE",
"251 684 OFFCURVE",
"251 684 OFFCURVE",
"251 684 CURVE",
"251 684 OFFCURVE",
"251 684 OFFCURVE",
"251 684 CURVE",
"251 684 OFFCURVE",
"251 684 OFFCURVE",
"251 684 CURVE",
"251.667 684 OFFCURVE",
"252 684 OFFCURVE",
"252 684 CURVE",
"252 684 OFFCURVE",
"252 684 OFFCURVE",
"252 684 CURVE",
"252 684 OFFCURVE",
"252 684 OFFCURVE",
"252 684 CURVE",
"252 684 OFFCURVE",
"252 684 OFFCURVE",
"252 684 CURVE",
"252 684 OFFCURVE",
"252 684 OFFCURVE",
"252 684 CURVE",
"252 684 OFFCURVE",
"252 684 OFFCURVE",
"252 684 CURVE",
"252 684 OFFCURVE",
"252 684 OFFCURVE",
"252 684 CURVE",
"252 684 OFFCURVE",
"252 684 OFFCURVE",
"252 684 CURVE",
"253 684 LINE",
"253 684 OFFCURVE",
"253 684 OFFCURVE",
"253 684 CURVE",
"253 684 OFFCURVE",
"253 684 OFFCURVE",
"253 684 CURVE",
"253 684 OFFCURVE",
"253 684 OFFCURVE",
"253 684 CURVE",
"253.667 684 OFFCURVE",
"254 684 OFFCURVE",
"254 684 CURVE",
"254 684 OFFCURVE",
"254 684 OFFCURVE",
"254 684 CURVE",
"254 684 OFFCURVE",
"254 684 OFFCURVE",
"254 684 CURVE",
"254 684 OFFCURVE",
"254 684 OFFCURVE",
"254 684 CURVE",
"254 684 OFFCURVE",
"254 684 OFFCURVE",
"254 684 CURVE",
"254 684 OFFCURVE",
"254 684 OFFCURVE",
"254 684 CURVE",
"254 684 OFFCURVE",
"254 684 OFFCURVE",
"254 684 CURVE",
"255 684 LINE",
"255 684 OFFCURVE",
"255 684 OFFCURVE",
"255 684 CURVE",
"255.667 684 OFFCURVE",
"256 684 OFFCURVE",
"256 684 CURVE",
"256 684 OFFCURVE",
"256 684 OFFCURVE",
"256 684 CURVE",
"256 684 OFFCURVE",
"256 684 OFFCURVE",
"256 684 CURVE",
"256 684 OFFCURVE",
"256 684 OFFCURVE",
"256 684 CURVE",
"256 684 OFFCURVE",
"256 684 OFFCURVE",
"256 684 CURVE",
"256 684 OFFCURVE",
"256 684 OFFCURVE",
"256 684 CURVE",
"256.667 684 OFFCURVE",
"257 684 OFFCURVE",
"257 684 CURVE",
"257 684 OFFCURVE",
"257 684 OFFCURVE",
"257 684 CURVE",
"257 684 OFFCURVE",
"257 684 OFFCURVE",
"257 684 CURVE",
"257 684 OFFCURVE",
"257 684 OFFCURVE",
"257 684 CURVE",
"257 684 OFFCURVE",
"257 684 OFFCURVE",
"257 684 CURVE",
"257 684 OFFCURVE",
"257 684 OFFCURVE",
"257 684 CURVE",
"257 684 OFFCURVE",
"257 684 OFFCURVE",
"257 684 CURVE",
"260 684 LINE SMOOTH",
"274 684 OFFCURVE",
"290 684.333 OFFCURVE",
"308 685 CURVE",
"308 766 LINE",
"212 766 LINE",
"212 685 LINE SMOOTH",
"212 684.333 OFFCURVE",
"217 684 OFFCURVE",
"227 684 CURVE SMOOTH"
);
}
);
width = 370;
}
);
unicode = 00C4;
},
{
glyphname = Agrave;
lastChange = "2024-07-25 09:45:54 +0000";
layers = (
{
layerId = "27BA4E46-0A2B-46F0-A320-1D87D61B7B36";
paths = (
{
closed = 1;
nodes = (
"119 0 LINE",
"119 128 LINE",
"246 128 LINE",
"246 0 LINE",
"358 0 LINE",
"358 0 LINE",
"358 139 LINE SMOOTH",
"358 318.379 OFFCURVE",
"344.387 485.75 OFFCURVE",
"218 649 CURVE",
"146 649 LINE",
"21.543 484.822 OFFCURVE",
"8 323.648 OFFCURVE",
"8 139 CURVE SMOOTH",
"8 0 LINE"
);
},
{
closed = 1;
nodes = (
"123 326.333 OFFCURVE",
"142 420 OFFCURVE",
"182 504 CURVE",
"220.288 421.954 OFFCURVE",
"239.364 325.989 OFFCURVE",
"245 233 CURVE",
"119 233 LINE"
);
},
{
closed = 1;
nodes = (
"173.167 681 OFFCURVE",
"184 681.333 OFFCURVE",
"196 682 CURVE SMOOTH",
"210 682 OFFCURVE",
"226 682.333 OFFCURVE",
"244 683 CURVE",
"184 764 LINE",
"87 764 LINE",
"98.333 749.333 OFFCURVE",
"108.667 736 OFFCURVE",
"118 724 CURVE SMOOTH",
"125.333 714 OFFCURVE",
"132.333 704.667 OFFCURVE",
"139 696 CURVE SMOOTH",
"145.667 687.333 OFFCURVE",
"149 682.667 OFFCURVE",
"149 682 CURVE SMOOTH",
"149 681.333 OFFCURVE",
"153.833 681 OFFCURVE",
"163.5 681 CURVE SMOOTH"
);
}
);
width = 370;
}
);
unicode = 00C0;
},
{
glyphname = Amacron;
lastChange = "2024-07-25 09:45:54 +0000";
layers = (
{
layerId = "27BA4E46-0A2B-46F0-A320-1D87D61B7B36";
paths = (
{
closed = 1;
nodes = (
"119 0 LINE",
"119 128 LINE",
"246 128 LINE",
"246 0 LINE",
"358 0 LINE",
"358 0 LINE",
"358 139 LINE SMOOTH",
"358 318.379 OFFCURVE",
"344.387 485.75 OFFCURVE",
"218 649 CURVE",
"146 649 LINE",
"21.543 484.822 OFFCURVE",
"8 323.648 OFFCURVE",
"8 139 CURVE SMOOTH",
"8 0 LINE"
);
},
{
closed = 1;
nodes = (
"123 326.333 OFFCURVE",
"142 420 OFFCURVE",
"182 504 CURVE",
"220.288 421.954 OFFCURVE",
"239.364 325.989 OFFCURVE",
"245 233 CURVE",
"119 233 LINE"
);
},
{
closed = 1;
nodes = (
"117 684 LINE",
"117 684 OFFCURVE",
"117 684 OFFCURVE",
"117 684 CURVE",
"117 684 OFFCURVE",
"117 684 OFFCURVE",
"117 684 CURVE",
"117 684 OFFCURVE",
"117 684 OFFCURVE",
"117 684 CURVE",
"117.667 684 OFFCURVE",
"118 684 OFFCURVE",
"118 684 CURVE",
"118 684 OFFCURVE",
"118 684 OFFCURVE",
"118 684 CURVE",
"118 684 OFFCURVE",
"118 684 OFFCURVE",
"118 684 CURVE",
"118 684 OFFCURVE",
"118 684 OFFCURVE",
"118 684 CURVE",
"118 684 OFFCURVE",
"118 684 OFFCURVE",
"118 684 CURVE",
"118 684 OFFCURVE",
"118 684 OFFCURVE",
"118 684 CURVE",
"129 684 LINE",
"129 684 OFFCURVE",
"129 684 OFFCURVE",
"129 684 CURVE",
"129.667 684 OFFCURVE",
"130 684 OFFCURVE",
"130 684 CURVE",
"130 684 OFFCURVE",
"130 684 OFFCURVE",
"130 684 CURVE",
"130 684 OFFCURVE",
"130 684 OFFCURVE",
"130 684 CURVE",
"130 684 OFFCURVE",
"130 684 OFFCURVE",
"130 684 CURVE",
"130 684 OFFCURVE",
"130 684 OFFCURVE",
"130 684 CURVE",
"133 684 LINE",
"133 684 OFFCURVE",
"133 684 OFFCURVE",
"133 684 CURVE",
"133 684 OFFCURVE",
"133 684 OFFCURVE",
"133 684 CURVE",
"133 684 OFFCURVE",
"133 684 OFFCURVE",
"133 684 CURVE",
"133.667 684 OFFCURVE",
"134 684 OFFCURVE",
"134 684 CURVE",
"134 684 OFFCURVE",
"134 684 OFFCURVE",
"134 684 CURVE",
"134 684 OFFCURVE",
"134 684 OFFCURVE",
"134 684 CURVE",
"134 684 OFFCURVE",
"134 684 OFFCURVE",
"134 684 CURVE",
"134 684 OFFCURVE",
"134 684 OFFCURVE",
"134 684 CURVE",
"134 684 OFFCURVE",
"134 684 OFFCURVE",
"134 684 CURVE",
"134 684 OFFCURVE",
"134 684 OFFCURVE",
"134 684 CURVE",
"134 684 OFFCURVE",
"134 684 OFFCURVE",
"134 684 CURVE",
"136 684 LINE",
"136 684 OFFCURVE",
"136 684 OFFCURVE",
"136 684 CURVE",
"136 684 OFFCURVE",
"136 684 OFFCURVE",
"136 684 CURVE",
"136 684 OFFCURVE",
"136 684 OFFCURVE",
"136 684 CURVE",
"136.667 684 OFFCURVE",
"137 684 OFFCURVE",
"137 684 CURVE",
"137 684 OFFCURVE",
"137 684 OFFCURVE",
"137 684 CURVE",
"137 684 OFFCURVE",
"137 684 OFFCURVE",
"137 684 CURVE",
"137 684 OFFCURVE",
"137 684 OFFCURVE",
"137 684 CURVE",
"137 684 OFFCURVE",
"137 684 OFFCURVE",
"137 684 CURVE",
"137 684 OFFCURVE",
"137 684 OFFCURVE",
"137 684 CURVE",
"137 684 OFFCURVE",
"137 684 OFFCURVE",
"137 684 CURVE",
"137 684 OFFCURVE",
"137 684 OFFCURVE",
"137 684 CURVE",
"138 684 LINE",
"138 684 OFFCURVE",
"138 684 OFFCURVE",
"138 684 CURVE",
"138 684 OFFCURVE",
"138 684 OFFCURVE",
"138 684 CURVE",
"138 684 OFFCURVE",
"138 684 OFFCURVE",
"138 684 CURVE",
"138.667 684 OFFCURVE",
"139 684 OFFCURVE",
"139 684 CURVE",
"139 684 OFFCURVE",
"139 684 OFFCURVE",
"139 684 CURVE",
"139 684 OFFCURVE",
"139 684 OFFCURVE",
"139 684 CURVE",
"139 684 OFFCURVE",
"139 684 OFFCURVE",
"139 684 CURVE",
"139 684 OFFCURVE",
"139 684 OFFCURVE",
"139 684 CURVE",
"139 684 OFFCURVE",
"139 684 OFFCURVE",
"139 684 CURVE",
"139 684 OFFCURVE",
"139 684 OFFCURVE",
"139 684 CURVE",
"139 684 OFFCURVE",
"139 684 OFFCURVE",
"139 684 CURVE",
"140 684 LINE",
"140 684 OFFCURVE",
"140 684 OFFCURVE",
"140 684 CURVE",
"140 684 OFFCURVE",
"140 684 OFFCURVE",
"140 684 CURVE",
"140 684 OFFCURVE",
"140 684 OFFCURVE",
"140 684 CURVE",
"141 684 LINE",
"141 684 OFFCURVE",
"141 684 OFFCURVE",
"141 684 CURVE",
"141.667 684 OFFCURVE",
"142 684 OFFCURVE",
"142 684 CURVE",
"142 684 OFFCURVE",
"142 684 OFFCURVE",
"142 684 CURVE",
"142 684 OFFCURVE",
"142 684 OFFCURVE",
"142 684 CURVE",
"142 684 OFFCURVE",
"142 684 OFFCURVE",
"142 684 CURVE",
"142 684 OFFCURVE",
"142 684 OFFCURVE",
"142 684 CURVE",
"142 684 OFFCURVE",
"142 684 OFFCURVE",
"142 684 CURVE",
"142 684 OFFCURVE",
"142 684 OFFCURVE",
"142 684 CURVE",
"142 684 OFFCURVE",
"142 684 OFFCURVE",
"142 684 CURVE",
"142 684 OFFCURVE",
"142 684 OFFCURVE",
"142 684 CURVE",
"142.667 684 OFFCURVE",
"143 684 OFFCURVE",
"143 684 CURVE",
"143 684 OFFCURVE",
"143 684 OFFCURVE",
"143 684 CURVE",
"143 684 OFFCURVE",
"143 684 OFFCURVE",
"143 684 CURVE",
"143 684 OFFCURVE",
"143 684 OFFCURVE",
"143 684 CURVE",
"143 684 OFFCURVE",
"143 684 OFFCURVE",
"143 684 CURVE",
"143 684 OFFCURVE",
"143 684 OFFCURVE",
"143 684 CURVE",
"143 684 OFFCURVE",
"143 684 OFFCURVE",
"143 684 CURVE",
"143 684 OFFCURVE",
"143 684 OFFCURVE",
"143 684 CURVE",
"149 684 LINE",
"149 684 OFFCURVE",
"149 684 OFFCURVE",
"149 684 CURVE",
"149 684 OFFCURVE",
"149 684 OFFCURVE",
"149 684 CURVE",
"149 684 OFFCURVE",
"149 684 OFFCURVE",
"149 684 CURVE",
"150 684 LINE",
"150 684 OFFCURVE",
"150 684 OFFCURVE",
"150 684 CURVE",
"150 684 OFFCURVE",
"150 684 OFFCURVE",
"150 684 CURVE",
"150 684 OFFCURVE",
"150 684 OFFCURVE",
"150 684 CURVE",
"150 684 OFFCURVE",
"150 684 OFFCURVE",
"150 684 CURVE",
"150.667 684 OFFCURVE",
"151 684 OFFCURVE",
"151 684 CURVE",
"151 684 OFFCURVE",
"151 684 OFFCURVE",
"151 684 CURVE",
"151 684 OFFCURVE",
"151 684 OFFCURVE",
"151 684 CURVE",
"151 684 OFFCURVE",
"151 684 OFFCURVE",
"151 684 CURVE",
"151 684 OFFCURVE",
"151 684 OFFCURVE",
"151 684 CURVE",
"151 684 OFFCURVE",
"151 684 OFFCURVE",
"151 684 CURVE",
"151 684 OFFCURVE",
"151 684 OFFCURVE",
"151 684 CURVE",
"151 684 OFFCURVE",
"151 684 OFFCURVE",
"151 684 CURVE",
"151.667 684 OFFCURVE",
"152 684 OFFCURVE",
"152 684 CURVE",
"152 684 OFFCURVE",
"152 684 OFFCURVE",
"152 684 CURVE",
"152 684 OFFCURVE",
"152 684 OFFCURVE",
"152 684 CURVE",
"152 684 OFFCURVE",
"152 684 OFFCURVE",
"152 684 CURVE",
"152 684 OFFCURVE",
"152 684 OFFCURVE",
"152 684 CURVE",
"165 684 LINE",
"165 684 OFFCURVE",
"165 684 OFFCURVE",
"165 684 CURVE",
"165 684 OFFCURVE",
"165 684 OFFCURVE",
"165 684 CURVE",
"165 684 OFFCURVE",
"165 684 OFFCURVE",
"165 684 CURVE",
"166 684 LINE",
"166 684 OFFCURVE",
"166 684 OFFCURVE",
"166 684 CURVE",
"166 684 OFFCURVE",
"166 684 OFFCURVE",
"166 684 CURVE",
"166 684 OFFCURVE",
"166 684 OFFCURVE",
"166 684 CURVE",
"166 684 OFFCURVE",
"166 684 OFFCURVE",
"166 684 CURVE",
"166.667 684 OFFCURVE",
"167 684 OFFCURVE",
"167 684 CURVE",
"167 684 OFFCURVE",
"167 684 OFFCURVE",
"167 684 CURVE",
"167 684 OFFCURVE",
"167 684 OFFCURVE",
"167 684 CURVE",
"167 684 OFFCURVE",
"167 684 OFFCURVE",
"167 684 CURVE",
"167 684 OFFCURVE",
"167 684 OFFCURVE",
"167 684 CURVE",
"167 684 OFFCURVE",
"167 684 OFFCURVE",
"167 684 CURVE",
"167 684 OFFCURVE",
"167 684 OFFCURVE",
"167 684 CURVE",
"170 684 LINE",
"170 684 OFFCURVE",
"170 684 OFFCURVE",
"170 684 CURVE",
"170 684 OFFCURVE",
"170 684 OFFCURVE",
"170 684 CURVE",
"170 684 OFFCURVE",
"170 684 OFFCURVE",
"170 684 CURVE",
"170.667 684 OFFCURVE",
"171 684 OFFCURVE",
"171 684 CURVE",
"171 684 OFFCURVE",
"171 684 OFFCURVE",
"171 684 CURVE",
"171 684 OFFCURVE",
"171 684 OFFCURVE",
"171 684 CURVE",
"171 684 OFFCURVE",
"171 684 OFFCURVE",
"171 684 CURVE",
"171 684 OFFCURVE",
"171 684 OFFCURVE",
"171 684 CURVE",
"172 684 LINE",
"172 684 OFFCURVE",
"172 684 OFFCURVE",
"172 684 CURVE",
"172 684 OFFCURVE",
"172 684 OFFCURVE",
"172 684 CURVE",
"173 684 LINE",
"173 684 OFFCURVE",
"173 684 OFFCURVE",
"173 684 CURVE",
"173.667 684 OFFCURVE",
"174 684 OFFCURVE",
"174 684 CURVE",
"174 684 OFFCURVE",
"174 684 OFFCURVE",
"174 684 CURVE",
"174 684 OFFCURVE",
"174 684 OFFCURVE",
"174 684 CURVE",
"174 684 OFFCURVE",
"174 684 OFFCURVE",
"174 684 CURVE",
"174 684 OFFCURVE",
"174 684 OFFCURVE",
"174 684 CURVE",
"174 684 OFFCURVE",
"174 684 OFFCURVE",
"174 684 CURVE",
"175 684 LINE",
"175 684 OFFCURVE",
"175 684 OFFCURVE",
"175 684 CURVE",
"175 684 OFFCURVE",
"175 684 OFFCURVE",
"175 684 CURVE",
"175 684 OFFCURVE",
"175 684 OFFCURVE",
"175 684 CURVE",
"175.667 684 OFFCURVE",
"176 684 OFFCURVE",
"176 684 CURVE",
"176 684 OFFCURVE",
"176 684 OFFCURVE",
"176 684 CURVE",
"176 684 OFFCURVE",
"176 684 OFFCURVE",
"176 684 CURVE",
"176 684 OFFCURVE",
"176 684 OFFCURVE",
"176 684 CURVE",
"176 684 OFFCURVE",
"176 684 OFFCURVE",
"176 684 CURVE",
"176 684 OFFCURVE",
"176 684 OFFCURVE",
"176 684 CURVE",
"176 684 OFFCURVE",
"176 684 OFFCURVE",
"176 684 CURVE",
"176 684 OFFCURVE",
"176 684 OFFCURVE",
"176 684 CURVE",
"177 684 LINE",
"177 684 OFFCURVE",
"177 684 OFFCURVE",
"177 684 CURVE",
"177 684 OFFCURVE",
"177 684 OFFCURVE",
"177 684 CURVE",
"177 684 OFFCURVE",
"177 684 OFFCURVE",
"177 684 CURVE",
"177 684 OFFCURVE",
"177 684 OFFCURVE",
"177 684 CURVE",
"177.667 684 OFFCURVE",
"178 684 OFFCURVE",
"178 684 CURVE",
"178 684 OFFCURVE",
"178 684 OFFCURVE",
"178 684 CURVE",
"178 684 OFFCURVE",
"178 684 OFFCURVE",
"178 684 CURVE",
"178 684 OFFCURVE",
"178 684 OFFCURVE",
"178 684 CURVE",
"178 684 OFFCURVE",
"178 684 OFFCURVE",
"178 684 CURVE",
"178 684 OFFCURVE",
"178 684 OFFCURVE",
"178 684 CURVE",
"178 684 OFFCURVE",
"178 684 OFFCURVE",
"178 684 CURVE",
"178 684 OFFCURVE",
"178 684 OFFCURVE",
"178 684 CURVE",
"179 684 LINE",
"179 684 OFFCURVE",
"179 684 OFFCURVE",
"179 684 CURVE",
"179 684 OFFCURVE",
"179 684 OFFCURVE",
"179 684 CURVE",
"179 684 OFFCURVE",
"179 684 OFFCURVE",
"179 684 CURVE",
"179 684 OFFCURVE",
"179 684 OFFCURVE",
"179 684 CURVE",
"179.667 684 OFFCURVE",
"180 684 OFFCURVE",
"180 684 CURVE",
"180 684 OFFCURVE",
"180 684 OFFCURVE",
"180 684 CURVE",
"180 684 OFFCURVE",
"180 684 OFFCURVE",
"180 684 CURVE",
"180 684 OFFCURVE",
"180 684 OFFCURVE",
"180 684 CURVE",
"180 684 OFFCURVE",
"180 684 OFFCURVE",
"180 684 CURVE",
"180 684 OFFCURVE",
"180 684 OFFCURVE",
"180 684 CURVE",
"180 684 OFFCURVE",
"180 684 OFFCURVE",
"180 684 CURVE",
"180 684 OFFCURVE",
"180 684 OFFCURVE",
"180 684 CURVE",
"184 684 LINE SMOOTH",
"214 684 OFFCURVE",
"248 684.333 OFFCURVE",
"286 685 CURVE",
"287 766 LINE",
"82 766 LINE",
"82 685 LINE",
"82 685 OFFCURVE",
"85 684.833 OFFCURVE",
"91 684.5 CURVE SMOOTH",
"97 684.167 OFFCURVE",
"104.667 684 OFFCURVE",
"114 684 CURVE SMOOTH"
);
}
);
width = 370;
}
);
unicode = 0100;
},
{
glyphname = Aogonek;
lastChange = "2024-07-25 09:45:54 +0000";
layers = (
{
layerId = "27BA4E46-0A2B-46F0-A320-1D87D61B7B36";
paths = (
{
closed = 1;
nodes = (
"339.333 -135 OFFCURVE",
"352 -134.333 OFFCURVE",
"366 -133 CURVE",
"372 -109 LINE",
"365.333 -110.333 OFFCURVE",
"360.333 -111 OFFCURVE",
"355 -111 CURVE SMOOTH",
"343 -111 OFFCURVE",
"332.333 -106.333 OFFCURVE",
"323 -97 CURVE SMOOTH",
"314.333 -88.333 OFFCURVE",
"310 -78.333 OFFCURVE",
"310 -67 CURVE SMOOTH",
"310 -59.667 OFFCURVE",
"312.667 -52.667 OFFCURVE",
"318 -46 CURVE SMOOTH",
"324 -40 OFFCURVE",
"331.333 -37 OFFCURVE",
"340 -37 CURVE SMOOTH",
"341.333 -37 OFFCURVE",
"342.667 -37.167 OFFCURVE",
"344 -37.5 CURVE SMOOTH",
"345.333 -37.833 OFFCURVE",
"347 -38 OFFCURVE",
"349 -38 CURVE",
"327 0 LINE",
"359 0 LINE",
"359 139 LINE SMOOTH",
"359 318.379 OFFCURVE",
"345.387 485.75 OFFCURVE",
"219 649 CURVE",
"147 649 LINE",
"22.515 484.786 OFFCURVE",
"9 321.964 OFFCURVE",
"9 139 CURVE SMOOTH",
"9 0 LINE",
"120 0 LINE",
"120 128 LINE",
"247 128 LINE",
"247 0 LINE",
"286 0 LINE",
"273.333 -4 OFFCURVE",
"263.333 -10.667 OFFCURVE",
"256 -20 CURVE SMOOTH",
"248 -30 OFFCURVE",
"244 -42.333 OFFCURVE",
"244 -57 CURVE SMOOTH",
"244 -75.667 OFFCURVE",
"251.333 -98.333 OFFCURVE",
"266 -113 CURVE SMOOTH",
"292.667 -139.667 OFFCURVE",
"316 -135 OFFCURVE",
"328 -135 CURVE SMOOTH"
);
},
{
closed = 1;
nodes = (
"124 326.333 OFFCURVE",
"143 420 OFFCURVE",
"183 504 CURVE",
"220.333 424 OFFCURVE",
"240.667 322.333 OFFCURVE",
"246 233 CURVE",
"120 233 LINE"
);
}
);
width = 370;
}
);
unicode = 0104;
},
{
glyphname = Aring;
lastChange = "2024-07-25 09:45:54 +0000";
layers = (
{
layerId = "27BA4E46-0A2B-46F0-A320-1D87D61B7B36";
paths = (
{
closed = 1;
nodes = (
"119 0 LINE",
"119 128 LINE",
"246 128 LINE",
"246 0 LINE",
"358 0 LINE",
"358 0 LINE",
"358 139 LINE SMOOTH",
"358 318.379 OFFCURVE",
"344.387 485.75 OFFCURVE",
"218 649 CURVE",
"146 649 LINE",
"21.543 484.822 OFFCURVE",
"8 323.648 OFFCURVE",
"8 139 CURVE SMOOTH",
"8 0 LINE"
);
},
{
closed = 1;
nodes = (
"123 326.333 OFFCURVE",
"142 420 OFFCURVE",
"182 504 CURVE",
"220.288 421.954 OFFCURVE",
"239.364 325.989 OFFCURVE",
"245 233 CURVE",
"119 233 LINE"
);
},
{
closed = 1;
nodes = (
"223.667 671 OFFCURVE",
"255 705.333 OFFCURVE",
"255 744 CURVE SMOOTH",
"255 786.667 OFFCURVE",
"223.667 820 OFFCURVE",
"181 820 CURVE SMOOTH",
"138.333 820 OFFCURVE",
"106 786.667 OFFCURVE",
"106 744 CURVE SMOOTH",
"106 705.333 OFFCURVE",
"138.333 671 OFFCURVE",
"181 671 CURVE SMOOTH"
);
},
{
closed = 1;
nodes = (
"166.333 722 OFFCURVE",
"157 731 OFFCURVE",
"157 743 CURVE SMOOTH",
"157 755 OFFCURVE",
"166.333 765 OFFCURVE",
"181 765 CURVE SMOOTH",
"191.667 765 OFFCURVE",
"204 755 OFFCURVE",
"204 743 CURVE SMOOTH",
"204 731 OFFCURVE",
"191.667 722 OFFCURVE",
"181 722 CURVE SMOOTH"
);
}
);
width = 371;
}
);
unicode = 00C5;
},
{
glyphname = Atilde;
lastChange = "2024-07-25 09:45:54 +0000";
layers = (
{
layerId = "27BA4E46-0A2B-46F0-A320-1D87D61B7B36";
paths = (
{
closed = 1;
nodes = (
"119 0 LINE",
"119 128 LINE",
"246 128 LINE",
"246 0 LINE",
"358 0 LINE",
"358 0 LINE",
"358 139 LINE SMOOTH",
"358 318.379 OFFCURVE",
"344.387 485.75 OFFCURVE",
"218 649 CURVE",
"146 649 LINE",
"21.543 484.822 OFFCURVE",
"8 323.648 OFFCURVE",
"8 139 CURVE SMOOTH",
"8 0 LINE"
);
},
{
closed = 1;
nodes = (
"123 326.333 OFFCURVE",
"142 420 OFFCURVE",
"182 504 CURVE",
"220.288 421.954 OFFCURVE",
"239.364 325.989 OFFCURVE",
"245 233 CURVE",
"119 233 LINE"
);
},
{
closed = 1;
nodes = (
"107 691 LINE SMOOTH",
"109.667 693.667 OFFCURVE",
"113.333 696.667 OFFCURVE",
"118 700 CURVE SMOOTH",
"126 704 OFFCURVE",
"135.333 708 OFFCURVE",
"146 708 CURVE SMOOTH",
"154 708 OFFCURVE",
"161 704 OFFCURVE",
"169 700 CURVE",
"197.667 680.667 OFFCURVE",
"224.333 671 OFFCURVE",
"249 671 CURVE SMOOTH",
"256 671 LINE",
"256 671 OFFCURVE",
"256 671 OFFCURVE",
"256 671 CURVE",
"256 671 OFFCURVE",
"256 671 OFFCURVE",
"256 671 CURVE",
"257 671 LINE",
"257 671 OFFCURVE",
"257 671 OFFCURVE",
"257 671 CURVE",
"257 671 OFFCURVE",
"257 671 OFFCURVE",
"257 671 CURVE",
"257 671 OFFCURVE",
"257 671 OFFCURVE",
"257 671 CURVE",
"258 671 LINE",
"258 671 OFFCURVE",
"258 671 OFFCURVE",
"258 671 CURVE",
"258 671 OFFCURVE",
"258 671 OFFCURVE",
"258 671 CURVE",
"258 671 OFFCURVE",
"258 671 OFFCURVE",
"258 671 CURVE",
"261.333 671 OFFCURVE",
"264.667 671.333 OFFCURVE",
"268 672 CURVE SMOOTH",
"292 678 OFFCURVE",
"314.333 693.333 OFFCURVE",
"335 718 CURVE SMOOTH",
"339 723 LINE",
"293 767 LINE",
"293 767 LINE",
"290 762 LINE SMOOTH",
"280 748.667 OFFCURVE",
"269 740.333 OFFCURVE",
"257 737 CURVE SMOOTH",
"254.333 736.333 OFFCURVE",
"251.667 736 OFFCURVE",
"249 736 CURVE SMOOTH",
"235.667 736 OFFCURVE",
"219.667 742.333 OFFCURVE",
"201 755 CURVE SMOOTH",
"183 767 OFFCURVE",
"164.667 773 OFFCURVE",
"146 773 CURVE SMOOTH",
"126 773 OFFCURVE",
"107 767 OFFCURVE",
"89 755 CURVE SMOOTH",
"75.667 747.667 OFFCURVE",
"65.167 739.5 OFFCURVE",
"57.5 730.5 CURVE SMOOTH",
"49.833 721.5 OFFCURVE",
"45.333 716.333 OFFCURVE",
"44 715 CURVE",
"41 709 LINE",
"86 669 LINE"
);
}
);
width = 370;
}
);
unicode = 00C3;
},
{
glyphname = AE;
lastChange = "2024-07-25 09:45:54 +0000";
layers = (
{
layerId = "27BA4E46-0A2B-46F0-A320-1D87D61B7B36";
paths = (
{
closed = 1;
nodes = (
"137 0 LINE",
"137 128 LINE",
"257 128 LINE",
"257 0 LINE",
"573 0 LINE",
"573 106 LINE",
"369 106 LINE",
"369 287 LINE",
"513 287 LINE",
"513 393 LINE",
"369 393 LINE",
"369 544 LINE",
"573 544 LINE",
"573 544 LINE",
"573 649 LINE",
"187 649 LINE",
"59.757 492.597 OFFCURVE",
"26 323.883 OFFCURVE",
"26 139 CURVE SMOOTH",
"26 0 LINE"
);
},
{
closed = 1;
nodes = (
"139.667 327.667 OFFCURVE",
"156.333 390 OFFCURVE",
"179 438 CURVE SMOOTH",
"202.483 487.729 OFFCURVE",
"228.107 516.549 OFFCURVE",
"257 557 CURVE",
"257 233 LINE",
"137 233 LINE"
);
}
);
width = 597;
}
);
unicode = 00C6;
},
{
glyphname = AEacute;
lastChange = "2024-07-25 09:45:54 +0000";
layers = (
{
layerId = "27BA4E46-0A2B-46F0-A320-1D87D61B7B36";
paths = (
{
closed = 1;
nodes = (
"137 0 LINE",
"137 128 LINE",
"257 128 LINE",
"257 0 LINE",
"573 0 LINE",
"573 106 LINE",
"369 106 LINE",
"369 287 LINE",
"513 287 LINE",
"513 393 LINE",
"369 393 LINE",
"369 544 LINE",
"573 544 LINE",
"573 544 LINE",
"573 649 LINE",
"187 649 LINE",
"59.757 492.597 OFFCURVE",
"26 323.883 OFFCURVE",
"26 139 CURVE SMOOTH",
"26 0 LINE"
);
},
{
closed = 1;
nodes = (
"139.667 327.667 OFFCURVE",
"156.333 390 OFFCURVE",
"179 438 CURVE SMOOTH",
"202.483 487.729 OFFCURVE",
"228.107 516.549 OFFCURVE",
"257 557 CURVE",
"257 233 LINE",
"137 233 LINE"
);
},
{
closed = 1;
nodes = (
"238 681 LINE",
"238 681 OFFCURVE",
"238 681 OFFCURVE",
"238 681 CURVE",
"238 681 OFFCURVE",
"238 681 OFFCURVE",
"238 681 CURVE",
"244 681 LINE",
"244 681 OFFCURVE",
"244 681 OFFCURVE",
"244 681 CURVE",
"244 681 OFFCURVE",
"244 681 OFFCURVE",
"244 681 CURVE",
"244 681 OFFCURVE",
"244 681 OFFCURVE",
"244 681 CURVE",
"249 681 LINE",
"249 681 OFFCURVE",
"249 681 OFFCURVE",
"249 681 CURVE",
"250 681 LINE",
"250 681 OFFCURVE",
"250 681 OFFCURVE",
"250 681 CURVE",
"250 681 OFFCURVE",
"250 681 OFFCURVE",
"250 681 CURVE",
"251 681 LINE",
"251 681 OFFCURVE",
"251 681 OFFCURVE",
"251 681 CURVE",
"251 681 OFFCURVE",
"251 681 OFFCURVE",
"251 681 CURVE",
"251 681 OFFCURVE",
"251 681 OFFCURVE",
"251 681 CURVE",
"251 681 OFFCURVE",
"251 681 OFFCURVE",
"251 681 CURVE",
"251 681 OFFCURVE",
"251 681 OFFCURVE",
"251 681 CURVE",
"251 681 OFFCURVE",
"251 681 OFFCURVE",
"251 681 CURVE",
"251 681 OFFCURVE",
"251 681 OFFCURVE",
"251 681 CURVE",
"253 681 LINE",
"253 681 OFFCURVE",
"253 681 OFFCURVE",
"253 681 CURVE",
"253 681 OFFCURVE",
"253 681 OFFCURVE",
"253 681 CURVE",
"253 681 OFFCURVE",
"253 681 OFFCURVE",
"253 681 CURVE",
"254 681 LINE",
"254 681 OFFCURVE",
"254 681 OFFCURVE",
"254 681 CURVE",
"254 681 OFFCURVE",
"254 681 OFFCURVE",
"254 681 CURVE",
"268 681 OFFCURVE",
"284 681.333 OFFCURVE",
"302 682 CURVE",
"356 764 LINE",
"259 764 LINE",
"233 724 LINE SMOOTH",
"226.333 714 OFFCURVE",
"220.333 704.667 OFFCURVE",
"215 696 CURVE SMOOTH",
"209.667 687.333 OFFCURVE",
"207 682.667 OFFCURVE",
"207 682 CURVE SMOOTH",
"207 681.333 OFFCURVE",
"212 681 OFFCURVE",
"222 681 CURVE SMOOTH"
);
}
);
width = 597;
}
);
unicode = 01FC;
},
{
glyphname = B;
lastChange = "2024-07-25 09:45:54 +0000";
layers = (
{
layerId = "27BA4E46-0A2B-46F0-A320-1D87D61B7B36";
paths = (
{
closed = 1;
nodes = (
"150 -1 LINE SMOOTH",
"305.09 -1 OFFCURVE",
"379 17.056 OFFCURVE",
"379 197 CURVE SMOOTH",
"379 244.828 OFFCURVE",
"377.435 302.155 OFFCURVE",
"336 341 CURVE",
"372.423 377.423 OFFCURVE",
"378 440.93 OFFCURVE",
"378 484 CURVE",
"367.121 622.705 OFFCURVE",
"257.199 650 OFFCURVE",
"135 650 CURVE SMOOTH",
"87 650 LINE SMOOTH",
"78.333 650 OFFCURVE",
"68.667 649.833 OFFCURVE",
"58 649.5 CURVE SMOOTH",
"47.333 649.167 OFFCURVE",
"37.333 649 OFFCURVE",
"28 649 CURVE",
"28 0 LINE",
"40 0 OFFCURVE",
"52.333 -0.167 OFFCURVE",
"65 -0.5 CURVE SMOOTH",
"77.667 -0.833 OFFCURVE",
"89.667 -1 OFFCURVE",
"101 -1 CURVE SMOOTH"
);
},
{
closed = 1;
nodes = (
"160.667 105 OFFCURVE",
"156 105.167 OFFCURVE",
"152 105.5 CURVE SMOOTH",
"148 105.833 OFFCURVE",
"144.667 106 OFFCURVE",
"142 106 CURVE",
"140 287 LINE",
"140 287 LINE",
"152 287 LINE SMOOTH",
"156.667 287 OFFCURVE",
"161.333 287.167 OFFCURVE",
"166 287.5 CURVE SMOOTH",
"170.667 287.833 OFFCURVE",
"175.667 288 OFFCURVE",
"181 288 CURVE SMOOTH",
"215.769 288 OFFCURVE",
"258.424 284.186 OFFCURVE",
"261 261 CURVE SMOOTH",
"263.667 242.333 OFFCURVE",
"266 220.333 OFFCURVE",
"266 199 CURVE SMOOTH",
"266 168.333 OFFCURVE",
"262.333 139.667 OFFCURVE",
"249 125 CURVE SMOOTH",
"232.785 108.785 OFFCURVE",
"199.57 105 OFFCURVE",
"166 105 CURVE SMOOTH"
);
},
{
closed = 1;
nodes = (
"157.667 392 OFFCURVE",
"154.333 392.167 OFFCURVE",
"151 392.5 CURVE SMOOTH",
"147.667 392.833 OFFCURVE",
"144 393 OFFCURVE",
"140 393 CURVE",
"140 543 LINE",
"149 543 LINE SMOOTH",
"181 543 OFFCURVE",
"223.667 544.667 OFFCURVE",
"245 530 CURVE SMOOTH",
"246 529 LINE",
"260.667 523.667 OFFCURVE",
"269 498 OFFCURVE",
"269 470 CURVE SMOOTH",
"269 438 OFFCURVE",
"258.333 405.667 OFFCURVE",
"233 399 CURVE SMOOTH",
"206.333 391 OFFCURVE",
"190 392 OFFCURVE",
"178 392 CURVE SMOOTH",
"161 392 LINE SMOOTH"
);
}
);
width = 409;
}
);
unicode = 0042;
},
{
glyphname = C;
lastChange = "2024-07-25 09:45:54 +0000";
layers = (
{
layerId = "27BA4E46-0A2B-46F0-A320-1D87D61B7B36";
paths = (
{
closed = 1;
nodes = (
"365.519 0 OFFCURVE",
"377 72.55 OFFCURVE",
"377 202 CURVE",
"266 202 LINE",
"266 202 LINE",
"266 188 LINE",
"267.333 180 OFFCURVE",
"268 169.667 OFFCURVE",
"268 159 CURVE SMOOTH",
"268 140.333 OFFCURVE",
"265.667 119.667 OFFCURVE",
"255 117 CURVE SMOOTH",
"243 112.333 OFFCURVE",
"228 110 OFFCURVE",
"210 110 CURVE SMOOTH",
"176.667 110 OFFCURVE",
"142.667 120.333 OFFCURVE",
"140 143 CURVE",
"139.333 173 OFFCURVE",
"139 200 OFFCURVE",
"139 224 CURVE SMOOTH",
"139 284 LINE",
"139 284 OFFCURVE",
"139 284 OFFCURVE",
"139 284 CURVE",
"139 284 OFFCURVE",
"139 284 OFFCURVE",
"139 284 CURVE",
"139 284 OFFCURVE",
"139 284 OFFCURVE",
"139 284 CURVE",
"139 284 OFFCURVE",
"139 284 OFFCURVE",
"139 284 CURVE",
"139 284 OFFCURVE",
"139 284 OFFCURVE",
"139 284 CURVE",
"139 484 LINE SMOOTH",
"139 542.184 OFFCURVE",
"139.105 543 OFFCURVE",
"202 543 CURVE SMOOTH",
"266.6 543 OFFCURVE",
"266 538.229 OFFCURVE",
"266 479 CURVE",
"377 479 LINE",
"377 601.933 OFFCURVE",
"330.667 649 OFFCURVE",
"202 649 CURVE SMOOTH",
"71.035 649 OFFCURVE",
"27 600.766 OFFCURVE",
"27 484 CURVE SMOOTH",
"27 165 LINE SMOOTH",
"27 45.075 OFFCURVE",
"71.843 0 OFFCURVE",
"202 0 CURVE SMOOTH"
);
}
);
width = 406;
}
);
unicode = 0043;
},
{
glyphname = Cacute;
lastChange = "2024-07-25 09:45:54 +0000";
layers = (
{
layerId = "27BA4E46-0A2B-46F0-A320-1D87D61B7B36";
paths = (
{
closed = 1;
nodes = (
"365.519 0 OFFCURVE",
"377 72.55 OFFCURVE",
"377 202 CURVE",
"266 202 LINE",
"266 202 LINE",
"266 188 LINE",
"267.333 180 OFFCURVE",
"268 169.667 OFFCURVE",
"268 159 CURVE SMOOTH",
"268 140.333 OFFCURVE",
"265.667 119.667 OFFCURVE",
"255 117 CURVE SMOOTH",
"243 112.333 OFFCURVE",
"228 110 OFFCURVE",
"210 110 CURVE SMOOTH",
"176.667 110 OFFCURVE",
"142.667 120.333 OFFCURVE",
"140 143 CURVE",
"139.333 173 OFFCURVE",
"139 200 OFFCURVE",
"139 224 CURVE SMOOTH",
"139 284 LINE",
"139 284 OFFCURVE",
"139 284 OFFCURVE",
"139 284 CURVE",
"139 284 OFFCURVE",
"139 284 OFFCURVE",
"139 284 CURVE",
"139 284 OFFCURVE",
"139 284 OFFCURVE",
"139 284 CURVE",
"139 284 OFFCURVE",
"139 284 OFFCURVE",
"139 284 CURVE",
"139 284 OFFCURVE",
"139 284 OFFCURVE",
"139 284 CURVE",
"139 484 LINE SMOOTH",
"139 542.184 OFFCURVE",
"139.105 543 OFFCURVE",
"202 543 CURVE SMOOTH",
"266.6 543 OFFCURVE",
"266 538.229 OFFCURVE",
"266 479 CURVE",
"377 479 LINE",
"377 601.933 OFFCURVE",
"330.667 649 OFFCURVE",
"202 649 CURVE SMOOTH",
"71.035 649 OFFCURVE",
"27 600.766 OFFCURVE",
"27 484 CURVE SMOOTH",
"27 165 LINE SMOOTH",
"27 45.075 OFFCURVE",
"71.843 0 OFFCURVE",
"202 0 CURVE SMOOTH"
);
},
{
closed = 1;
nodes = (
"164.167 681 OFFCURVE",
"175 681.333 OFFCURVE",
"187 682 CURVE SMOOTH",
"201 682 OFFCURVE",
"217 682.333 OFFCURVE",
"235 683 CURVE",
"289 764 LINE",
"192 764 LINE",
"166 724 LINE SMOOTH",
"159.333 714 OFFCURVE",
"153.333 704.667 OFFCURVE",
"148 696 CURVE SMOOTH",
"142.667 687.333 OFFCURVE",
"140 682.667 OFFCURVE",
"140 682 CURVE SMOOTH",
"140 681.333 OFFCURVE",
"144.833 681 OFFCURVE",
"154.5 681 CURVE SMOOTH"
);
}
);
width = 406;
}
);
unicode = 0106;
},
{
glyphname = Ccaron;
lastChange = "2024-07-25 09:45:54 +0000";
layers = (
{
layerId = "27BA4E46-0A2B-46F0-A320-1D87D61B7B36";
paths = (
{
closed = 1;
nodes = (
"365.519 0 OFFCURVE",
"377 72.55 OFFCURVE",
"377 202 CURVE",
"266 202 LINE",
"266 202 LINE",
"266 188 LINE",
"267.333 180 OFFCURVE",
"268 169.667 OFFCURVE",
"268 159 CURVE SMOOTH",
"268 140.333 OFFCURVE",
"265.667 119.667 OFFCURVE",
"255 117 CURVE SMOOTH",
"243 112.333 OFFCURVE",
"228 110 OFFCURVE",
"210 110 CURVE SMOOTH",
"176.667 110 OFFCURVE",
"142.667 120.333 OFFCURVE",
"140 143 CURVE",
"139.333 173 OFFCURVE",
"139 200 OFFCURVE",
"139 224 CURVE SMOOTH",
"139 284 LINE",
"139 284 OFFCURVE",
"139 284 OFFCURVE",
"139 284 CURVE",
"139 284 OFFCURVE",
"139 284 OFFCURVE",
"139 284 CURVE",
"139 284 OFFCURVE",
"139 284 OFFCURVE",
"139 284 CURVE",
"139 284 OFFCURVE",
"139 284 OFFCURVE",
"139 284 CURVE",
"139 284 OFFCURVE",
"139 284 OFFCURVE",
"139 284 CURVE",
"139 484 LINE SMOOTH",
"139 542.184 OFFCURVE",
"139.105 543 OFFCURVE",
"202 543 CURVE SMOOTH",
"266.6 543 OFFCURVE",
"266 538.229 OFFCURVE",
"266 479 CURVE",
"377 479 LINE",
"377 601.933 OFFCURVE",
"330.667 649 OFFCURVE",
"202 649 CURVE SMOOTH",
"71.035 649 OFFCURVE",
"27 600.766 OFFCURVE",
"27 484 CURVE SMOOTH",
"27 165 LINE SMOOTH",
"27 45.075 OFFCURVE",
"71.843 0 OFFCURVE",
"202 0 CURVE SMOOTH"
);
},
{
closed = 1;
nodes = (
"283 671 LINE",
"341 765 LINE",
"341 765 LINE",
"237 765 LINE",
"198 705 LINE",
"156 761 LINE",
"52 761 LINE",
"112 669 LINE"
);
}
);
width = 406;
}
);
unicode = 010C;
},
{
glyphname = Ccedilla;
lastChange = "2024-07-25 09:45:54 +0000";
layers = (
{
layerId = "27BA4E46-0A2B-46F0-A320-1D87D61B7B36";
paths = (
{
closed = 1;
nodes = (
"187.333 -136 OFFCURVE",
"215 -140.667 OFFCURVE",
"247 -114 CURVE SMOOTH",
"264.333 -99.333 OFFCURVE",
"273 -76.667 OFFCURVE",
"273 -58 CURVE SMOOTH",
"273 -44 OFFCURVE",
"268.333 -31.667 OFFCURVE",
"259 -21 CURVE SMOOTH",
"249.667 -11 OFFCURVE",
"236.333 -4 OFFCURVE",
"219 0 CURVE",
"223 0 LINE SMOOTH",
"361.289 0 OFFCURVE",
"379 72.352 OFFCURVE",
"379 202 CURVE",
"268 202 LINE",
"268 188 LINE",
"269.333 180 OFFCURVE",
"270 169.667 OFFCURVE",
"270 159 CURVE SMOOTH",
"270 140.333 OFFCURVE",
"267.667 119.667 OFFCURVE",
"257 117 CURVE",
"245.667 112.333 OFFCURVE",
"230.667 110 OFFCURVE",
"212 110 CURVE SMOOTH",
"178.667 110 OFFCURVE",
"144.667 120.333 OFFCURVE",
"142 143 CURVE",
"141.333 173 OFFCURVE",
"141 200 OFFCURVE",
"141 224 CURVE SMOOTH",
"141 288 LINE",
"141 288 OFFCURVE",
"141 288 OFFCURVE",
"141 288 CURVE",
"141 288 OFFCURVE",
"141 288 OFFCURVE",
"141 288 CURVE",
"141 288 OFFCURVE",
"141 288 OFFCURVE",
"141 288 CURVE",
"141 288 OFFCURVE",
"141 288 OFFCURVE",
"141 288 CURVE",
"141 288 OFFCURVE",
"141 288 OFFCURVE",
"141 288 CURVE",
"141 288 OFFCURVE",
"141 288 OFFCURVE",
"141 288 CURVE",
"141 484 LINE SMOOTH",
"141 542.184 OFFCURVE",
"141.105 543 OFFCURVE",
"204 543 CURVE SMOOTH",
"268.6 543 OFFCURVE",
"268 538.229 OFFCURVE",
"268 479 CURVE",
"379 479 LINE",
"379 601.933 OFFCURVE",
"332.667 649 OFFCURVE",
"204 649 CURVE SMOOTH",
"72.012 649 OFFCURVE",
"29 600.054 OFFCURVE",
"29 484 CURVE SMOOTH",
"29 165 LINE SMOOTH",
"29 55.667 OFFCURVE",
"79.667 1 OFFCURVE",
"173 1 CURVE SMOOTH",
"174 1 LINE",
"174 1 OFFCURVE",
"174 1 OFFCURVE",
"174 1 CURVE",
"174 1 OFFCURVE",
"174 1 OFFCURVE",
"174 1 CURVE",
"175 1 LINE",
"175 1 OFFCURVE",
"175 1 OFFCURVE",
"175 1 CURVE",
"175 1 OFFCURVE",
"175 1 OFFCURVE",
"175 1 CURVE",
"176 1 LINE",
"176 1 OFFCURVE",
"176 1 OFFCURVE",
"176 1 CURVE",
"176 1 OFFCURVE",
"176 1 OFFCURVE",
"176 1 CURVE",
"176 1 OFFCURVE",
"176 1 OFFCURVE",
"176 1 CURVE",
"176 1 OFFCURVE",
"176 1 OFFCURVE",
"176 1 CURVE",
"176 1 OFFCURVE",
"176 1 OFFCURVE",
"176 1 CURVE",
"176 1 OFFCURVE",
"176 1 OFFCURVE",
"176 1 CURVE",
"176 1 OFFCURVE",
"176 1 OFFCURVE",
"176 1 CURVE",
"149 -39 LINE",
"151 -39 OFFCURVE",
"153 -38.833 OFFCURVE",
"155 -38.5 CURVE SMOOTH",
"157 -38.167 OFFCURVE",
"158.667 -38 OFFCURVE",
"160 -38 CURVE SMOOTH",
"169.333 -38 OFFCURVE",
"177.667 -41 OFFCURVE",
"185 -47 CURVE SMOOTH",
"191.667 -53.667 OFFCURVE",
"195 -60.667 OFFCURVE",
"195 -68 CURVE SMOOTH",
"195 -79.333 OFFCURVE",
"190 -89.333 OFFCURVE",
"180 -98 CURVE SMOOTH",
"168.667 -107.333 OFFCURVE",
"156 -112 OFFCURVE",
"142 -112 CURVE SMOOTH",
"135.333 -112 OFFCURVE",
"129 -111.333 OFFCURVE",
"121 -110 CURVE",
"129 -134 LINE",
"145 -135.333 OFFCURVE",
"160 -136 OFFCURVE",
"174 -136 CURVE SMOOTH"
);
},
{
closed = 1;
nodes = (
"176 1 OFFCURVE",
"176 1 OFFCURVE",
"176 1 CURVE",
"176 1 OFFCURVE",
"176 1 OFFCURVE",
"176 1 CURVE",
"176 1 OFFCURVE",
"176 1 OFFCURVE",
"176 1 CURVE"
);
}
);
width = 405;
}
);
unicode = 00C7;
},
{
glyphname = Ccircumflex;
lastChange = "2024-07-25 09:45:54 +0000";
layers = (
{
layerId = "27BA4E46-0A2B-46F0-A320-1D87D61B7B36";
paths = (
{
closed = 1;
nodes = (
"365.519 0 OFFCURVE",
"377 72.55 OFFCURVE",
"377 202 CURVE",
"266 202 LINE",
"266 202 LINE",
"266 188 LINE",
"267.333 180 OFFCURVE",
"268 169.667 OFFCURVE",
"268 159 CURVE SMOOTH",
"268 140.333 OFFCURVE",
"265.667 119.667 OFFCURVE",
"255 117 CURVE SMOOTH",
"243 112.333 OFFCURVE",
"228 110 OFFCURVE",
"210 110 CURVE SMOOTH",
"176.667 110 OFFCURVE",
"142.667 120.333 OFFCURVE",
"140 143 CURVE",
"139.333 173 OFFCURVE",
"139 200 OFFCURVE",
"139 224 CURVE SMOOTH",
"139 284 LINE",
"139 284 OFFCURVE",
"139 284 OFFCURVE",
"139 284 CURVE",
"139 284 OFFCURVE",
"139 284 OFFCURVE",
"139 284 CURVE",
"139 284 OFFCURVE",
"139 284 OFFCURVE",
"139 284 CURVE",
"139 284 OFFCURVE",
"139 284 OFFCURVE",
"139 284 CURVE",
"139 284 OFFCURVE",
"139 284 OFFCURVE",
"139 284 CURVE",
"139 484 LINE SMOOTH",
"139 542.184 OFFCURVE",
"139.105 543 OFFCURVE",
"202 543 CURVE SMOOTH",
"266.6 543 OFFCURVE",
"266 538.229 OFFCURVE",
"266 479 CURVE",
"377 479 LINE",
"377 601.933 OFFCURVE",
"330.667 649 OFFCURVE",
"202 649 CURVE SMOOTH",
"71.035 649 OFFCURVE",
"27 600.766 OFFCURVE",
"27 484 CURVE SMOOTH",
"27 165 LINE SMOOTH",
"27 45.075 OFFCURVE",
"71.843 0 OFFCURVE",
"202 0 CURVE SMOOTH"
);
},
{
closed = 1;
nodes = (
"152 679 LINE",
"193 736 LINE",
"233 680 LINE",
"334 680 LINE",
"273 774 LINE",
"116 774 LINE",
"56 679 LINE",
"56 679 LINE"
);
}
);
width = 406;
}
);
unicode = 0108;
},
{
glyphname = Cdotaccent;
lastChange = "2024-07-25 09:45:54 +0000";
layers = (
{
layerId = "27BA4E46-0A2B-46F0-A320-1D87D61B7B36";
paths = (
{
closed = 1;
nodes = (
"365.519 0 OFFCURVE",
"377 72.55 OFFCURVE",
"377 202 CURVE",
"266 202 LINE",
"266 202 LINE",
"266 188 LINE",
"267.333 180 OFFCURVE",
"268 169.667 OFFCURVE",
"268 159 CURVE SMOOTH",
"268 140.333 OFFCURVE",
"265.667 119.667 OFFCURVE",
"255 117 CURVE SMOOTH",
"243 112.333 OFFCURVE",
"228 110 OFFCURVE",
"210 110 CURVE SMOOTH",
"176.667 110 OFFCURVE",
"142.667 120.333 OFFCURVE",
"140 143 CURVE",
"139.333 173 OFFCURVE",
"139 200 OFFCURVE",
"139 224 CURVE SMOOTH",
"139 284 LINE",
"139 284 OFFCURVE",
"139 284 OFFCURVE",
"139 284 CURVE",
"139 284 OFFCURVE",
"139 284 OFFCURVE",
"139 284 CURVE",
"139 284 OFFCURVE",
"139 284 OFFCURVE",
"139 284 CURVE",
"139 284 OFFCURVE",
"139 284 OFFCURVE",
"139 284 CURVE",
"139 284 OFFCURVE",
"139 284 OFFCURVE",
"139 284 CURVE",
"139 484 LINE SMOOTH",
"139 542.184 OFFCURVE",
"139.105 543 OFFCURVE",
"202 543 CURVE SMOOTH",
"266.6 543 OFFCURVE",
"266 538.229 OFFCURVE",
"266 479 CURVE",
"377 479 LINE",
"377 601.933 OFFCURVE",
"330.667 649 OFFCURVE",
"202 649 CURVE SMOOTH",
"71.035 649 OFFCURVE",
"27 600.766 OFFCURVE",
"27 484 CURVE SMOOTH",
"27 165 LINE SMOOTH",
"27 45.075 OFFCURVE",
"71.843 0 OFFCURVE",
"202 0 CURVE SMOOTH"
);
},
{
closed = 1;
nodes = (
"237.333 679 OFFCURVE",
"256 696.667 OFFCURVE",
"256 732 CURVE SMOOTH",
"256 770.667 OFFCURVE",
"240 786 OFFCURVE",
"200 786 CURVE SMOOTH",
"158.667 786 OFFCURVE",
"144 769.333 OFFCURVE",
"144 732 CURVE SMOOTH",
"144 696 OFFCURVE",
"160 679 OFFCURVE",
"200 679 CURVE SMOOTH"
);
}
);
width = 406;
}
);
unicode = 010A;
},
{
glyphname = D;
lastChange = "2024-07-25 09:45:54 +0000";
layers = (
{
layerId = "27BA4E46-0A2B-46F0-A320-1D87D61B7B36";
paths = (
{
closed = 1;
nodes = (
"127 0 LINE SMOOTH",
"264.006 0 OFFCURVE",
"378 15.45 OFFCURVE",
"378 182 CURVE SMOOTH",
"378 481 LINE SMOOTH",
"378 598.494 OFFCURVE",
"333.261 649 OFFCURVE",
"203 649 CURVE SMOOTH",
"28 649 LINE",
"28 0 LINE",
"28 0 LINE"
);
},
{
closed = 1;
nodes = (
"140 544 LINE",
"140 544 LINE",
"161 544 LINE SMOOTH",
"234.429 544 OFFCURVE",
"267 544.624 OFFCURVE",
"267 471 CURVE SMOOTH",
"267 186 LINE SMOOTH",
"267 109.333 OFFCURVE",
"232.199 106 OFFCURVE",
"140 106 CURVE"
);
}
);
width = 406;
}
);
unicode = 0044;
},
{
glyphname = Dcaron;
lastChange = "2024-07-25 09:45:54 +0000";
layers = (
{
layerId = "27BA4E46-0A2B-46F0-A320-1D87D61B7B36";
paths = (
{
closed = 1;
nodes = (
"127 0 LINE SMOOTH",
"264.006 0 OFFCURVE",
"378 15.45 OFFCURVE",
"378 182 CURVE SMOOTH",
"378 481 LINE SMOOTH",
"378 598.494 OFFCURVE",
"333.261 649 OFFCURVE",
"203 649 CURVE SMOOTH",
"28 649 LINE",
"28 0 LINE",
"28 0 LINE"
);
},
{
closed = 1;
nodes = (
"140 544 LINE",
"140 544 LINE",
"161 544 LINE SMOOTH",
"234.429 544 OFFCURVE",
"267 544.624 OFFCURVE",
"267 471 CURVE SMOOTH",
"267 186 LINE SMOOTH",
"267 109.333 OFFCURVE",
"232.199 106 OFFCURVE",
"140 106 CURVE"
);
},
{
closed = 1;
nodes = (
"267 677 LINE",
"325 771 LINE",
"325 771 LINE",
"221 771 LINE",
"182 711 LINE",
"140 767 LINE",
"36 767 LINE",
"96 675 LINE"
);
}
);
width = 406;
}
);
unicode = 010E;
},
{
glyphname = Dcroat;
lastChange = "2024-07-25 09:45:54 +0000";
layers = (
{
layerId = "27BA4E46-0A2B-46F0-A320-1D87D61B7B36";
paths = (
{
closed = 1;
nodes = (
"147 0 LINE SMOOTH",
"284.006 0 OFFCURVE",
"398 15.45 OFFCURVE",
"398 182 CURVE SMOOTH",
"398 481 LINE SMOOTH",
"398 597.541 OFFCURVE",
"354.084 649 OFFCURVE",
"223 649 CURVE SMOOTH",
"48 649 LINE",
"48 649 LINE",
"48 385 LINE",
"18 385 LINE",
"18 278 LINE",
"48 278 LINE",
"48 0 LINE"
);
},
{
closed = 1;
nodes = (
"160 278 LINE",
"239 278 LINE",
"239 385 LINE",
"160 385 LINE",
"160 544 LINE",
"181 544 LINE SMOOTH",
"254.429 544 OFFCURVE",
"287 544.624 OFFCURVE",
"287 471 CURVE SMOOTH",
"287 186 LINE SMOOTH",
"287 109.333 OFFCURVE",
"252.199 106 OFFCURVE",
"160 106 CURVE"
);
}
);
width = 420;
}
);
unicode = 0110;
},
{
glyphname = Eth;
lastChange = "2024-07-25 09:45:54 +0000";
layers = (
{
layerId = "27BA4E46-0A2B-46F0-A320-1D87D61B7B36";
paths = (
{
closed = 1;
nodes = (
"147 0 LINE SMOOTH",
"284.006 0 OFFCURVE",
"398 15.45 OFFCURVE",
"398 182 CURVE SMOOTH",
"398 481 LINE SMOOTH",
"398 597.541 OFFCURVE",
"354.084 649 OFFCURVE",
"223 649 CURVE SMOOTH",
"48 649 LINE",
"48 649 LINE",
"48 385 LINE",
"18 385 LINE",
"18 278 LINE",
"48 278 LINE",
"48 0 LINE"
);
},
{
closed = 1;
nodes = (
"160 278 LINE",
"239 278 LINE",
"239 385 LINE",
"160 385 LINE",
"160 544 LINE",
"181 544 LINE SMOOTH",
"254.429 544 OFFCURVE",
"287 544.624 OFFCURVE",
"287 471 CURVE SMOOTH",
"287 186 LINE SMOOTH",
"287 109.333 OFFCURVE",
"252.199 106 OFFCURVE",
"160 106 CURVE"
);
}
);
width = 420;
}
);
unicode = 00D0;
},
{
glyphname = E;
lastChange = "2024-07-25 09:45:54 +0000";
layers = (
{
layerId = "27BA4E46-0A2B-46F0-A320-1D87D61B7B36";
paths = (
{
closed = 1;
nodes = (
"345 0 LINE",
"345 106 LINE",
"345 106 LINE",
"141 106 LINE",
"141 287 LINE",
"285 287 LINE",
"285 393 LINE",
"141 393 LINE",
"141 544 LINE",
"345 544 LINE",
"345 649 LINE",
"29 649 LINE",
"29 0 LINE"
);
}
);
width = 374;
}
);
unicode = 0045;
},
{
glyphname = Eacute;
lastChange = "2024-07-25 09:45:54 +0000";
layers = (
{
layerId = "27BA4E46-0A2B-46F0-A320-1D87D61B7B36";
paths = (
{
closed = 1;
nodes = (
"345 0 LINE",
"345 106 LINE",
"345 106 LINE",
"141 106 LINE",
"141 287 LINE",
"285 287 LINE",
"285 393 LINE",
"141 393 LINE",
"141 544 LINE",
"345 544 LINE",
"345 649 LINE",
"29 649 LINE",
"29 0 LINE"
);
},
{
closed = 1;
nodes = (
"155.167 681 OFFCURVE",
"166 681.333 OFFCURVE",
"178 682 CURVE SMOOTH",
"192 682 OFFCURVE",
"208 682.333 OFFCURVE",
"226 683 CURVE",
"280 764 LINE",
"183 764 LINE",
"157 724 LINE SMOOTH",
"150.333 714 OFFCURVE",
"144.333 704.667 OFFCURVE",
"139 696 CURVE SMOOTH",
"133.667 687.333 OFFCURVE",
"131 682.667 OFFCURVE",
"131 682 CURVE SMOOTH",
"131 681.333 OFFCURVE",
"135.833 681 OFFCURVE",
"145.5 681 CURVE SMOOTH"
);
}
);
width = 374;
}
);
unicode = 00C9;
},
{
glyphname = Ebreve;
lastChange = "2024-07-25 09:45:54 +0000";
layers = (
{
layerId = "27BA4E46-0A2B-46F0-A320-1D87D61B7B36";
paths = (
{
closed = 1;
nodes = (
"345 0 LINE",
"345 106 LINE",
"345 106 LINE",
"141 106 LINE",
"141 287 LINE",
"285 287 LINE",
"285 393 LINE",
"141 393 LINE",
"141 544 LINE",
"345 544 LINE",
"345 649 LINE",
"29 649 LINE",
"29 0 LINE"
);
},
{
closed = 1;
nodes = (
"266 679 OFFCURVE",
"306.333 708.333 OFFCURVE",
"309 783 CURVE",
"244 783 LINE",
"238.667 744.333 OFFCURVE",
"219.333 742 OFFCURVE",
"190 742 CURVE SMOOTH",
"162 742 OFFCURVE",
"143.333 744.333 OFFCURVE",
"138 783 CURVE",
"73 783 LINE",
"75.667 708.333 OFFCURVE",
"114 679 OFFCURVE",
"190 679 CURVE SMOOTH"
);
}
);
width = 374;
}
);
unicode = 0114;
},
{
glyphname = Ecaron;
lastChange = "2024-07-25 09:45:54 +0000";
layers = (
{
layerId = "27BA4E46-0A2B-46F0-A320-1D87D61B7B36";
paths = (
{
closed = 1;
nodes = (
"345 0 LINE",
"345 106 LINE",
"345 106 LINE",
"141 106 LINE",
"141 287 LINE",
"285 287 LINE",
"285 393 LINE",
"141 393 LINE",
"141 544 LINE",
"345 544 LINE",
"345 649 LINE",
"29 649 LINE",
"29 0 LINE"
);
},
{
closed = 1;
nodes = (
"274 679 LINE",
"332 768 LINE",
"332 768 LINE",
"228 768 LINE",
"189 711 LINE",
"147 767 LINE",
"43 767 LINE",
"103 678 LINE"
);
}
);
width = 374;
}
);
unicode = 011A;
},
{
glyphname = Ecircumflex;
lastChange = "2024-07-25 09:45:54 +0000";
layers = (
{
layerId = "27BA4E46-0A2B-46F0-A320-1D87D61B7B36";
paths = (
{
closed = 1;
nodes = (
"345 0 LINE",
"345 106 LINE",
"345 106 LINE",
"141 106 LINE",
"141 287 LINE",
"285 287 LINE",
"285 393 LINE",
"141 393 LINE",
"141 544 LINE",
"345 544 LINE",
"345 649 LINE",
"29 649 LINE",
"29 0 LINE"
);
},
{
closed = 1;
nodes = (
"145 684 LINE",
"184 738 LINE",
"226 684 LINE",
"330 684 LINE",
"270 776 LINE",
"99 775 LINE",
"41 684 LINE",
"41 684 LINE"
);
}
);
width = 374;
}
);
unicode = 00CA;
},
{
glyphname = Edieresis;
lastChange = "2024-07-25 09:45:54 +0000";
layers = (
{
layerId = "27BA4E46-0A2B-46F0-A320-1D87D61B7B36";
paths = (
{
closed = 1;
nodes = (
"345 0 LINE",
"345 106 LINE",
"345 106 LINE",
"141 106 LINE",
"141 287 LINE",
"285 287 LINE",
"285 393 LINE",
"141 393 LINE",
"141 544 LINE",
"345 544 LINE",
"345 649 LINE",
"29 649 LINE",
"29 0 LINE"
);
},
{
closed = 1;
nodes = (
"83.167 681 OFFCURVE",
"94 681.333 OFFCURVE",
"106 682 CURVE SMOOTH",
"120 682 OFFCURVE",
"136 682.333 OFFCURVE",
"154 683 CURVE",
"155 764 LINE",
"59 764 LINE",
"59 682 LINE SMOOTH",
"59 681.333 OFFCURVE",
"63.833 681 OFFCURVE",
"73.5 681 CURVE SMOOTH"
);
},
{
closed = 1;
nodes = (
"233 684 LINE",
"233 684 OFFCURVE",
"233 684 OFFCURVE",
"233 684 CURVE",
"233 684 OFFCURVE",
"233 684 OFFCURVE",
"233 684 CURVE",
"233 684 OFFCURVE",
"233 684 OFFCURVE",
"233 684 CURVE",
"233.667 684 OFFCURVE",
"234 684 OFFCURVE",
"234 684 CURVE",
"234 684 OFFCURVE",
"234 684 OFFCURVE",
"234 684 CURVE",
"234 684 OFFCURVE",
"234 684 OFFCURVE",
"234 684 CURVE",
"234 684 OFFCURVE",
"234 684 OFFCURVE",
"234 684 CURVE",
"234 684 OFFCURVE",
"234 684 OFFCURVE",
"234 684 CURVE",
"234 684 OFFCURVE",
"234 684 OFFCURVE",
"234 684 CURVE",
"234 684 OFFCURVE",
"234 684 OFFCURVE",
"234 684 CURVE",
"245 684 LINE",
"245 684 OFFCURVE",
"245 684 OFFCURVE",
"245 684 CURVE",
"245 684 OFFCURVE",
"245 684 OFFCURVE",
"245 684 CURVE",
"245 684 OFFCURVE",
"245 684 OFFCURVE",
"245 684 CURVE",
"245 684 OFFCURVE",
"245 684 OFFCURVE",
"245 684 CURVE",
"245.667 684 OFFCURVE",
"246 684 OFFCURVE",
"246 684 CURVE",
"246 684 OFFCURVE",
"246 684 OFFCURVE",
"246 684 CURVE",
"246 684 OFFCURVE",
"246 684 OFFCURVE",
"246 684 CURVE",
"246 684 OFFCURVE",
"246 684 OFFCURVE",
"246 684 CURVE",
"246 684 OFFCURVE",
"246 684 OFFCURVE",
"246 684 CURVE",
"246 684 OFFCURVE",
"246 684 OFFCURVE",
"246 684 CURVE",
"246 684 OFFCURVE",
"246 684 OFFCURVE",
"246 684 CURVE",
"246 684 OFFCURVE",
"246 684 OFFCURVE",
"246 684 CURVE",
"249 684 LINE",
"249 684 OFFCURVE",
"249 684 OFFCURVE",
"249 684 CURVE",
"249 684 OFFCURVE",
"249 684 OFFCURVE",
"249 684 CURVE",
"249 684 OFFCURVE",
"249 684 OFFCURVE",
"249 684 CURVE",
"249 684 OFFCURVE",
"249 684 OFFCURVE",
"249 684 CURVE",
"249.667 684 OFFCURVE",
"250 684 OFFCURVE",
"250 684 CURVE",
"250 684 OFFCURVE",
"250 684 OFFCURVE",
"250 684 CURVE",
"250 684 OFFCURVE",
"250 684 OFFCURVE",
"250 684 CURVE",
"250 684 OFFCURVE",
"250 684 OFFCURVE",
"250 684 CURVE",
"250 684 OFFCURVE",
"250 684 OFFCURVE",
"250 684 CURVE",
"250 684 OFFCURVE",
"250 684 OFFCURVE",
"250 684 CURVE",
"250 684 OFFCURVE",
"250 684 OFFCURVE",
"250 684 CURVE",
"250 684 OFFCURVE",
"250 684 OFFCURVE",
"250 684 CURVE",
"251 684 LINE",
"251 684 OFFCURVE",
"251 684 OFFCURVE",
"251 684 CURVE",
"251 684 OFFCURVE",
"251 684 OFFCURVE",
"251 684 CURVE",
"251 684 OFFCURVE",
"251 684 OFFCURVE",
"251 684 CURVE",
"251 684 OFFCURVE",
"251 684 OFFCURVE",
"251 684 CURVE",
"251.667 684 OFFCURVE",
"252 684 OFFCURVE",
"252 684 CURVE",
"252 684 OFFCURVE",
"252 684 OFFCURVE",
"252 684 CURVE",
"252 684 OFFCURVE",
"252 684 OFFCURVE",
"252 684 CURVE",
"252 684 OFFCURVE",
"252 684 OFFCURVE",
"252 684 CURVE",
"252 684 OFFCURVE",
"252 684 OFFCURVE",
"252 684 CURVE",
"252 684 OFFCURVE",
"252 684 OFFCURVE",
"252 684 CURVE",
"252 684 OFFCURVE",
"252 684 OFFCURVE",
"252 684 CURVE",
"252 684 OFFCURVE",
"252 684 OFFCURVE",
"252 684 CURVE",
"253 684 LINE",
"253 684 OFFCURVE",
"253 684 OFFCURVE",
"253 684 CURVE",
"253 684 OFFCURVE",
"253 684 OFFCURVE",
"253 684 CURVE",
"253 684 OFFCURVE",
"253 684 OFFCURVE",
"253 684 CURVE",
"253.667 684 OFFCURVE",
"254 684 OFFCURVE",
"254 684 CURVE",
"254 684 OFFCURVE",
"254 684 OFFCURVE",
"254 684 CURVE",
"254 684 OFFCURVE",
"254 684 OFFCURVE",
"254 684 CURVE",
"254 684 OFFCURVE",
"254 684 OFFCURVE",
"254 684 CURVE",
"254 684 OFFCURVE",
"254 684 OFFCURVE",
"254 684 CURVE",
"254 684 OFFCURVE",
"254 684 OFFCURVE",
"254 684 CURVE",
"254 684 OFFCURVE",
"254 684 OFFCURVE",
"254 684 CURVE",
"255 684 LINE",
"255 684 OFFCURVE",
"255 684 OFFCURVE",
"255 684 CURVE",
"255.667 684 OFFCURVE",
"256 684 OFFCURVE",
"256 684 CURVE",
"256 684 OFFCURVE",
"256 684 OFFCURVE",
"256 684 CURVE",
"256 684 OFFCURVE",
"256 684 OFFCURVE",
"256 684 CURVE",
"256 684 OFFCURVE",
"256 684 OFFCURVE",
"256 684 CURVE",
"256 684 OFFCURVE",
"256 684 OFFCURVE",
"256 684 CURVE",
"257 684 LINE",
"257 684 OFFCURVE",
"257 684 OFFCURVE",
"257 684 CURVE",
"257 684 OFFCURVE",
"257 684 OFFCURVE",
"257 684 CURVE",
"257 684 OFFCURVE",
"257 684 OFFCURVE",
"257 684 CURVE",
"257.667 684 OFFCURVE",
"258 684 OFFCURVE",
"258 684 CURVE",
"258 684 OFFCURVE",
"258 684 OFFCURVE",
"258 684 CURVE",
"258 684 OFFCURVE",
"258 684 OFFCURVE",
"258 684 CURVE",
"258 684 OFFCURVE",
"258 684 OFFCURVE",
"258 684 CURVE",
"258 684 OFFCURVE",
"258 684 OFFCURVE",
"258 684 CURVE",
"258 684 OFFCURVE",
"258 684 OFFCURVE",
"258 684 CURVE",
"258.667 684 OFFCURVE",
"259 684 OFFCURVE",
"259 684 CURVE",
"259 684 OFFCURVE",
"259 684 OFFCURVE",
"259 684 CURVE",
"259 684 OFFCURVE",
"259 684 OFFCURVE",
"259 684 CURVE",
"259 684 OFFCURVE",
"259 684 OFFCURVE",
"259 684 CURVE",
"259 684 OFFCURVE",
"259 684 OFFCURVE",
"259 684 CURVE",
"262 684 LINE SMOOTH",
"276 684 OFFCURVE",
"292 684.333 OFFCURVE",
"310 685 CURVE",
"311 766 LINE",
"215 766 LINE",
"215 685 LINE SMOOTH",
"215 684.333 OFFCURVE",
"220 684 OFFCURVE",
"230 684 CURVE SMOOTH"
);
}
);
width = 374;
}
);
unicode = 00CB;
},
{
glyphname = Edotaccent;
lastChange = "2024-07-25 09:45:54 +0000";
layers = (
{
layerId = "27BA4E46-0A2B-46F0-A320-1D87D61B7B36";
paths = (
{
closed = 1;
nodes = (
"345 0 LINE",
"345 106 LINE",
"345 106 LINE",
"141 106 LINE",
"141 287 LINE",
"285 287 LINE",
"285 393 LINE",
"141 393 LINE",
"141 544 LINE",
"345 544 LINE",
"345 649 LINE",
"29 649 LINE",
"29 0 LINE"
);
},
{
closed = 1;
nodes = (
"226.333 679 OFFCURVE",
"245 696.667 OFFCURVE",
"245 732 CURVE SMOOTH",
"245 770.667 OFFCURVE",
"229 786 OFFCURVE",
"189 786 CURVE SMOOTH",
"147.667 786 OFFCURVE",
"133 769.333 OFFCURVE",
"133 732 CURVE SMOOTH",
"133 696 OFFCURVE",
"149 679 OFFCURVE",
"189 679 CURVE SMOOTH"
);
}
);
width = 374;
}
);
unicode = 0116;
},
{
glyphname = Egrave;
lastChange = "2024-07-25 09:45:54 +0000";
layers = (
{
layerId = "27BA4E46-0A2B-46F0-A320-1D87D61B7B36";
paths = (
{
closed = 1;
nodes = (
"345 0 LINE",
"345 106 LINE",
"345 106 LINE",
"141 106 LINE",
"141 287 LINE",
"285 287 LINE",
"285 393 LINE",
"141 393 LINE",
"141 544 LINE",
"345 544 LINE",
"345 649 LINE",
"29 649 LINE",
"29 0 LINE"
);
},
{
closed = 1;
nodes = (
"173.167 681 OFFCURVE",
"184 681.333 OFFCURVE",
"196 682 CURVE SMOOTH",
"210 682 OFFCURVE",
"226 682.333 OFFCURVE",
"244 683 CURVE",
"184 764 LINE",
"87 764 LINE",
"98.333 749.333 OFFCURVE",
"108.667 736 OFFCURVE",
"118 724 CURVE SMOOTH",
"125.333 714 OFFCURVE",
"132.333 704.667 OFFCURVE",
"139 696 CURVE SMOOTH",
"145.667 687.333 OFFCURVE",
"149 682.667 OFFCURVE",
"149 682 CURVE SMOOTH",
"149 681.333 OFFCURVE",
"153.833 681 OFFCURVE",
"163.5 681 CURVE SMOOTH"
);
}
);
width = 374;
}
);
unicode = 00C8;
},
{
glyphname = Emacron;
lastChange = "2024-07-25 09:45:54 +0000";
layers = (
{
layerId = "27BA4E46-0A2B-46F0-A320-1D87D61B7B36";
paths = (
{
closed = 1;
nodes = (
"345 0 LINE",
"345 106 LINE",
"345 106 LINE",
"141 106 LINE",
"141 287 LINE",
"285 287 LINE",
"285 393 LINE",
"141 393 LINE",
"141 544 LINE",
"345 544 LINE",
"345 649 LINE",
"29 649 LINE",
"29 0 LINE"
);
},
{
closed = 1;
nodes = (
"117 684 LINE",
"117 684 OFFCURVE",
"117 684 OFFCURVE",
"117 684 CURVE",
"117 684 OFFCURVE",
"117 684 OFFCURVE",
"117 684 CURVE",
"117 684 OFFCURVE",
"117 684 OFFCURVE",
"117 684 CURVE",
"117.667 684 OFFCURVE",
"118 684 OFFCURVE",
"118 684 CURVE",
"118 684 OFFCURVE",
"118 684 OFFCURVE",
"118 684 CURVE",
"118 684 OFFCURVE",
"118 684 OFFCURVE",
"118 684 CURVE",
"118 684 OFFCURVE",
"118 684 OFFCURVE",
"118 684 CURVE",
"118 684 OFFCURVE",
"118 684 OFFCURVE",
"118 684 CURVE",
"118 684 OFFCURVE",
"118 684 OFFCURVE",
"118 684 CURVE",
"129 684 LINE",
"129 684 OFFCURVE",
"129 684 OFFCURVE",
"129 684 CURVE",
"129.667 684 OFFCURVE",
"130 684 OFFCURVE",
"130 684 CURVE",
"130 684 OFFCURVE",
"130 684 OFFCURVE",
"130 684 CURVE",
"130 684 OFFCURVE",
"130 684 OFFCURVE",
"130 684 CURVE",
"130 684 OFFCURVE",
"130 684 OFFCURVE",
"130 684 CURVE",
"130 684 OFFCURVE",
"130 684 OFFCURVE",
"130 684 CURVE",
"133 684 LINE",
"133 684 OFFCURVE",
"133 684 OFFCURVE",
"133 684 CURVE",
"133 684 OFFCURVE",
"133 684 OFFCURVE",
"133 684 CURVE",
"133 684 OFFCURVE",
"133 684 OFFCURVE",
"133 684 CURVE",
"133.667 684 OFFCURVE",
"134 684 OFFCURVE",
"134 684 CURVE",
"134 684 OFFCURVE",
"134 684 OFFCURVE",
"134 684 CURVE",
"134 684 OFFCURVE",
"134 684 OFFCURVE",
"134 684 CURVE",
"134 684 OFFCURVE",
"134 684 OFFCURVE",
"134 684 CURVE",
"134 684 OFFCURVE",
"134 684 OFFCURVE",
"134 684 CURVE",
"134 684 OFFCURVE",
"134 684 OFFCURVE",
"134 684 CURVE",
"134 684 OFFCURVE",
"134 684 OFFCURVE",
"134 684 CURVE",
"134 684 OFFCURVE",
"134 684 OFFCURVE",
"134 684 CURVE",
"136 684 LINE",
"136 684 OFFCURVE",
"136 684 OFFCURVE",
"136 684 CURVE",
"136 684 OFFCURVE",
"136 684 OFFCURVE",
"136 684 CURVE",
"136 684 OFFCURVE",
"136 684 OFFCURVE",
"136 684 CURVE",
"136.667 684 OFFCURVE",
"137 684 OFFCURVE",
"137 684 CURVE",
"137 684 OFFCURVE",
"137 684 OFFCURVE",
"137 684 CURVE",
"137 684 OFFCURVE",
"137 684 OFFCURVE",
"137 684 CURVE",
"137 684 OFFCURVE",
"137 684 OFFCURVE",
"137 684 CURVE",
"137 684 OFFCURVE",
"137 684 OFFCURVE",
"137 684 CURVE",
"137 684 OFFCURVE",
"137 684 OFFCURVE",
"137 684 CURVE",
"137 684 OFFCURVE",
"137 684 OFFCURVE",
"137 684 CURVE",
"137 684 OFFCURVE",
"137 684 OFFCURVE",
"137 684 CURVE",
"138 684 LINE",
"138 684 OFFCURVE",
"138 684 OFFCURVE",
"138 684 CURVE",
"138 684 OFFCURVE",
"138 684 OFFCURVE",
"138 684 CURVE",
"138 684 OFFCURVE",
"138 684 OFFCURVE",
"138 684 CURVE",
"138.667 684 OFFCURVE",
"139 684 OFFCURVE",
"139 684 CURVE",
"139 684 OFFCURVE",
"139 684 OFFCURVE",
"139 684 CURVE",
"139 684 OFFCURVE",
"139 684 OFFCURVE",
"139 684 CURVE",
"139 684 OFFCURVE",
"139 684 OFFCURVE",
"139 684 CURVE",
"139 684 OFFCURVE",
"139 684 OFFCURVE",
"139 684 CURVE",
"139 684 OFFCURVE",
"139 684 OFFCURVE",
"139 684 CURVE",
"139 684 OFFCURVE",
"139 684 OFFCURVE",
"139 684 CURVE",
"139 684 OFFCURVE",
"139 684 OFFCURVE",
"139 684 CURVE",
"140 684 LINE",
"140 684 OFFCURVE",
"140 684 OFFCURVE",
"140 684 CURVE",
"140 684 OFFCURVE",
"140 684 OFFCURVE",
"140 684 CURVE",
"140 684 OFFCURVE",
"140 684 OFFCURVE",
"140 684 CURVE",
"141 684 LINE",
"141 684 OFFCURVE",
"141 684 OFFCURVE",
"141 684 CURVE",
"141.667 684 OFFCURVE",
"142 684 OFFCURVE",
"142 684 CURVE",
"142 684 OFFCURVE",
"142 684 OFFCURVE",
"142 684 CURVE",
"142 684 OFFCURVE",
"142 684 OFFCURVE",
"142 684 CURVE",
"142 684 OFFCURVE",
"142 684 OFFCURVE",
"142 684 CURVE",
"142 684 OFFCURVE",
"142 684 OFFCURVE",
"142 684 CURVE",
"142 684 OFFCURVE",
"142 684 OFFCURVE",
"142 684 CURVE",
"142 684 OFFCURVE",
"142 684 OFFCURVE",
"142 684 CURVE",
"142 684 OFFCURVE",
"142 684 OFFCURVE",
"142 684 CURVE",
"142 684 OFFCURVE",
"142 684 OFFCURVE",
"142 684 CURVE",
"142.667 684 OFFCURVE",
"143 684 OFFCURVE",
"143 684 CURVE",
"143 684 OFFCURVE",
"143 684 OFFCURVE",
"143 684 CURVE",
"143 684 OFFCURVE",
"143 684 OFFCURVE",
"143 684 CURVE",
"143 684 OFFCURVE",
"143 684 OFFCURVE",
"143 684 CURVE",
"143 684 OFFCURVE",
"143 684 OFFCURVE",
"143 684 CURVE",
"143 684 OFFCURVE",
"143 684 OFFCURVE",
"143 684 CURVE",
"143 684 OFFCURVE",
"143 684 OFFCURVE",
"143 684 CURVE",
"143 684 OFFCURVE",
"143 684 OFFCURVE",
"143 684 CURVE",
"149 684 LINE",
"149 684 OFFCURVE",
"149 684 OFFCURVE",
"149 684 CURVE",
"149 684 OFFCURVE",
"149 684 OFFCURVE",
"149 684 CURVE",
"149 684 OFFCURVE",
"149 684 OFFCURVE",
"149 684 CURVE",
"150 684 LINE",
"150 684 OFFCURVE",
"150 684 OFFCURVE",
"150 684 CURVE",
"150 684 OFFCURVE",
"150 684 OFFCURVE",
"150 684 CURVE",
"150 684 OFFCURVE",
"150 684 OFFCURVE",
"150 684 CURVE",
"150 684 OFFCURVE",
"150 684 OFFCURVE",
"150 684 CURVE",
"150.667 684 OFFCURVE",
"151 684 OFFCURVE",
"151 684 CURVE",
"151 684 OFFCURVE",
"151 684 OFFCURVE",
"151 684 CURVE",
"151 684 OFFCURVE",
"151 684 OFFCURVE",
"151 684 CURVE",
"151 684 OFFCURVE",
"151 684 OFFCURVE",
"151 684 CURVE",
"151 684 OFFCURVE",
"151 684 OFFCURVE",
"151 684 CURVE",
"151 684 OFFCURVE",
"151 684 OFFCURVE",
"151 684 CURVE",
"151 684 OFFCURVE",
"151 684 OFFCURVE",
"151 684 CURVE",
"151 684 OFFCURVE",
"151 684 OFFCURVE",
"151 684 CURVE",
"151.667 684 OFFCURVE",
"152 684 OFFCURVE",
"152 684 CURVE",
"152 684 OFFCURVE",
"152 684 OFFCURVE",
"152 684 CURVE",
"152 684 OFFCURVE",
"152 684 OFFCURVE",
"152 684 CURVE",
"152 684 OFFCURVE",
"152 684 OFFCURVE",
"152 684 CURVE",
"152 684 OFFCURVE",
"152 684 OFFCURVE",
"152 684 CURVE",
"165 684 LINE",
"165 684 OFFCURVE",
"165 684 OFFCURVE",
"165 684 CURVE",
"165 684 OFFCURVE",
"165 684 OFFCURVE",
"165 684 CURVE",
"165 684 OFFCURVE",
"165 684 OFFCURVE",
"165 684 CURVE",
"166 684 LINE",
"166 684 OFFCURVE",
"166 684 OFFCURVE",
"166 684 CURVE",
"166 684 OFFCURVE",
"166 684 OFFCURVE",
"166 684 CURVE",
"166 684 OFFCURVE",
"166 684 OFFCURVE",
"166 684 CURVE",
"166 684 OFFCURVE",
"166 684 OFFCURVE",
"166 684 CURVE",
"166.667 684 OFFCURVE",
"167 684 OFFCURVE",
"167 684 CURVE",
"167 684 OFFCURVE",
"167 684 OFFCURVE",
"167 684 CURVE",
"167 684 OFFCURVE",
"167 684 OFFCURVE",
"167 684 CURVE",
"167 684 OFFCURVE",
"167 684 OFFCURVE",
"167 684 CURVE",
"167 684 OFFCURVE",
"167 684 OFFCURVE",
"167 684 CURVE",
"167 684 OFFCURVE",
"167 684 OFFCURVE",
"167 684 CURVE",
"167 684 OFFCURVE",
"167 684 OFFCURVE",
"167 684 CURVE",
"170 684 LINE",
"170 684 OFFCURVE",
"170 684 OFFCURVE",
"170 684 CURVE",
"170 684 OFFCURVE",
"170 684 OFFCURVE",
"170 684 CURVE",
"170 684 OFFCURVE",
"170 684 OFFCURVE",
"170 684 CURVE",
"170.667 684 OFFCURVE",
"171 684 OFFCURVE",
"171 684 CURVE",
"171 684 OFFCURVE",
"171 684 OFFCURVE",
"171 684 CURVE",
"171 684 OFFCURVE",
"171 684 OFFCURVE",
"171 684 CURVE",
"171 684 OFFCURVE",
"171 684 OFFCURVE",
"171 684 CURVE",
"171 684 OFFCURVE",
"171 684 OFFCURVE",
"171 684 CURVE",
"172 684 LINE",
"172 684 OFFCURVE",
"172 684 OFFCURVE",
"172 684 CURVE",
"172 684 OFFCURVE",
"172 684 OFFCURVE",
"172 684 CURVE",
"173 684 LINE",
"173 684 OFFCURVE",
"173 684 OFFCURVE",
"173 684 CURVE",
"173.667 684 OFFCURVE",
"174 684 OFFCURVE",
"174 684 CURVE",
"174 684 OFFCURVE",
"174 684 OFFCURVE",
"174 684 CURVE",
"174 684 OFFCURVE",
"174 684 OFFCURVE",
"174 684 CURVE",
"174 684 OFFCURVE",
"174 684 OFFCURVE",
"174 684 CURVE",
"174 684 OFFCURVE",
"174 684 OFFCURVE",
"174 684 CURVE",
"174 684 OFFCURVE",
"174 684 OFFCURVE",
"174 684 CURVE",
"175 684 LINE",
"175 684 OFFCURVE",
"175 684 OFFCURVE",
"175 684 CURVE",
"175 684 OFFCURVE",
"175 684 OFFCURVE",
"175 684 CURVE",
"175 684 OFFCURVE",
"175 684 OFFCURVE",
"175 684 CURVE",
"175.667 684 OFFCURVE",
"176 684 OFFCURVE",
"176 684 CURVE",
"176 684 OFFCURVE",
"176 684 OFFCURVE",
"176 684 CURVE",
"176 684 OFFCURVE",
"176 684 OFFCURVE",
"176 684 CURVE",
"176 684 OFFCURVE",
"176 684 OFFCURVE",
"176 684 CURVE",
"176 684 OFFCURVE",
"176 684 OFFCURVE",
"176 684 CURVE",
"176 684 OFFCURVE",
"176 684 OFFCURVE",
"176 684 CURVE",
"176 684 OFFCURVE",
"176 684 OFFCURVE",
"176 684 CURVE",
"176 684 OFFCURVE",
"176 684 OFFCURVE",
"176 684 CURVE",
"177 684 LINE",
"177 684 OFFCURVE",
"177 684 OFFCURVE",
"177 684 CURVE",
"177 684 OFFCURVE",
"177 684 OFFCURVE",
"177 684 CURVE",
"177 684 OFFCURVE",
"177 684 OFFCURVE",
"177 684 CURVE",
"177 684 OFFCURVE",
"177 684 OFFCURVE",
"177 684 CURVE",
"177.667 684 OFFCURVE",
"178 684 OFFCURVE",
"178 684 CURVE",
"178 684 OFFCURVE",
"178 684 OFFCURVE",
"178 684 CURVE",
"178 684 OFFCURVE",
"178 684 OFFCURVE",
"178 684 CURVE",
"178 684 OFFCURVE",
"178 684 OFFCURVE",
"178 684 CURVE",
"178 684 OFFCURVE",
"178 684 OFFCURVE",
"178 684 CURVE",
"178 684 OFFCURVE",
"178 684 OFFCURVE",
"178 684 CURVE",
"178 684 OFFCURVE",
"178 684 OFFCURVE",
"178 684 CURVE",
"178 684 OFFCURVE",
"178 684 OFFCURVE",
"178 684 CURVE",
"179 684 LINE",
"179 684 OFFCURVE",
"179 684 OFFCURVE",
"179 684 CURVE",
"179 684 OFFCURVE",
"179 684 OFFCURVE",
"179 684 CURVE",
"179 684 OFFCURVE",
"179 684 OFFCURVE",
"179 684 CURVE",
"179 684 OFFCURVE",
"179 684 OFFCURVE",
"179 684 CURVE",
"179.667 684 OFFCURVE",
"180 684 OFFCURVE",
"180 684 CURVE",
"180 684 OFFCURVE",
"180 684 OFFCURVE",
"180 684 CURVE",
"180 684 OFFCURVE",
"180 684 OFFCURVE",
"180 684 CURVE",
"180 684 OFFCURVE",
"180 684 OFFCURVE",
"180 684 CURVE",
"180 684 OFFCURVE",
"180 684 OFFCURVE",
"180 684 CURVE",
"180 684 OFFCURVE",
"180 684 OFFCURVE",
"180 684 CURVE",
"180 684 OFFCURVE",
"180 684 OFFCURVE",
"180 684 CURVE",
"180 684 OFFCURVE",
"180 684 OFFCURVE",
"180 684 CURVE",
"184 684 LINE SMOOTH",
"214 684 OFFCURVE",
"248 684.333 OFFCURVE",
"286 685 CURVE",
"287 766 LINE",
"82 766 LINE",
"82 685 LINE",
"82 685 OFFCURVE",
"85 684.833 OFFCURVE",
"91 684.5 CURVE SMOOTH",
"97 684.167 OFFCURVE",
"104.667 684 OFFCURVE",
"114 684 CURVE SMOOTH"
);
}
);
width = 374;
}
);
unicode = 0112;
},
{
glyphname = Eogonek;
lastChange = "2024-07-25 09:45:54 +0000";
layers = (
{
layerId = "27BA4E46-0A2B-46F0-A320-1D87D61B7B36";
paths = (
{
closed = 1;
nodes = (
"284.333 -135 OFFCURVE",
"297 -134.333 OFFCURVE",
"311 -133 CURVE",
"317 -109 LINE",
"310.333 -110.333 OFFCURVE",
"305.333 -111 OFFCURVE",
"300 -111 CURVE SMOOTH",
"288 -111 OFFCURVE",
"277.333 -106.333 OFFCURVE",
"268 -97 CURVE SMOOTH",
"259.333 -88.333 OFFCURVE",
"255 -78.333 OFFCURVE",
"255 -67 CURVE SMOOTH",
"255 -59.667 OFFCURVE",
"257.667 -52.667 OFFCURVE",
"263 -46 CURVE SMOOTH",
"269 -40 OFFCURVE",
"276.333 -37 OFFCURVE",
"285 -37 CURVE SMOOTH",
"286.333 -37 OFFCURVE",
"287.667 -37.167 OFFCURVE",
"289 -37.5 CURVE SMOOTH",
"290.333 -37.833 OFFCURVE",
"292 -38 OFFCURVE",
"294 -38 CURVE",
"272 0 LINE",
"347 0 LINE",
"347 106 LINE",
"143 106 LINE",
"143 287 LINE",
"287 287 LINE",
"287 393 LINE",
"143 393 LINE",
"143 544 LINE",
"347 544 LINE",
"347 544 LINE",
"347 649 LINE",
"31 649 LINE",
"31 0 LINE",
"230 0 LINE",
"217.333 -4.667 OFFCURVE",
"207.667 -11.333 OFFCURVE",
"201 -20 CURVE SMOOTH",
"193 -30 OFFCURVE",
"189 -42.333 OFFCURVE",
"189 -57 CURVE SMOOTH",
"189 -75.667 OFFCURVE",
"196.333 -98.333 OFFCURVE",
"211 -113 CURVE SMOOTH",
"237.667 -139.667 OFFCURVE",
"261 -135 OFFCURVE",
"273 -135 CURVE SMOOTH"
);
}
);
width = 374;
}
);
unicode = 0118;
},
{
glyphname = F;
lastChange = "2024-07-25 09:45:54 +0000";
layers = (
{
layerId = "27BA4E46-0A2B-46F0-A320-1D87D61B7B36";
paths = (
{
closed = 1;
nodes = (
"142 0 LINE",
"142 287 LINE",
"286 287 LINE",
"286 393 LINE",
"142 393 LINE",
"142 544 LINE",
"346 544 LINE",
"346 649 LINE",
"346 649 LINE",
"30 649 LINE",
"30 0 LINE"
);
}
);
width = 370;
}
);
unicode = 0046;
},
{
glyphname = G;
lastChange = "2024-07-25 09:45:54 +0000";
layers = (
{
layerId = "27BA4E46-0A2B-46F0-A320-1D87D61B7B36";
paths = (
{
closed = 1;
nodes = (
"360.12 0 OFFCURVE",
"374 85.283 OFFCURVE",
"374 245 CURVE SMOOTH",
"374 362 LINE",
"170 362 LINE",
"170 256 LINE",
"262 256 LINE",
"262 200 LINE SMOOTH",
"262 135.459 OFFCURVE",
"255.243 106 OFFCURVE",
"213 106 CURVE SMOOTH",
"208 106 LINE SMOOTH",
"154.314 108.826 OFFCURVE",
"135 110.003 OFFCURVE",
"135 165 CURVE SMOOTH",
"135 485 LINE SMOOTH",
"135 540.365 OFFCURVE",
"152.356 544 OFFCURVE",
"199 544 CURVE SMOOTH",
"217 544 LINE",
"217 544 OFFCURVE",
"217 544 OFFCURVE",
"217 544 CURVE",
"217 544 OFFCURVE",
"217 544 OFFCURVE",
"217 544 CURVE",
"218 544 LINE",
"218 544 OFFCURVE",
"218 544 OFFCURVE",
"218 544 CURVE",
"218 544 OFFCURVE",
"218 544 OFFCURVE",
"218 544 CURVE",
"218 544 OFFCURVE",
"218 544 OFFCURVE",
"218 544 CURVE",
"219 544 LINE",
"219 544 OFFCURVE",
"219 544 OFFCURVE",
"219 544 CURVE",
"219 544 OFFCURVE",
"219 544 OFFCURVE",
"219 544 CURVE",
"220 544 LINE",
"220 544 OFFCURVE",
"220 544 OFFCURVE",
"220 544 CURVE",
"220 544 OFFCURVE",
"220 544 OFFCURVE",
"220 544 CURVE",
"220 544 OFFCURVE",
"220 544 OFFCURVE",
"220 544 CURVE",
"221 544 LINE",
"221 544 OFFCURVE",
"221 544 OFFCURVE",
"221 544 CURVE",
"221 544 OFFCURVE",
"221 544 OFFCURVE",
"221 544 CURVE",
"222 544 LINE",
"222 544 OFFCURVE",
"222 544 OFFCURVE",
"222 544 CURVE",
"222 544 OFFCURVE",
"222 544 OFFCURVE",
"222 544 CURVE",
"224 544 LINE",
"224 544 OFFCURVE",
"224 544 OFFCURVE",
"224 544 CURVE",
"224 544 OFFCURVE",
"224 544 OFFCURVE",
"224 544 CURVE",
"224 544 OFFCURVE",
"224 544 OFFCURVE",
"224 544 CURVE",
"225 544 LINE",
"225 544 OFFCURVE",
"225 544 OFFCURVE",
"225 544 CURVE",
"225 544 OFFCURVE",
"225 544 OFFCURVE",
"225 544 CURVE",
"225 544 OFFCURVE",
"225 544 OFFCURVE",
"225 544 CURVE",
"225 544 OFFCURVE",
"225 544 OFFCURVE",
"225 544 CURVE",
"230 544 LINE SMOOTH",
"252.245 544 OFFCURVE",
"252.84 536.12 OFFCURVE",
"257 507 CURVE SMOOTH",
"259 480 LINE",
"374 480 LINE",
"374 600.306 OFFCURVE",
"329.105 649 OFFCURVE",
"199 649 CURVE SMOOTH",
"68.771 649 OFFCURVE",
"24 603.797 OFFCURVE",
"24 485 CURVE SMOOTH",
"24 165 LINE SMOOTH",
"24 45.075 OFFCURVE",
"68.843 0 OFFCURVE",
"199 0 CURVE SMOOTH"
);
}
);
width = 402;
}
);
unicode = 0047;
},
{
glyphname = Gbreve;
lastChange = "2024-07-25 09:45:54 +0000";
layers = (
{
layerId = "27BA4E46-0A2B-46F0-A320-1D87D61B7B36";
paths = (
{
closed = 1;
nodes = (
"360.12 0 OFFCURVE",
"374 85.283 OFFCURVE",
"374 245 CURVE SMOOTH",
"374 362 LINE",
"170 362 LINE",
"170 256 LINE",
"262 256 LINE",
"262 200 LINE SMOOTH",
"262 135.459 OFFCURVE",
"255.243 106 OFFCURVE",
"213 106 CURVE SMOOTH",
"208 106 LINE SMOOTH",
"154.314 108.826 OFFCURVE",
"135 110.003 OFFCURVE",
"135 165 CURVE SMOOTH",
"135 485 LINE SMOOTH",
"135 540.365 OFFCURVE",
"152.356 544 OFFCURVE",
"199 544 CURVE SMOOTH",
"217 544 LINE",
"217 544 OFFCURVE",
"217 544 OFFCURVE",
"217 544 CURVE",
"217 544 OFFCURVE",
"217 544 OFFCURVE",
"217 544 CURVE",
"218 544 LINE",
"218 544 OFFCURVE",
"218 544 OFFCURVE",
"218 544 CURVE",
"218 544 OFFCURVE",
"218 544 OFFCURVE",
"218 544 CURVE",
"218 544 OFFCURVE",
"218 544 OFFCURVE",
"218 544 CURVE",
"219 544 LINE",
"219 544 OFFCURVE",
"219 544 OFFCURVE",
"219 544 CURVE",
"219 544 OFFCURVE",
"219 544 OFFCURVE",
"219 544 CURVE",
"220 544 LINE",
"220 544 OFFCURVE",
"220 544 OFFCURVE",
"220 544 CURVE",
"220 544 OFFCURVE",
"220 544 OFFCURVE",
"220 544 CURVE",
"220 544 OFFCURVE",
"220 544 OFFCURVE",
"220 544 CURVE",
"221 544 LINE",
"221 544 OFFCURVE",
"221 544 OFFCURVE",
"221 544 CURVE",
"221 544 OFFCURVE",
"221 544 OFFCURVE",
"221 544 CURVE",
"222 544 LINE",
"222 544 OFFCURVE",
"222 544 OFFCURVE",
"222 544 CURVE",
"222 544 OFFCURVE",
"222 544 OFFCURVE",
"222 544 CURVE",
"224 544 LINE",
"224 544 OFFCURVE",
"224 544 OFFCURVE",
"224 544 CURVE",
"224 544 OFFCURVE",
"224 544 OFFCURVE",
"224 544 CURVE",
"224 544 OFFCURVE",
"224 544 OFFCURVE",
"224 544 CURVE",
"225 544 LINE",
"225 544 OFFCURVE",
"225 544 OFFCURVE",
"225 544 CURVE",
"225 544 OFFCURVE",
"225 544 OFFCURVE",
"225 544 CURVE",
"225 544 OFFCURVE",
"225 544 OFFCURVE",
"225 544 CURVE",
"225 544 OFFCURVE",
"225 544 OFFCURVE",
"225 544 CURVE",
"230 544 LINE SMOOTH",
"252.245 544 OFFCURVE",
"252.84 536.12 OFFCURVE",
"257 507 CURVE SMOOTH",
"259 480 LINE",
"374 480 LINE",
"374 600.306 OFFCURVE",
"329.105 649 OFFCURVE",
"199 649 CURVE SMOOTH",
"68.771 649 OFFCURVE",
"24 603.797 OFFCURVE",
"24 485 CURVE SMOOTH",
"24 165 LINE SMOOTH",
"24 45.075 OFFCURVE",
"68.843 0 OFFCURVE",
"199 0 CURVE SMOOTH"
);
},
{
closed = 1;
nodes = (
"266 679 OFFCURVE",
"306.333 708.333 OFFCURVE",
"309 783 CURVE",
"244 783 LINE",
"238.667 744.333 OFFCURVE",
"219.333 742 OFFCURVE",
"190 742 CURVE SMOOTH",
"162 742 OFFCURVE",
"143.333 744.333 OFFCURVE",
"138 783 CURVE",
"73 783 LINE",
"75.667 708.333 OFFCURVE",
"114 679 OFFCURVE",
"190 679 CURVE SMOOTH"
);
}
);
width = 402;
}
);
unicode = 011E;
},
{
glyphname = Gcircumflex;
lastChange = "2024-07-25 09:45:54 +0000";
layers = (
{
layerId = "27BA4E46-0A2B-46F0-A320-1D87D61B7B36";
paths = (
{
closed = 1;
nodes = (
"360.12 0 OFFCURVE",
"374 85.283 OFFCURVE",
"374 245 CURVE SMOOTH",
"374 362 LINE",
"170 362 LINE",
"170 256 LINE",
"262 256 LINE",
"262 200 LINE SMOOTH",
"262 135.459 OFFCURVE",
"255.243 106 OFFCURVE",
"213 106 CURVE SMOOTH",
"208 106 LINE SMOOTH",
"154.314 108.826 OFFCURVE",
"135 110.003 OFFCURVE",
"135 165 CURVE SMOOTH",
"135 485 LINE SMOOTH",
"135 540.365 OFFCURVE",
"152.356 544 OFFCURVE",
"199 544 CURVE SMOOTH",
"217 544 LINE",
"217 544 OFFCURVE",
"217 544 OFFCURVE",
"217 544 CURVE",
"217 544 OFFCURVE",
"217 544 OFFCURVE",
"217 544 CURVE",
"218 544 LINE",
"218 544 OFFCURVE",
"218 544 OFFCURVE",
"218 544 CURVE",
"218 544 OFFCURVE",
"218 544 OFFCURVE",
"218 544 CURVE",
"218 544 OFFCURVE",
"218 544 OFFCURVE",
"218 544 CURVE",
"219 544 LINE",
"219 544 OFFCURVE",
"219 544 OFFCURVE",
"219 544 CURVE",
"219 544 OFFCURVE",
"219 544 OFFCURVE",
"219 544 CURVE",
"220 544 LINE",
"220 544 OFFCURVE",
"220 544 OFFCURVE",
"220 544 CURVE",
"220 544 OFFCURVE",
"220 544 OFFCURVE",
"220 544 CURVE",
"220 544 OFFCURVE",
"220 544 OFFCURVE",
"220 544 CURVE",
"221 544 LINE",
"221 544 OFFCURVE",
"221 544 OFFCURVE",
"221 544 CURVE",
"221 544 OFFCURVE",
"221 544 OFFCURVE",
"221 544 CURVE",
"222 544 LINE",
"222 544 OFFCURVE",
"222 544 OFFCURVE",
"222 544 CURVE",
"222 544 OFFCURVE",
"222 544 OFFCURVE",
"222 544 CURVE",
"224 544 LINE",
"224 544 OFFCURVE",
"224 544 OFFCURVE",
"224 544 CURVE",
"224 544 OFFCURVE",
"224 544 OFFCURVE",
"224 544 CURVE",
"224 544 OFFCURVE",
"224 544 OFFCURVE",
"224 544 CURVE",
"225 544 LINE",
"225 544 OFFCURVE",
"225 544 OFFCURVE",
"225 544 CURVE",
"225 544 OFFCURVE",
"225 544 OFFCURVE",
"225 544 CURVE",
"225 544 OFFCURVE",
"225 544 OFFCURVE",
"225 544 CURVE",
"225 544 OFFCURVE",
"225 544 OFFCURVE",
"225 544 CURVE",
"230 544 LINE SMOOTH",
"252.245 544 OFFCURVE",
"252.84 536.12 OFFCURVE",
"257 507 CURVE SMOOTH",
"259 480 LINE",
"374 480 LINE",
"374 600.306 OFFCURVE",
"329.105 649 OFFCURVE",
"199 649 CURVE SMOOTH",
"68.771 649 OFFCURVE",
"24 603.797 OFFCURVE",
"24 485 CURVE SMOOTH",
"24 165 LINE SMOOTH",
"24 45.075 OFFCURVE",
"68.843 0 OFFCURVE",
"199 0 CURVE SMOOTH"
);
},
{
closed = 1;
nodes = (
"161 680 LINE",
"200 738 LINE",
"242 684 LINE",
"346 684 LINE",
"286 776 LINE",
"115 775 LINE",
"57 680 LINE",
"57 680 LINE"
);
}
);
width = 402;
}
);
unicode = 011C;
},
{
glyphname = Gdotaccent;
lastChange = "2024-07-25 09:45:54 +0000";
layers = (
{
layerId = "27BA4E46-0A2B-46F0-A320-1D87D61B7B36";
paths = (
{
closed = 1;
nodes = (
"360.12 0 OFFCURVE",
"374 85.283 OFFCURVE",
"374 245 CURVE SMOOTH",
"374 362 LINE",
"170 362 LINE",
"170 256 LINE",
"262 256 LINE",
"262 200 LINE SMOOTH",
"262 135.459 OFFCURVE",
"255.243 106 OFFCURVE",
"213 106 CURVE SMOOTH",
"208 106 LINE SMOOTH",
"154.314 108.826 OFFCURVE",
"135 110.003 OFFCURVE",
"135 165 CURVE SMOOTH",
"135 485 LINE SMOOTH",
"135 540.365 OFFCURVE",
"152.356 544 OFFCURVE",
"199 544 CURVE SMOOTH",
"217 544 LINE",
"217 544 OFFCURVE",
"217 544 OFFCURVE",
"217 544 CURVE",
"217 544 OFFCURVE",
"217 544 OFFCURVE",
"217 544 CURVE",
"218 544 LINE",
"218 544 OFFCURVE",
"218 544 OFFCURVE",
"218 544 CURVE",
"218 544 OFFCURVE",
"218 544 OFFCURVE",
"218 544 CURVE",
"218 544 OFFCURVE",
"218 544 OFFCURVE",
"218 544 CURVE",
"219 544 LINE",
"219 544 OFFCURVE",
"219 544 OFFCURVE",
"219 544 CURVE",
"219 544 OFFCURVE",
"219 544 OFFCURVE",
"219 544 CURVE",
"220 544 LINE",
"220 544 OFFCURVE",
"220 544 OFFCURVE",
"220 544 CURVE",
"220 544 OFFCURVE",
"220 544 OFFCURVE",
"220 544 CURVE",
"220 544 OFFCURVE",
"220 544 OFFCURVE",
"220 544 CURVE",
"221 544 LINE",
"221 544 OFFCURVE",
"221 544 OFFCURVE",
"221 544 CURVE",
"221 544 OFFCURVE",
"221 544 OFFCURVE",
"221 544 CURVE",
"222 544 LINE",
"222 544 OFFCURVE",
"222 544 OFFCURVE",
"222 544 CURVE",
"222 544 OFFCURVE",
"222 544 OFFCURVE",
"222 544 CURVE",
"224 544 LINE",
"224 544 OFFCURVE",
"224 544 OFFCURVE",
"224 544 CURVE",
"224 544 OFFCURVE",
"224 544 OFFCURVE",
"224 544 CURVE",
"224 544 OFFCURVE",
"224 544 OFFCURVE",
"224 544 CURVE",
"225 544 LINE",
"225 544 OFFCURVE",
"225 544 OFFCURVE",
"225 544 CURVE",
"225 544 OFFCURVE",
"225 544 OFFCURVE",
"225 544 CURVE",
"225 544 OFFCURVE",
"225 544 OFFCURVE",
"225 544 CURVE",
"225 544 OFFCURVE",
"225 544 OFFCURVE",
"225 544 CURVE",
"230 544 LINE SMOOTH",
"252.245 544 OFFCURVE",
"252.84 536.12 OFFCURVE",
"257 507 CURVE SMOOTH",
"259 480 LINE",
"374 480 LINE",
"374 600.306 OFFCURVE",
"329.105 649 OFFCURVE",
"199 649 CURVE SMOOTH",
"68.771 649 OFFCURVE",
"24 603.797 OFFCURVE",
"24 485 CURVE SMOOTH",
"24 165 LINE SMOOTH",
"24 45.075 OFFCURVE",
"68.843 0 OFFCURVE",
"199 0 CURVE SMOOTH"
);
},
{
closed = 1;
nodes = (
"237.333 679 OFFCURVE",
"256 696.667 OFFCURVE",
"256 732 CURVE SMOOTH",
"256 770.667 OFFCURVE",
"240 786 OFFCURVE",
"200 786 CURVE SMOOTH",
"158.667 786 OFFCURVE",
"144 769.333 OFFCURVE",
"144 732 CURVE SMOOTH",
"144 696 OFFCURVE",
"160 679 OFFCURVE",
"200 679 CURVE SMOOTH"
);
}
);
width = 402;
}
);
unicode = 0120;
},
{
glyphname = H;
lastChange = "2024-07-25 09:45:54 +0000";
layers = (
{
layerId = "27BA4E46-0A2B-46F0-A320-1D87D61B7B36";
paths = (
{
closed = 1;
nodes = (
"140 0 LINE",
"140 287 LINE",
"267 287 LINE",
"267 0 LINE",
"377 0 LINE",
"377 649 LINE",
"377 649 LINE",
"267 649 LINE",
"267 394 LINE",
"140 394 LINE",
"140 649 LINE",
"28 649 LINE",
"28 0 LINE"
);
}
);
width = 413;
}
);
unicode = 0048;
},
{
glyphname = Hbar;
lastChange = "2024-07-25 09:45:54 +0000";
layers = (
{
layerId = "27BA4E46-0A2B-46F0-A320-1D87D61B7B36";
paths = (
{
closed = 1;
nodes = (
"169 0 LINE",
"169 287 LINE",
"296 287 LINE",
"296 0 LINE",
"406 0 LINE",
"406 448 LINE",
"435 448 LINE",
"435 545 LINE",
"406 545 LINE",
"406 545 LINE",
"406 649 LINE",
"296 649 LINE",
"296 545 LINE",
"169 545 LINE",
"169 649 LINE",
"57 649 LINE",
"57 545 LINE",
"26 545 LINE",
"26 448 LINE",
"57 448 LINE",
"57 0 LINE"
);
},
{
closed = 1;
nodes = (
"169 448 LINE",
"296 448 LINE",
"296 394 LINE",
"169 394 LINE",
"169 394 LINE"
);
}
);
width = 459;
}
);
unicode = 0126;
},
{
glyphname = Hcircumflex;
lastChange = "2024-07-25 09:45:54 +0000";
layers = (
{
layerId = "27BA4E46-0A2B-46F0-A320-1D87D61B7B36";
paths = (
{
closed = 1;
nodes = (
"140 0 LINE",
"140 287 LINE",
"267 287 LINE",
"267 0 LINE",
"377 0 LINE",
"377 649 LINE",
"377 649 LINE",
"267 649 LINE",
"267 394 LINE",
"140 394 LINE",
"140 649 LINE",
"28 649 LINE",
"28 0 LINE"
);
},
{
closed = 1;
nodes = (
"152 679 LINE",
"193 736 LINE",
"233 680 LINE",
"334 680 LINE",
"273 774 LINE",
"116 774 LINE",
"56 679 LINE",
"56 679 LINE"
);
}
);
width = 413;
}
);
unicode = 0124;
},
{
glyphname = I;
lastChange = "2024-07-25 09:45:54 +0000";
layers = (
{
layerId = "27BA4E46-0A2B-46F0-A320-1D87D61B7B36";
paths = (
{
closed = 1;
nodes = (
"141 0 LINE",
"141 647 LINE",
"28 647 LINE",
"28 0 LINE",
"28 0 LINE"
);
}
);
width = 169;
}
);
unicode = 0049;
},
{
glyphname = IJ;
lastChange = "2024-07-25 09:45:54 +0000";
layers = (
{
layerId = "27BA4E46-0A2B-46F0-A320-1D87D61B7B36";
paths = (
{
closed = 1;
nodes = (
"340.81 0 OFFCURVE",
"406 28.483 OFFCURVE",
"406 172 CURVE SMOOTH",
"406 648 LINE",
"294 648 LINE",
"294 181 LINE SMOOTH",
"294 109.492 OFFCURVE",
"281.198 106 OFFCURVE",
"192 106 CURVE",
"192 0 LINE"
);
},
{
closed = 1;
nodes = (
"152 0 LINE",
"152 647 LINE",
"39 647 LINE",
"39 0 LINE",
"39 0 LINE"
);
}
);
width = 449;
}
);
unicode = 0132;
},
{
glyphname = Iacute;
lastChange = "2024-07-25 09:45:54 +0000";
layers = (
{
layerId = "27BA4E46-0A2B-46F0-A320-1D87D61B7B36";
paths = (
{
closed = 1;
nodes = (
"141 0 LINE",
"141 647 LINE",
"28 647 LINE",
"28 0 LINE",
"28 0 LINE"
);
},
{
closed = 1;
nodes = (
"56.167 681 OFFCURVE",
"67 681.333 OFFCURVE",
"79 682 CURVE SMOOTH",
"93 682 OFFCURVE",
"109 682.333 OFFCURVE",
"127 683 CURVE",
"181 764 LINE",
"84 764 LINE",
"58 724 LINE SMOOTH",
"51.333 714 OFFCURVE",
"45.333 704.667 OFFCURVE",
"40 696 CURVE SMOOTH",
"34.667 687.333 OFFCURVE",
"32 682.667 OFFCURVE",
"32 682 CURVE SMOOTH",
"32 681.333 OFFCURVE",
"36.833 681 OFFCURVE",
"46.5 681 CURVE SMOOTH"
);
}
);
width = 169;
}
);
unicode = 00CD;
},
{
glyphname = Ibreve;
lastChange = "2024-07-25 09:45:54 +0000";
layers = (
{
layerId = "27BA4E46-0A2B-46F0-A320-1D87D61B7B36";
paths = (
{
closed = 1;
nodes = (
"164 0 LINE",
"164 647 LINE",
"51 647 LINE",
"51 0 LINE",
"51 0 LINE"
);
},
{
closed = 1;
nodes = (
"183 679 OFFCURVE",
"220.333 708.333 OFFCURVE",
"223 783 CURVE",
"158 783 LINE",
"152.667 744.333 OFFCURVE",
"136.333 742 OFFCURVE",
"107 742 CURVE SMOOTH",
"79 742 OFFCURVE",
"64.333 744.333 OFFCURVE",
"59 783 CURVE",
"-6 783 LINE",
"-3.333 708.333 OFFCURVE",
"31 679 OFFCURVE",
"107 679 CURVE SMOOTH"
);
}
);
width = 210;
}
);
unicode = 012C;
},
{
glyphname = Icircumflex;
lastChange = "2024-07-25 09:45:54 +0000";
layers = (
{
layerId = "27BA4E46-0A2B-46F0-A320-1D87D61B7B36";
paths = (
{
closed = 1;
nodes = (
"141 0 LINE",
"141 647 LINE",
"28 647 LINE",
"28 0 LINE",
"28 0 LINE"
);
},
{
closed = 1;
nodes = (
"48 678 LINE",
"87 736 LINE",
"129 682 LINE",
"233 682 LINE",
"173 774 LINE",
"2 772 LINE",
"-56 678 LINE",
"-56 678 LINE"
);
}
);
width = 169;
}
);
unicode = 00CE;
},
{
glyphname = Idieresis;
lastChange = "2024-07-25 09:45:54 +0000";
layers = (
{
layerId = "27BA4E46-0A2B-46F0-A320-1D87D61B7B36";
paths = (
{
closed = 1;
nodes = (
"141 0 LINE",
"141 647 LINE",
"28 647 LINE",
"28 0 LINE",
"28 0 LINE"
);
},
{
closed = 1;
nodes = (
"-11.833 681 OFFCURVE",
"-1 681.333 OFFCURVE",
"11 682 CURVE SMOOTH",
"25 682 OFFCURVE",
"41 682.333 OFFCURVE",
"59 683 CURVE",
"60 764 LINE",
"-36 764 LINE",
"-36 682 LINE SMOOTH",
"-36 681.333 OFFCURVE",
"-31.167 681 OFFCURVE",
"-21.5 681 CURVE SMOOTH"
);
},
{
closed = 1;
nodes = (
"129 684 LINE",
"129 684 OFFCURVE",
"129 684 OFFCURVE",
"129 684 CURVE",
"129.667 684 OFFCURVE",
"130 684 OFFCURVE",
"130 684 CURVE",
"130 684 OFFCURVE",
"130 684 OFFCURVE",
"130 684 CURVE",
"130 684 OFFCURVE",
"130 684 OFFCURVE",
"130 684 CURVE",
"130 684 OFFCURVE",
"130 684 OFFCURVE",
"130 684 CURVE",
"130 684 OFFCURVE",
"130 684 OFFCURVE",
"130 684 CURVE",
"141 684 LINE",
"141 684 OFFCURVE",
"141 684 OFFCURVE",
"141 684 CURVE",
"141.667 684 OFFCURVE",
"142 684 OFFCURVE",
"142 684 CURVE",
"142 684 OFFCURVE",
"142 684 OFFCURVE",
"142 684 CURVE",
"142 684 OFFCURVE",
"142 684 OFFCURVE",
"142 684 CURVE",
"142 684 OFFCURVE",
"142 684 OFFCURVE",
"142 684 CURVE",
"142 684 OFFCURVE",
"142 684 OFFCURVE",
"142 684 CURVE",
"142 684 OFFCURVE",
"142 684 OFFCURVE",
"142 684 CURVE",
"142 684 OFFCURVE",
"142 684 OFFCURVE",
"142 684 CURVE",
"142 684 OFFCURVE",
"142 684 OFFCURVE",
"142 684 CURVE",
"145 684 LINE",
"145 684 OFFCURVE",
"145 684 OFFCURVE",
"145 684 CURVE",
"145.667 684 OFFCURVE",
"146 684 OFFCURVE",
"146 684 CURVE",
"146 684 OFFCURVE",
"146 684 OFFCURVE",
"146 684 CURVE",
"146 684 OFFCURVE",
"146 684 OFFCURVE",
"146 684 CURVE",
"146 684 OFFCURVE",
"146 684 OFFCURVE",
"146 684 CURVE",
"146 684 OFFCURVE",
"146 684 OFFCURVE",
"146 684 CURVE",
"146 684 OFFCURVE",
"146 684 OFFCURVE",
"146 684 CURVE",
"146 684 OFFCURVE",
"146 684 OFFCURVE",
"146 684 CURVE",
"147 684 LINE",
"147 684 OFFCURVE",
"147 684 OFFCURVE",
"147 684 CURVE",
"147 684 OFFCURVE",
"147 684 OFFCURVE",
"147 684 CURVE",
"147 684 OFFCURVE",
"147 684 OFFCURVE",
"147 684 CURVE",
"147.667 684 OFFCURVE",
"148 684 OFFCURVE",
"148 684 CURVE",
"148 684 OFFCURVE",
"148 684 OFFCURVE",
"148 684 CURVE",
"148 684 OFFCURVE",
"148 684 OFFCURVE",
"148 684 CURVE",
"148 684 OFFCURVE",
"148 684 OFFCURVE",
"148 684 CURVE",
"148 684 OFFCURVE",
"148 684 OFFCURVE",
"148 684 CURVE",
"149 684 LINE",
"149 684 OFFCURVE",
"149 684 OFFCURVE",
"149 684 CURVE",
"149 684 OFFCURVE",
"149 684 OFFCURVE",
"149 684 CURVE",
"149 684 OFFCURVE",
"149 684 OFFCURVE",
"149 684 CURVE",
"149 684 OFFCURVE",
"149 684 OFFCURVE",
"149 684 CURVE",
"149.667 684 OFFCURVE",
"150 684 OFFCURVE",
"150 684 CURVE",
"150 684 OFFCURVE",
"150 684 OFFCURVE",
"150 684 CURVE",
"150 684 OFFCURVE",
"150 684 OFFCURVE",
"150 684 CURVE",
"150 684 OFFCURVE",
"150 684 OFFCURVE",
"150 684 CURVE",
"150 684 OFFCURVE",
"150 684 OFFCURVE",
"150 684 CURVE",
"150 684 OFFCURVE",
"150 684 OFFCURVE",
"150 684 CURVE",
"150 684 OFFCURVE",
"150 684 OFFCURVE",
"150 684 CURVE",
"150 684 OFFCURVE",
"150 684 OFFCURVE",
"150 684 CURVE",
"151 684 LINE",
"151 684 OFFCURVE",
"151 684 OFFCURVE",
"151 684 CURVE",
"151 684 OFFCURVE",
"151 684 OFFCURVE",
"151 684 CURVE",
"151 684 OFFCURVE",
"151 684 OFFCURVE",
"151 684 CURVE",
"151.667 684 OFFCURVE",
"152 684 OFFCURVE",
"152 684 CURVE",
"152 684 OFFCURVE",
"152 684 OFFCURVE",
"152 684 CURVE",
"152 684 OFFCURVE",
"152 684 OFFCURVE",
"152 684 CURVE",
"152 684 OFFCURVE",
"152 684 OFFCURVE",
"152 684 CURVE",
"152 684 OFFCURVE",
"152 684 OFFCURVE",
"152 684 CURVE",
"153 684 LINE",
"153 684 OFFCURVE",
"153 684 OFFCURVE",
"153 684 CURVE",
"153.667 684 OFFCURVE",
"154 684 OFFCURVE",
"154 684 CURVE",
"154 684 OFFCURVE",
"154 684 OFFCURVE",
"154 684 CURVE",
"154 684 OFFCURVE",
"154 684 OFFCURVE",
"154 684 CURVE",
"154 684 OFFCURVE",
"154 684 OFFCURVE",
"154 684 CURVE",
"154 684 OFFCURVE",
"154 684 OFFCURVE",
"154 684 CURVE",
"154 684 OFFCURVE",
"154 684 OFFCURVE",
"154 684 CURVE",
"154.667 684 OFFCURVE",
"155 684 OFFCURVE",
"155 684 CURVE",
"155 684 OFFCURVE",
"155 684 OFFCURVE",
"155 684 CURVE",
"155 684 OFFCURVE",
"155 684 OFFCURVE",
"155 684 CURVE",
"155 684 OFFCURVE",
"155 684 OFFCURVE",
"155 684 CURVE",
"155 684 OFFCURVE",
"155 684 OFFCURVE",
"155 684 CURVE",
"155 684 OFFCURVE",
"155 684 OFFCURVE",
"155 684 CURVE",
"158 684 LINE SMOOTH",
"172 684 OFFCURVE",
"188 684.333 OFFCURVE",
"206 685 CURVE",
"207 766 LINE",
"111 766 LINE",
"111 685 LINE SMOOTH",
"111 684.333 OFFCURVE",
"116 684 OFFCURVE",
"126 684 CURVE SMOOTH"
);
}
);
width = 169;
}
);
unicode = 00CF;
},
{
glyphname = Igrave;
lastChange = "2024-07-25 09:45:54 +0000";
layers = (
{
layerId = "27BA4E46-0A2B-46F0-A320-1D87D61B7B36";
paths = (
{
closed = 1;
nodes = (
"141 0 LINE",
"141 647 LINE",
"28 647 LINE",
"28 0 LINE",
"28 0 LINE"
);
},
{
closed = 1;
nodes = (
"77.167 681 OFFCURVE",
"88 681.333 OFFCURVE",
"100 682 CURVE SMOOTH",
"114 682 OFFCURVE",
"130 682.333 OFFCURVE",
"148 683 CURVE",
"88 764 LINE",
"-9 764 LINE",
"2.333 749.333 OFFCURVE",
"12.667 736 OFFCURVE",
"22 724 CURVE SMOOTH",
"29.333 714 OFFCURVE",
"36.333 704.667 OFFCURVE",
"43 696 CURVE SMOOTH",
"49.667 687.333 OFFCURVE",
"53 682.667 OFFCURVE",
"53 682 CURVE SMOOTH",
"53 681.333 OFFCURVE",
"57.833 681 OFFCURVE",
"67.5 681 CURVE SMOOTH"
);
}
);
width = 169;
}
);
unicode = 00CC;
},
{
glyphname = Imacron;
lastChange = "2024-07-25 09:45:54 +0000";
layers = (
{
layerId = "27BA4E46-0A2B-46F0-A320-1D87D61B7B36";
paths = (
{
closed = 1;
nodes = (
"163 0 LINE",
"163 647 LINE",
"50 647 LINE",
"50 0 LINE",
"50 0 LINE"
);
},
{
closed = 1;
nodes = (
"41 684 LINE",
"41 684 OFFCURVE",
"41 684 OFFCURVE",
"41 684 CURVE",
"41 684 OFFCURVE",
"41 684 OFFCURVE",
"41 684 CURVE",
"42 684 LINE",
"42 684 OFFCURVE",
"42 684 OFFCURVE",
"42 684 CURVE",
"42 684 OFFCURVE",
"42 684 OFFCURVE",
"42 684 CURVE",
"42 684 OFFCURVE",
"42 684 OFFCURVE",
"42 684 CURVE",
"42 684 OFFCURVE",
"42 684 OFFCURVE",
"42 684 CURVE",
"42.667 684 OFFCURVE",
"43 684 OFFCURVE",
"43 684 CURVE",
"43 684 OFFCURVE",
"43 684 OFFCURVE",
"43 684 CURVE",
"43 684 OFFCURVE",
"43 684 OFFCURVE",
"43 684 CURVE",
"43 684 OFFCURVE",
"43 684 OFFCURVE",
"43 684 CURVE",
"43 684 OFFCURVE",
"43 684 OFFCURVE",
"43 684 CURVE",
"43 684 OFFCURVE",
"43 684 OFFCURVE",
"43 684 CURVE",
"43 684 OFFCURVE",
"43 684 OFFCURVE",
"43 684 CURVE",
"54 684 LINE",
"54 684 OFFCURVE",
"54 684 OFFCURVE",
"54 684 CURVE",
"54 684 OFFCURVE",
"54 684 OFFCURVE",
"54 684 CURVE",
"54 684 OFFCURVE",
"54 684 OFFCURVE",
"54 684 CURVE",
"54 684 OFFCURVE",
"54 684 OFFCURVE",
"54 684 CURVE",
"54.667 684 OFFCURVE",
"55 684 OFFCURVE",
"55 684 CURVE",
"55 684 OFFCURVE",
"55 684 OFFCURVE",
"55 684 CURVE",
"55 684 OFFCURVE",
"55 684 OFFCURVE",
"55 684 CURVE",
"55 684 OFFCURVE",
"55 684 OFFCURVE",
"55 684 CURVE",
"55 684 OFFCURVE",
"55 684 OFFCURVE",
"55 684 CURVE",
"55 684 OFFCURVE",
"55 684 OFFCURVE",
"55 684 CURVE",
"55 684 OFFCURVE",
"55 684 OFFCURVE",
"55 684 CURVE",
"58 684 LINE",
"58 684 OFFCURVE",
"58 684 OFFCURVE",
"58 684 CURVE",
"58.667 684 OFFCURVE",
"59 684 OFFCURVE",
"59 684 CURVE",
"59 684 OFFCURVE",
"59 684 OFFCURVE",
"59 684 CURVE",
"59 684 OFFCURVE",
"59 684 OFFCURVE",
"59 684 CURVE",
"59 684 OFFCURVE",
"59 684 OFFCURVE",
"59 684 CURVE",
"59 684 OFFCURVE",
"59 684 OFFCURVE",
"59 684 CURVE",
"59 684 OFFCURVE",
"59 684 OFFCURVE",
"59 684 CURVE",
"60 684 LINE",
"60 684 OFFCURVE",
"60 684 OFFCURVE",
"60 684 CURVE",
"60 684 OFFCURVE",
"60 684 OFFCURVE",
"60 684 CURVE",
"60.667 684 OFFCURVE",
"61 684 OFFCURVE",
"61 684 CURVE",
"61 684 OFFCURVE",
"61 684 OFFCURVE",
"61 684 CURVE",
"61 684 OFFCURVE",
"61 684 OFFCURVE",
"61 684 CURVE",
"61 684 OFFCURVE",
"61 684 OFFCURVE",
"61 684 CURVE",
"61 684 OFFCURVE",
"61 684 OFFCURVE",
"61 684 CURVE",
"61 684 OFFCURVE",
"61 684 OFFCURVE",
"61 684 CURVE",
"61 684 OFFCURVE",
"61 684 OFFCURVE",
"61 684 CURVE",
"61 684 OFFCURVE",
"61 684 OFFCURVE",
"61 684 CURVE",
"62 684 LINE",
"62 684 OFFCURVE",
"62 684 OFFCURVE",
"62 684 CURVE",
"62 684 OFFCURVE",
"62 684 OFFCURVE",
"62 684 CURVE",
"62.667 684 OFFCURVE",
"63 684 OFFCURVE",
"63 684 CURVE",
"63 684 OFFCURVE",
"63 684 OFFCURVE",
"63 684 CURVE",
"63 684 OFFCURVE",
"63 684 OFFCURVE",
"63 684 CURVE",
"63 684 OFFCURVE",
"63 684 OFFCURVE",
"63 684 CURVE",
"63 684 OFFCURVE",
"63 684 OFFCURVE",
"63 684 CURVE",
"63 684 OFFCURVE",
"63 684 OFFCURVE",
"63 684 CURVE",
"63 684 OFFCURVE",
"63 684 OFFCURVE",
"63 684 CURVE",
"63 684 OFFCURVE",
"63 684 OFFCURVE",
"63 684 CURVE",
"64 684 LINE",
"64 684 OFFCURVE",
"64 684 OFFCURVE",
"64 684 CURVE",
"64.667 684 OFFCURVE",
"65 684 OFFCURVE",
"65 684 CURVE",
"65 684 OFFCURVE",
"65 684 OFFCURVE",
"65 684 CURVE",
"65 684 OFFCURVE",
"65 684 OFFCURVE",
"65 684 CURVE",
"65 684 OFFCURVE",
"65 684 OFFCURVE",
"65 684 CURVE",
"65 684 OFFCURVE",
"65 684 OFFCURVE",
"65 684 CURVE",
"66 684 LINE",
"66 684 OFFCURVE",
"66 684 OFFCURVE",
"66 684 CURVE",
"66 684 OFFCURVE",
"66 684 OFFCURVE",
"66 684 CURVE",
"66 684 OFFCURVE",
"66 684 OFFCURVE",
"66 684 CURVE",
"66.667 684 OFFCURVE",
"67 684 OFFCURVE",
"67 684 CURVE",
"67 684 OFFCURVE",
"67 684 OFFCURVE",
"67 684 CURVE",
"67 684 OFFCURVE",
"67 684 OFFCURVE",
"67 684 CURVE",
"67 684 OFFCURVE",
"67 684 OFFCURVE",
"67 684 CURVE",
"67 684 OFFCURVE",
"67 684 OFFCURVE",
"67 684 CURVE",
"67 684 OFFCURVE",
"67 684 OFFCURVE",
"67 684 CURVE",
"67 684 OFFCURVE",
"67 684 OFFCURVE",
"67 684 CURVE",
"67 684 OFFCURVE",
"67 684 OFFCURVE",
"67 684 CURVE",
"73 684 LINE",
"73 684 OFFCURVE",
"73 684 OFFCURVE",
"73 684 CURVE",
"73 684 OFFCURVE",
"73 684 OFFCURVE",
"73 684 CURVE",
"74 684 LINE",
"74 684 OFFCURVE",
"74 684 OFFCURVE",
"74 684 CURVE",
"74.667 684 OFFCURVE",
"75 684 OFFCURVE",
"75 684 CURVE",
"75 684 OFFCURVE",
"75 684 OFFCURVE",
"75 684 CURVE",
"75 684 OFFCURVE",
"75 684 OFFCURVE",
"75 684 CURVE",
"75 684 OFFCURVE",
"75 684 OFFCURVE",
"75 684 CURVE",
"75 684 OFFCURVE",
"75 684 OFFCURVE",
"75 684 CURVE",
"75 684 OFFCURVE",
"75 684 OFFCURVE",
"75 684 CURVE",
"75 684 OFFCURVE",
"75 684 OFFCURVE",
"75 684 CURVE",
"75 684 OFFCURVE",
"75 684 OFFCURVE",
"75 684 CURVE",
"89 684 LINE",
"89 684 OFFCURVE",
"89 684 OFFCURVE",
"89 684 CURVE",
"89 684 OFFCURVE",
"89 684 OFFCURVE",
"89 684 CURVE",
"89 684 OFFCURVE",
"89 684 OFFCURVE",
"89 684 CURVE",
"89 684 OFFCURVE",
"89 684 OFFCURVE",
"89 684 CURVE",
"89.667 684 OFFCURVE",
"90 684 OFFCURVE",
"90 684 CURVE",
"90 684 OFFCURVE",
"90 684 OFFCURVE",
"90 684 CURVE",
"90 684 OFFCURVE",
"90 684 OFFCURVE",
"90 684 CURVE",
"90 684 OFFCURVE",
"90 684 OFFCURVE",
"90 684 CURVE",
"90 684 OFFCURVE",
"90 684 OFFCURVE",
"90 684 CURVE",
"90 684 OFFCURVE",
"90 684 OFFCURVE",
"90 684 CURVE",
"90 684 OFFCURVE",
"90 684 OFFCURVE",
"90 684 CURVE",
"90 684 OFFCURVE",
"90 684 OFFCURVE",
"90 684 CURVE",
"93 684 LINE",
"93 684 OFFCURVE",
"93 684 OFFCURVE",
"93 684 CURVE",
"93 684 OFFCURVE",
"93 684 OFFCURVE",
"93 684 CURVE",
"93 684 OFFCURVE",
"93 684 OFFCURVE",
"93 684 CURVE",
"93 684 OFFCURVE",
"93 684 OFFCURVE",
"93 684 CURVE",
"93.667 684 OFFCURVE",
"94 684 OFFCURVE",
"94 684 CURVE",
"94 684 OFFCURVE",
"94 684 OFFCURVE",
"94 684 CURVE",
"94 684 OFFCURVE",
"94 684 OFFCURVE",
"94 684 CURVE",
"94 684 OFFCURVE",
"94 684 OFFCURVE",
"94 684 CURVE",
"94 684 OFFCURVE",
"94 684 OFFCURVE",
"94 684 CURVE",
"94 684 OFFCURVE",
"94 684 OFFCURVE",
"94 684 CURVE",
"94 684 OFFCURVE",
"94 684 OFFCURVE",
"94 684 CURVE",
"94 684 OFFCURVE",
"94 684 OFFCURVE",
"94 684 CURVE",
"95 684 LINE",
"95 684 OFFCURVE",
"95 684 OFFCURVE",
"95 684 CURVE",
"95 684 OFFCURVE",
"95 684 OFFCURVE",
"95 684 CURVE",
"96 684 LINE",
"96 684 OFFCURVE",
"96 684 OFFCURVE",
"96 684 CURVE",
"96 684 OFFCURVE",
"96 684 OFFCURVE",
"96 684 CURVE",
"96 684 OFFCURVE",
"96 684 OFFCURVE",
"96 684 CURVE",
"96.667 684 OFFCURVE",
"97 684 OFFCURVE",
"97 684 CURVE",
"97 684 OFFCURVE",
"97 684 OFFCURVE",
"97 684 CURVE",
"97 684 OFFCURVE",
"97 684 OFFCURVE",
"97 684 CURVE",
"97 684 OFFCURVE",
"97 684 OFFCURVE",
"97 684 CURVE",
"97 684 OFFCURVE",
"97 684 OFFCURVE",
"97 684 CURVE",
"97 684 OFFCURVE",
"97 684 OFFCURVE",
"97 684 CURVE",
"97 684 OFFCURVE",
"97 684 OFFCURVE",
"97 684 CURVE",
"97 684 OFFCURVE",
"97 684 OFFCURVE",
"97 684 CURVE",
"98 684 LINE",
"98 684 OFFCURVE",
"98 684 OFFCURVE",
"98 684 CURVE",
"98 684 OFFCURVE",
"98 684 OFFCURVE",
"98 684 CURVE",
"98 684 OFFCURVE",
"98 684 OFFCURVE",
"98 684 CURVE",
"98.667 684 OFFCURVE",
"99 684 OFFCURVE",
"99 684 CURVE",
"99 684 OFFCURVE",
"99 684 OFFCURVE",
"99 684 CURVE",
"99 684 OFFCURVE",
"99 684 OFFCURVE",
"99 684 CURVE",
"99 684 OFFCURVE",
"99 684 OFFCURVE",
"99 684 CURVE",
"99 684 OFFCURVE",
"99 684 OFFCURVE",
"99 684 CURVE",
"100 684 LINE",
"100 684 OFFCURVE",
"100 684 OFFCURVE",
"100 684 CURVE",
"100 684 OFFCURVE",
"100 684 OFFCURVE",
"100 684 CURVE",
"100 684 OFFCURVE",
"100 684 OFFCURVE",
"100 684 CURVE",
"100 684 OFFCURVE",
"100 684 OFFCURVE",
"100 684 CURVE",
"100.667 684 OFFCURVE",
"101 684 OFFCURVE",
"101 684 CURVE",
"101 684 OFFCURVE",
"101 684 OFFCURVE",
"101 684 CURVE",
"101 684 OFFCURVE",
"101 684 OFFCURVE",
"101 684 CURVE",
"101 684 OFFCURVE",
"101 684 OFFCURVE",
"101 684 CURVE",
"101 684 OFFCURVE",
"101 684 OFFCURVE",
"101 684 CURVE",
"101 684 OFFCURVE",
"101 684 OFFCURVE",
"101 684 CURVE",
"101 684 OFFCURVE",
"101 684 OFFCURVE",
"101 684 CURVE",
"101 684 OFFCURVE",
"101 684 OFFCURVE",
"101 684 CURVE",
"102 684 LINE",
"102 684 OFFCURVE",
"102 684 OFFCURVE",
"102 684 CURVE",
"102 684 OFFCURVE",
"102 684 OFFCURVE",
"102 684 CURVE",
"102 684 OFFCURVE",
"102 684 OFFCURVE",
"102 684 CURVE",
"102.667 684 OFFCURVE",
"103 684 OFFCURVE",
"103 684 CURVE",
"103 684 OFFCURVE",
"103 684 OFFCURVE",
"103 684 CURVE",
"103 684 OFFCURVE",
"103 684 OFFCURVE",
"103 684 CURVE",
"103 684 OFFCURVE",
"103 684 OFFCURVE",
"103 684 CURVE",
"103 684 OFFCURVE",
"103 684 OFFCURVE",
"103 684 CURVE",
"103 684 OFFCURVE",
"103 684 OFFCURVE",
"103 684 CURVE",
"103 684 OFFCURVE",
"103 684 OFFCURVE",
"103 684 CURVE",
"103 684 OFFCURVE",
"103 684 OFFCURVE",
"103 684 CURVE",
"103.667 684 OFFCURVE",
"104 684 OFFCURVE",
"104 684 CURVE",
"104 684 OFFCURVE",
"104 684 OFFCURVE",
"104 684 CURVE",
"104 684 OFFCURVE",
"104 684 OFFCURVE",
"104 684 CURVE",
"104 684 OFFCURVE",
"104 684 OFFCURVE",
"104 684 CURVE",
"104 684 OFFCURVE",
"104 684 OFFCURVE",
"104 684 CURVE",
"104 684 OFFCURVE",
"104 684 OFFCURVE",
"104 684 CURVE",
"104 684 OFFCURVE",
"104 684 OFFCURVE",
"104 684 CURVE",
"107 684 LINE SMOOTH",
"136.333 684 OFFCURVE",
"169.667 684.333 OFFCURVE",
"207 685 CURVE",
"208 766 LINE",
"8 766 LINE",
"8 685 LINE",
"8 685 OFFCURVE",
"10.833 684.833 OFFCURVE",
"16.5 684.5 CURVE SMOOTH",
"22.167 684.167 OFFCURVE",
"29.667 684 OFFCURVE",
"39 684 CURVE SMOOTH"
);
}
);
width = 216;
}
);
unicode = 012A;
},
{
glyphname = Iogonek;
lastChange = "2024-07-25 09:45:54 +0000";
layers = (
{
layerId = "27BA4E46-0A2B-46F0-A320-1D87D61B7B36";
paths = (
{
closed = 1;
nodes = (
"118.333 -135 OFFCURVE",
"131 -134.333 OFFCURVE",
"145 -133 CURVE",
"151 -109 LINE",
"144.333 -110.333 OFFCURVE",
"139.333 -111 OFFCURVE",
"134 -111 CURVE SMOOTH",
"122 -111 OFFCURVE",
"111.333 -106.333 OFFCURVE",
"102 -97 CURVE SMOOTH",
"93.333 -88.333 OFFCURVE",
"89 -78.333 OFFCURVE",
"89 -67 CURVE SMOOTH",
"89 -59.667 OFFCURVE",
"91.667 -52.667 OFFCURVE",
"97 -46 CURVE SMOOTH",
"103 -40 OFFCURVE",
"110.333 -37 OFFCURVE",
"119 -37 CURVE SMOOTH",
"120.333 -37 OFFCURVE",
"121.667 -37.167 OFFCURVE",
"123 -37.5 CURVE SMOOTH",
"124.333 -37.833 OFFCURVE",
"126 -38 OFFCURVE",
"128 -38 CURVE",
"106 0 LINE",
"142 0 LINE",
"142 647 LINE",
"29 647 LINE",
"29 0 LINE",
"65 0 LINE",
"52.333 -4 OFFCURVE",
"42.333 -10.667 OFFCURVE",
"35 -20 CURVE SMOOTH",
"27 -30 OFFCURVE",
"23 -42.333 OFFCURVE",
"23 -57 CURVE SMOOTH",
"23 -75.667 OFFCURVE",
"30.333 -98.333 OFFCURVE",
"45 -113 CURVE SMOOTH",
"71.667 -139.667 OFFCURVE",
"95 -135 OFFCURVE",
"107 -135 CURVE SMOOTH"
);
}
);
width = 169;
}
);
unicode = 012E;
},
{
glyphname = Itilde;
lastChange = "2024-07-25 09:45:54 +0000";
layers = (
{
layerId = "27BA4E46-0A2B-46F0-A320-1D87D61B7B36";
paths = (
{
closed = 1;
nodes = (
"171 0 LINE",
"171 647 LINE",
"58 647 LINE",
"58 0 LINE",
"58 0 LINE"
);
},
{
closed = 1;
nodes = (
"39 687 LINE",
"39 687 OFFCURVE",
"39 687 OFFCURVE",
"39 687 CURVE",
"43 691 LINE SMOOTH",
"45.667 693.667 OFFCURVE",
"49.333 696.667 OFFCURVE",
"54 700 CURVE SMOOTH",
"62 704 OFFCURVE",
"71.333 708 OFFCURVE",
"82 708 CURVE SMOOTH",
"90 708 OFFCURVE",
"97 704 OFFCURVE",
"105 700 CURVE",
"133.667 680.667 OFFCURVE",
"160.333 671 OFFCURVE",
"185 671 CURVE SMOOTH",
"192 671 LINE",
"192 671 OFFCURVE",
"192 671 OFFCURVE",
"192 671 CURVE",
"192 671 OFFCURVE",
"192 671 OFFCURVE",
"192 671 CURVE",
"193 671 LINE",
"193 671 OFFCURVE",
"193 671 OFFCURVE",
"193 671 CURVE",
"193 671 OFFCURVE",
"193 671 OFFCURVE",
"193 671 CURVE",
"194 671 LINE",
"194 671 OFFCURVE",
"194 671 OFFCURVE",
"194 671 CURVE",
"194 671 OFFCURVE",
"194 671 OFFCURVE",
"194 671 CURVE",
"194 671 OFFCURVE",
"194 671 OFFCURVE",
"194 671 CURVE",
"197.333 671 OFFCURVE",
"200.667 671.333 OFFCURVE",
"204 672 CURVE SMOOTH",
"228 678 OFFCURVE",
"250.333 693.333 OFFCURVE",
"271 718 CURVE SMOOTH",
"275 723 LINE",
"229 767 LINE",
"229 767 LINE",
"226 762 LINE SMOOTH",
"216 748.667 OFFCURVE",
"205 740.333 OFFCURVE",
"193 737 CURVE SMOOTH",
"190.333 736.333 OFFCURVE",
"187.667 736 OFFCURVE",
"185 736 CURVE SMOOTH",
"171.667 736 OFFCURVE",
"155.667 742.333 OFFCURVE",
"137 755 CURVE SMOOTH",
"119 767 OFFCURVE",
"100.667 773 OFFCURVE",
"82 773 CURVE SMOOTH",
"62 773 OFFCURVE",
"43 767 OFFCURVE",
"25 755 CURVE SMOOTH",
"11.667 747.667 OFFCURVE",
"1.167 739.5 OFFCURVE",
"-6.5 730.5 CURVE SMOOTH",
"-14.167 721.5 OFFCURVE",
"-18.667 716.333 OFFCURVE",
"-20 715 CURVE",
"-23 709 LINE",
"22 669 LINE"
);
}
);
width = 236;
}
);
unicode = 0128;
},
{
glyphname = J;
lastChange = "2024-07-25 09:45:54 +0000";
layers = (
{
layerId = "27BA4E46-0A2B-46F0-A320-1D87D61B7B36";
paths = (
{
closed = 1;
nodes = (
"165.81 0 OFFCURVE",
"231 28.483 OFFCURVE",
"231 172 CURVE SMOOTH",
"231 648 LINE",
"119 648 LINE",
"119 181 LINE SMOOTH",
"119 109.492 OFFCURVE",
"106.198 106 OFFCURVE",
"17 106 CURVE",
"17 0 LINE"
);
}
);
width = 268;
}
);
unicode = 004A;
},
{
glyphname = Jcircumflex;
lastChange = "2024-07-25 09:45:54 +0000";
layers = (
{
layerId = "27BA4E46-0A2B-46F0-A320-1D87D61B7B36";
paths = (
{
closed = 1;
nodes = (
"165.81 0 OFFCURVE",
"231 28.483 OFFCURVE",
"231 172 CURVE SMOOTH",
"231 648 LINE",
"119 648 LINE",
"119 181 LINE SMOOTH",
"119 109.492 OFFCURVE",
"106.198 106 OFFCURVE",
"17 106 CURVE",
"17 0 LINE"
);
},
{
closed = 1;
nodes = (
"128 679 LINE",
"167 736 LINE",
"209 680 LINE",
"301 680 LINE",
"240 774 LINE",
"95 774 LINE",
"34 679 LINE",
"34 679 LINE"
);
}
);
width = 282;
}
);
unicode = 0134;
},
{
glyphname = K;
lastChange = "2024-07-25 09:45:54 +0000";
layers = (
{
layerId = "27BA4E46-0A2B-46F0-A320-1D87D61B7B36";
paths = (
{
closed = 1;
nodes = (
"143 0 LINE",
"143 252 LINE",
"219.608 198.374 OFFCURVE",
"254.858 88.781 OFFCURVE",
"271 0 CURVE",
"382 0 LINE",
"362.95 122.465 OFFCURVE",
"324.461 242.506 OFFCURVE",
"226 325 CURVE",
"326.456 406.451 OFFCURVE",
"363.504 532.742 OFFCURVE",
"382 649 CURVE",
"271 649 LINE",
"253.214 551.177 OFFCURVE",
"220.367 452.157 OFFCURVE",
"143 398 CURVE",
"143 649 LINE",
"31 649 LINE",
"31 0 LINE"
);
}
);
width = 403;
}
);
unicode = 004B;
},
{
glyphname = L;
lastChange = "2024-07-25 09:45:54 +0000";
layers = (
{
layerId = "27BA4E46-0A2B-46F0-A320-1D87D61B7B36";
paths = (
{
closed = 1;
nodes = (
"307 0 LINE",
"307 106 LINE",
"307 106 LINE",
"145 106 LINE",
"145 649 LINE",
"32 649 LINE",
"32 0 LINE"
);
}
);
width = 317;
}
);
unicode = 004C;
},
{
glyphname = Lacute;
lastChange = "2024-07-25 09:45:54 +0000";
layers = (
{
layerId = "27BA4E46-0A2B-46F0-A320-1D87D61B7B36";
paths = (
{
closed = 1;
nodes = (
"307 0 LINE",
"307 106 LINE",
"307 106 LINE",
"145 106 LINE",
"145 649 LINE",
"32 649 LINE",
"32 0 LINE"
);
},
{
closed = 1;
nodes = (
"65.167 681 OFFCURVE",
"76 681.333 OFFCURVE",
"88 682 CURVE SMOOTH",
"102 682 OFFCURVE",
"118 682.333 OFFCURVE",
"136 683 CURVE",
"190 764 LINE",
"93 764 LINE",
"67 724 LINE SMOOTH",
"60.333 714 OFFCURVE",
"54.333 704.667 OFFCURVE",
"49 696 CURVE SMOOTH",
"43.667 687.333 OFFCURVE",
"41 682.667 OFFCURVE",
"41 682 CURVE SMOOTH",
"41 681.333 OFFCURVE",
"45.833 681 OFFCURVE",
"55.5 681 CURVE SMOOTH"
);
}
);
width = 317;
}
);
unicode = 0139;
},
{
glyphname = Lcaron;
lastChange = "2024-07-25 09:45:54 +0000";
layers = (
{
layerId = "27BA4E46-0A2B-46F0-A320-1D87D61B7B36";
paths = (
{
closed = 1;
nodes = (
"307 0 LINE",
"307 106 LINE",
"307 106 LINE",
"145 106 LINE",
"145 649 LINE",
"32 649 LINE",
"32 0 LINE"
);
},
{
closed = 1;
nodes = (
"255 502.667 OFFCURVE",
"288 543 OFFCURVE",
"288 587 CURVE SMOOTH",
"288 590.333 OFFCURVE",
"287.667 594 OFFCURVE",
"287 598 CURVE SMOOTH",
"283 634 OFFCURVE",
"260.333 647 OFFCURVE",
"235 647 CURVE SMOOTH",
"188.813 647 OFFCURVE",
"171 611.683 OFFCURVE",
"171 595 CURVE SMOOTH",
"171 591.667 OFFCURVE",
"171.333 588.333 OFFCURVE",
"172 585 CURVE SMOOTH",
"174.667 575.667 OFFCURVE",
"177.667 571.333 OFFCURVE",
"183 566 CURVE",
"183 567 LINE",
"188 559 LINE SMOOTH",
"194.667 549 OFFCURVE",
"198 536.667 OFFCURVE",
"198 522 CURVE SMOOTH",
"198 509.333 OFFCURVE",
"192 499 OFFCURVE",
"180 491 CURVE",
"211 472 LINE"
);
}
);
width = 317;
}
);
unicode = 013D;
},
{
glyphname = Ldot;
lastChange = "2024-07-25 09:45:54 +0000";
layers = (
{
layerId = "27BA4E46-0A2B-46F0-A320-1D87D61B7B36";
paths = (
{
closed = 1;
nodes = (
"307 0 LINE",
"307 106 LINE",
"307 106 LINE",
"145 106 LINE",
"145 649 LINE",
"32 649 LINE",
"32 0 LINE"
);
},
{
closed = 1;
nodes = (
"281.333 403 OFFCURVE",
"300 420.667 OFFCURVE",
"300 456 CURVE SMOOTH",
"300 494.667 OFFCURVE",
"284 510 OFFCURVE",
"244 510 CURVE SMOOTH",
"202.667 510 OFFCURVE",
"188 493.333 OFFCURVE",
"188 456 CURVE SMOOTH",
"188 420 OFFCURVE",
"204 403 OFFCURVE",
"244 403 CURVE SMOOTH"
);
}
);
width = 317;
}
);
unicode = 013F;
},
{
glyphname = Lslash;
lastChange = "2024-07-25 09:45:54 +0000";
layers = (
{
layerId = "27BA4E46-0A2B-46F0-A320-1D87D61B7B36";
paths = (
{
closed = 1;
nodes = (
"330 0 LINE",
"330 106 LINE",
"168 106 LINE",
"168 283 LINE",
"168 283 LINE",
"291 361 LINE",
"291 464 LINE",
"168 388 LINE",
"168 649 LINE",
"55 649 LINE",
"55 318 LINE",
"13 291 LINE",
"13 185 LINE",
"55 211 LINE",
"55 0 LINE"
);
}
);
width = 357;
}
);
unicode = 0141;
},
{
glyphname = M;
lastChange = "2024-07-25 09:45:54 +0000";
layers = (
{
layerId = "27BA4E46-0A2B-46F0-A320-1D87D61B7B36";
paths = (
{
closed = 1;
nodes = (
"143 0 LINE",
"143 363 LINE",
"235 147 LINE",
"314 147 LINE",
"407 363 LINE",
"407 0 LINE",
"519 0 LINE",
"519 653 LINE",
"519 653 LINE",
"408 653 LINE",
"274 340 LINE",
"142 653 LINE",
"31 653 LINE",
"31 0 LINE"
);
}
);
width = 549;
}
);
unicode = 004D;
},
{
glyphname = N;
lastChange = "2024-07-25 09:45:54 +0000";
layers = (
{
layerId = "27BA4E46-0A2B-46F0-A320-1D87D61B7B36";
paths = (
{
closed = 1;
nodes = (
"140 0 LINE",
"140 368 LINE",
"301 0 LINE",
"413 0 LINE",
"413 649 LINE",
"413 649 LINE",
"300 649 LINE",
"300 281 LINE",
"139 649 LINE",
"29 649 LINE",
"29 0 LINE"
);
}
);
width = 446;
}
);
unicode = 004E;
},
{
glyphname = Nacute;
lastChange = "2024-07-25 09:45:54 +0000";
layers = (
{
layerId = "27BA4E46-0A2B-46F0-A320-1D87D61B7B36";
paths = (
{
closed = 1;
nodes = (
"140 0 LINE",
"140 368 LINE",
"301 0 LINE",
"413 0 LINE",
"413 649 LINE",
"413 649 LINE",
"300 649 LINE",
"300 281 LINE",
"139 649 LINE",
"29 649 LINE",
"29 0 LINE"
);
},
{
closed = 1;
nodes = (
"177.167 681 OFFCURVE",
"188 681.333 OFFCURVE",
"200 682 CURVE SMOOTH",
"214 682 OFFCURVE",
"230 682.333 OFFCURVE",
"248 683 CURVE",
"302 764 LINE",
"205 764 LINE",
"179 724 LINE SMOOTH",
"172.333 714 OFFCURVE",
"166.333 704.667 OFFCURVE",
"161 696 CURVE SMOOTH",
"155.667 687.333 OFFCURVE",
"153 682.667 OFFCURVE",
"153 682 CURVE SMOOTH",
"153 681.333 OFFCURVE",
"157.833 681 OFFCURVE",
"167.5 681 CURVE SMOOTH"
);
}
);
width = 446;
}
);
unicode = 0143;
},
{
glyphname = Ncaron;
lastChange = "2024-07-25 09:45:54 +0000";
layers = (
{
layerId = "27BA4E46-0A2B-46F0-A320-1D87D61B7B36";
paths = (
{
closed = 1;
nodes = (
"140 0 LINE",
"140 368 LINE",
"301 0 LINE",
"413 0 LINE",
"413 649 LINE",
"413 649 LINE",
"300 649 LINE",
"300 281 LINE",
"139 649 LINE",
"29 649 LINE",
"29 0 LINE"
);
},
{
closed = 1;
nodes = (
"300 671 LINE",
"358 765 LINE",
"358 765 LINE",
"254 765 LINE",
"215 705 LINE",
"173 761 LINE",
"69 761 LINE",
"129 669 LINE"
);
}
);
width = 446;
}
);
unicode = 0147;
},
{
glyphname = Ntilde;
lastChange = "2024-07-25 09:45:54 +0000";
layers = (
{
layerId = "27BA4E46-0A2B-46F0-A320-1D87D61B7B36";
paths = (
{
closed = 1;
nodes = (
"140 0 LINE",
"140 368 LINE",
"301 0 LINE",
"413 0 LINE",
"413 649 LINE",
"413 649 LINE",
"300 649 LINE",
"300 281 LINE",
"139 649 LINE",
"29 649 LINE",
"29 0 LINE"
);
},
{
closed = 1;
nodes = (
"143 693 LINE SMOOTH",
"145.667 695.667 OFFCURVE",
"149.333 698.667 OFFCURVE",
"154 702 CURVE SMOOTH",
"162 706 OFFCURVE",
"171.333 710 OFFCURVE",
"182 710 CURVE SMOOTH",
"190 710 OFFCURVE",
"197 706 OFFCURVE",
"205 702 CURVE",
"233.667 682.667 OFFCURVE",
"260.333 673 OFFCURVE",
"285 673 CURVE SMOOTH",
"293 673 LINE",
"293 673 OFFCURVE",
"293 673 OFFCURVE",
"293 673 CURVE",
"293 673 OFFCURVE",
"293 673 OFFCURVE",
"293 673 CURVE",
"295 673 LINE SMOOTH",
"297.667 673 OFFCURVE",
"300.667 673.333 OFFCURVE",
"304 674 CURVE SMOOTH",
"328 680 OFFCURVE",
"350.333 695.333 OFFCURVE",
"371 720 CURVE SMOOTH",
"375 725 LINE",
"329 769 LINE",
"329 769 LINE",
"326 764 LINE SMOOTH",
"316 750.667 OFFCURVE",
"305 742.333 OFFCURVE",
"293 739 CURVE SMOOTH",
"290.333 738.333 OFFCURVE",
"287.667 738 OFFCURVE",
"285 738 CURVE SMOOTH",
"271.667 738 OFFCURVE",
"255.667 744.333 OFFCURVE",
"237 757 CURVE SMOOTH",
"219 769 OFFCURVE",
"200.667 775 OFFCURVE",
"182 775 CURVE SMOOTH",
"162 775 OFFCURVE",
"143 769 OFFCURVE",
"125 757 CURVE SMOOTH",
"111.667 749.667 OFFCURVE",
"101.167 741.5 OFFCURVE",
"93.5 732.5 CURVE SMOOTH",
"85.833 723.5 OFFCURVE",
"81.333 718.333 OFFCURVE",
"80 717 CURVE",
"77 711 LINE",
"122 671 LINE"
);
}
);
width = 446;
}
);
unicode = 00D1;
},
{
glyphname = Eng;
lastChange = "2024-07-25 09:45:54 +0000";
layers = (
{
layerId = "27BA4E46-0A2B-46F0-A320-1D87D61B7B36";
paths = (
{
closed = 1;
nodes = (
"237 -173 LINE",
"237 -173 OFFCURVE",
"237 -173 OFFCURVE",
"237 -173 CURVE",
"237.667 -173 OFFCURVE",
"238 -173 OFFCURVE",
"238 -173 CURVE",
"238 -173 OFFCURVE",
"238 -173 OFFCURVE",
"238 -173 CURVE",
"238 -173 OFFCURVE",
"238 -173 OFFCURVE",
"238 -173 CURVE",
"238 -173 OFFCURVE",
"238 -173 OFFCURVE",
"238 -173 CURVE",
"238 -173 OFFCURVE",
"238 -173 OFFCURVE",
"238 -173 CURVE",
"238.667 -173 OFFCURVE",
"239 -173 OFFCURVE",
"239 -173 CURVE",
"239 -173 OFFCURVE",
"239 -173 OFFCURVE",
"239 -173 CURVE",
"239 -173 OFFCURVE",
"239 -173 OFFCURVE",
"239 -173 CURVE",
"239 -173 OFFCURVE",
"239 -173 OFFCURVE",
"239 -173 CURVE",
"269 -173 OFFCURVE",
"296 -168 OFFCURVE",
"320 -158 CURVE SMOOTH",
"368.32 -139.209 OFFCURVE",
"416 -92.248 OFFCURVE",
"416 0 CURVE SMOOTH",
"416 649 LINE",
"303 649 LINE",
"303 649 LINE",
"303 281 LINE",
"142 649 LINE",
"32 649 LINE",
"32 0 LINE",
"143 0 LINE",
"143 368 LINE",
"304 1 LINE",
"296.974 -48.18 OFFCURVE",
"273.844 -82 OFFCURVE",
"229 -82 CURVE",
"229 -82 OFFCURVE",
"229 -82 OFFCURVE",
"229 -82 CURVE",
"229 -82 OFFCURVE",
"229 -82 OFFCURVE",
"229 -82 CURVE",
"228 -82 LINE",
"228 -82 OFFCURVE",
"228 -82 OFFCURVE",
"228 -82 CURVE",
"228 -82 OFFCURVE",
"228 -82 OFFCURVE",
"228 -82 CURVE",
"226 -82 LINE",
"226 -82 OFFCURVE",
"226 -82 OFFCURVE",
"226 -82 CURVE",
"226 -82 OFFCURVE",
"226 -82 OFFCURVE",
"226 -82 CURVE",
"226 -82 OFFCURVE",
"226 -82 OFFCURVE",
"226 -82 CURVE",
"225 -82 LINE",
"225 -82 OFFCURVE",
"225 -82 OFFCURVE",
"225 -82 CURVE",
"225 -82 OFFCURVE",
"225 -82 OFFCURVE",
"225 -82 CURVE",
"225 -82 OFFCURVE",
"225 -82 OFFCURVE",
"225 -82 CURVE",
"224 -82 LINE",
"224 -82 OFFCURVE",
"224 -82 OFFCURVE",
"224 -82 CURVE",
"224 -82 OFFCURVE",
"224 -82 OFFCURVE",
"224 -82 CURVE",
"224 -82 OFFCURVE",
"224 -82 OFFCURVE",
"224 -82 CURVE",
"224 -173 LINE"
);
}
);
width = 446;
}
);
unicode = 014A;
},
{
glyphname = O;
lastChange = "2024-07-25 09:45:54 +0000";
layers = (
{
layerId = "27BA4E46-0A2B-46F0-A320-1D87D61B7B36";
paths = (
{
closed = 1;
nodes = (
"358.694 0 OFFCURVE",
"374 67.949 OFFCURVE",
"374 197 CURVE SMOOTH",
"374 484 LINE SMOOTH",
"374 603.826 OFFCURVE",
"326.811 649 OFFCURVE",
"199 649 CURVE SMOOTH",
"68.754 649 OFFCURVE",
"25 601.89 OFFCURVE",
"25 484 CURVE SMOOTH",
"25 165 LINE SMOOTH",
"25 47.11 OFFCURVE",
"68.754 0 OFFCURVE",
"199 0 CURVE SMOOTH"
);
},
{
closed = 1;
nodes = (
"143.721 108 OFFCURVE",
"137 123.828 OFFCURVE",
"137 192 CURVE SMOOTH",
"135 484 LINE SMOOTH",
"135 533.109 OFFCURVE",
"139.187 543 OFFCURVE",
"199 543 CURVE SMOOTH",
"258.458 543 OFFCURVE",
"262 541.585 OFFCURVE",
"262 484 CURVE SMOOTH",
"262 197 LINE SMOOTH",
"262 134.593 OFFCURVE",
"258.739 108 OFFCURVE",
"201 108 CURVE SMOOTH"
);
}
);
width = 402;
}
);
unicode = 004F;
},
{
glyphname = Oacute;
lastChange = "2024-07-25 09:45:54 +0000";
layers = (
{
layerId = "27BA4E46-0A2B-46F0-A320-1D87D61B7B36";
paths = (
{
closed = 1;
nodes = (
"358.694 0 OFFCURVE",
"374 67.949 OFFCURVE",
"374 197 CURVE SMOOTH",
"374 484 LINE SMOOTH",
"374 603.826 OFFCURVE",
"326.811 649 OFFCURVE",
"199 649 CURVE SMOOTH",
"68.754 649 OFFCURVE",
"25 601.89 OFFCURVE",
"25 484 CURVE SMOOTH",
"25 165 LINE SMOOTH",
"25 47.11 OFFCURVE",
"68.754 0 OFFCURVE",
"199 0 CURVE SMOOTH"
);
},
{
closed = 1;
nodes = (
"143.721 108 OFFCURVE",
"137 123.828 OFFCURVE",
"137 192 CURVE SMOOTH",
"135 484 LINE SMOOTH",
"135 533.109 OFFCURVE",
"139.187 543 OFFCURVE",
"199 543 CURVE SMOOTH",
"258.458 543 OFFCURVE",
"262 541.585 OFFCURVE",
"262 484 CURVE SMOOTH",
"262 197 LINE SMOOTH",
"262 134.593 OFFCURVE",
"258.739 108 OFFCURVE",
"201 108 CURVE SMOOTH"
);
},
{
closed = 1;
nodes = (
"160.167 681 OFFCURVE",
"171 681.333 OFFCURVE",
"183 682 CURVE SMOOTH",
"197 682 OFFCURVE",
"213 682.333 OFFCURVE",
"231 683 CURVE",
"285 764 LINE",
"188 764 LINE",
"162 724 LINE SMOOTH",
"155.333 714 OFFCURVE",
"149.333 704.667 OFFCURVE",
"144 696 CURVE SMOOTH",
"138.667 687.333 OFFCURVE",
"136 682.667 OFFCURVE",
"136 682 CURVE SMOOTH",
"136 681.333 OFFCURVE",
"140.833 681 OFFCURVE",
"150.5 681 CURVE SMOOTH"
);
}
);
width = 402;
}
);
unicode = 00D3;
},
{
glyphname = Obreve;
lastChange = "2024-07-25 09:45:54 +0000";
layers = (
{
layerId = "27BA4E46-0A2B-46F0-A320-1D87D61B7B36";
paths = (
{
closed = 1;
nodes = (
"358.694 0 OFFCURVE",
"374 67.949 OFFCURVE",
"374 197 CURVE SMOOTH",
"374 484 LINE SMOOTH",
"374 603.826 OFFCURVE",
"326.811 649 OFFCURVE",
"199 649 CURVE SMOOTH",
"68.754 649 OFFCURVE",
"25 601.89 OFFCURVE",
"25 484 CURVE SMOOTH",
"25 165 LINE SMOOTH",
"25 47.11 OFFCURVE",
"68.754 0 OFFCURVE",
"199 0 CURVE SMOOTH"
);
},
{
closed = 1;
nodes = (
"143.721 108 OFFCURVE",
"137 123.828 OFFCURVE",
"137 192 CURVE SMOOTH",
"135 484 LINE SMOOTH",
"135 533.109 OFFCURVE",
"139.187 543 OFFCURVE",
"199 543 CURVE SMOOTH",
"258.458 543 OFFCURVE",
"262 541.585 OFFCURVE",
"262 484 CURVE SMOOTH",
"262 197 LINE SMOOTH",
"262 134.593 OFFCURVE",
"258.739 108 OFFCURVE",
"201 108 CURVE SMOOTH"
);
},
{
closed = 1;
nodes = (
"270 679 OFFCURVE",
"310.333 708.333 OFFCURVE",
"313 783 CURVE",
"248 783 LINE",
"242.667 744.333 OFFCURVE",
"223.333 742 OFFCURVE",
"194 742 CURVE SMOOTH",
"166 742 OFFCURVE",
"147.333 744.333 OFFCURVE",
"142 783 CURVE",
"77 783 LINE",
"79.667 708.333 OFFCURVE",
"118 679 OFFCURVE",
"194 679 CURVE SMOOTH"
);
}
);
width = 402;
}
);
unicode = 014E;
},
{
glyphname = Ocircumflex;
lastChange = "2024-07-25 09:45:54 +0000";
layers = (
{
layerId = "27BA4E46-0A2B-46F0-A320-1D87D61B7B36";
paths = (
{
closed = 1;
nodes = (
"358.694 0 OFFCURVE",
"374 67.949 OFFCURVE",
"374 197 CURVE SMOOTH",
"374 484 LINE SMOOTH",
"374 603.826 OFFCURVE",
"326.811 649 OFFCURVE",
"199 649 CURVE SMOOTH",
"68.754 649 OFFCURVE",
"25 601.89 OFFCURVE",
"25 484 CURVE SMOOTH",
"25 165 LINE SMOOTH",
"25 47.11 OFFCURVE",
"68.754 0 OFFCURVE",
"199 0 CURVE SMOOTH"
);
},
{
closed = 1;
nodes = (
"143.721 108 OFFCURVE",
"137 123.828 OFFCURVE",
"137 192 CURVE SMOOTH",
"135 484 LINE SMOOTH",
"135 533.109 OFFCURVE",
"139.187 543 OFFCURVE",
"199 543 CURVE SMOOTH",
"258.458 543 OFFCURVE",
"262 541.585 OFFCURVE",
"262 484 CURVE SMOOTH",
"262 197 LINE SMOOTH",
"262 134.593 OFFCURVE",
"258.739 108 OFFCURVE",
"201 108 CURVE SMOOTH"
);
},
{
closed = 1;
nodes = (
"158 676 LINE",
"197 736 LINE",
"239 680 LINE",
"343 680 LINE",
"283 774 LINE",
"112 772 LINE",
"54 676 LINE",
"54 676 LINE"
);
}
);
width = 402;
}
);
unicode = 00D4;
},
{
glyphname = Odieresis;
lastChange = "2024-07-25 09:45:54 +0000";
layers = (
{
layerId = "27BA4E46-0A2B-46F0-A320-1D87D61B7B36";
paths = (
{
closed = 1;
nodes = (
"358.694 0 OFFCURVE",
"374 67.949 OFFCURVE",
"374 197 CURVE SMOOTH",
"374 484 LINE SMOOTH",
"374 603.826 OFFCURVE",
"326.811 649 OFFCURVE",
"199 649 CURVE SMOOTH",
"68.754 649 OFFCURVE",
"25 601.89 OFFCURVE",
"25 484 CURVE SMOOTH",
"25 165 LINE SMOOTH",
"25 47.11 OFFCURVE",
"68.754 0 OFFCURVE",
"199 0 CURVE SMOOTH"
);
},
{
closed = 1;
nodes = (
"143.721 108 OFFCURVE",
"137 123.828 OFFCURVE",
"137 192 CURVE SMOOTH",
"135 484 LINE SMOOTH",
"135 533.109 OFFCURVE",
"139.187 543 OFFCURVE",
"199 543 CURVE SMOOTH",
"258.458 543 OFFCURVE",
"262 541.585 OFFCURVE",
"262 484 CURVE SMOOTH",
"262 197 LINE SMOOTH",
"262 134.593 OFFCURVE",
"258.739 108 OFFCURVE",
"201 108 CURVE SMOOTH"
);
},
{
closed = 1;
nodes = (
"102.167 681 OFFCURVE",
"113 681.333 OFFCURVE",
"125 682 CURVE SMOOTH",
"139 682 OFFCURVE",
"155 682.333 OFFCURVE",
"173 683 CURVE",
"174 764 LINE",
"78 764 LINE",
"78 682 LINE SMOOTH",
"78 681.333 OFFCURVE",
"82.833 681 OFFCURVE",
"92.5 681 CURVE SMOOTH"
);
},
{
closed = 1;
nodes = (
"251 684 LINE",
"251 684 OFFCURVE",
"251 684 OFFCURVE",
"251 684 CURVE",
"251 684 OFFCURVE",
"251 684 OFFCURVE",
"251 684 CURVE",
"251 684 OFFCURVE",
"251 684 OFFCURVE",
"251 684 CURVE",
"252 684 LINE",
"252 684 OFFCURVE",
"252 684 OFFCURVE",
"252 684 CURVE",
"252 684 OFFCURVE",
"252 684 OFFCURVE",
"252 684 CURVE",
"252 684 OFFCURVE",
"252 684 OFFCURVE",
"252 684 CURVE",
"252.667 684 OFFCURVE",
"253 684 OFFCURVE",
"253 684 CURVE",
"253 684 OFFCURVE",
"253 684 OFFCURVE",
"253 684 CURVE",
"253 684 OFFCURVE",
"253 684 OFFCURVE",
"253 684 CURVE",
"253 684 OFFCURVE",
"253 684 OFFCURVE",
"253 684 CURVE",
"253 684 OFFCURVE",
"253 684 OFFCURVE",
"253 684 CURVE",
"253 684 OFFCURVE",
"253 684 OFFCURVE",
"253 684 CURVE",
"253 684 OFFCURVE",
"253 684 OFFCURVE",
"253 684 CURVE",
"264 684 LINE",
"264 684 OFFCURVE",
"264 684 OFFCURVE",
"264 684 CURVE",
"264 684 OFFCURVE",
"264 684 OFFCURVE",
"264 684 CURVE",
"264 684 OFFCURVE",
"264 684 OFFCURVE",
"264 684 CURVE",
"264.667 684 OFFCURVE",
"265 684 OFFCURVE",
"265 684 CURVE",
"265 684 OFFCURVE",
"265 684 OFFCURVE",
"265 684 CURVE",
"265 684 OFFCURVE",
"265 684 OFFCURVE",
"265 684 CURVE",
"265 684 OFFCURVE",
"265 684 OFFCURVE",
"265 684 CURVE",
"265 684 OFFCURVE",
"265 684 OFFCURVE",
"265 684 CURVE",
"268 684 LINE",
"268 684 OFFCURVE",
"268 684 OFFCURVE",
"268 684 CURVE",
"268 684 OFFCURVE",
"268 684 OFFCURVE",
"268 684 CURVE",
"268 684 OFFCURVE",
"268 684 OFFCURVE",
"268 684 CURVE",
"268 684 OFFCURVE",
"268 684 OFFCURVE",
"268 684 CURVE",
"268.667 684 OFFCURVE",
"269 684 OFFCURVE",
"269 684 CURVE",
"269 684 OFFCURVE",
"269 684 OFFCURVE",
"269 684 CURVE",
"269 684 OFFCURVE",
"269 684 OFFCURVE",
"269 684 CURVE",
"269 684 OFFCURVE",
"269 684 OFFCURVE",
"269 684 CURVE",
"269 684 OFFCURVE",
"269 684 OFFCURVE",
"269 684 CURVE",
"269 684 OFFCURVE",
"269 684 OFFCURVE",
"269 684 CURVE",
"269 684 OFFCURVE",
"269 684 OFFCURVE",
"269 684 CURVE",
"270 684 LINE",
"270 684 OFFCURVE",
"270 684 OFFCURVE",
"270 684 CURVE",
"270 684 OFFCURVE",
"270 684 OFFCURVE",
"270 684 CURVE",
"270 684 OFFCURVE",
"270 684 OFFCURVE",
"270 684 CURVE",
"270 684 OFFCURVE",
"270 684 OFFCURVE",
"270 684 CURVE",
"270.667 684 OFFCURVE",
"271 684 OFFCURVE",
"271 684 CURVE",
"271 684 OFFCURVE",
"271 684 OFFCURVE",
"271 684 CURVE",
"271 684 OFFCURVE",
"271 684 OFFCURVE",
"271 684 CURVE",
"271 684 OFFCURVE",
"271 684 OFFCURVE",
"271 684 CURVE",
"271 684 OFFCURVE",
"271 684 OFFCURVE",
"271 684 CURVE",
"272 684 LINE",
"272 684 OFFCURVE",
"272 684 OFFCURVE",
"272 684 CURVE",
"272 684 OFFCURVE",
"272 684 OFFCURVE",
"272 684 CURVE",
"272 684 OFFCURVE",
"272 684 OFFCURVE",
"272 684 CURVE",
"272.667 684 OFFCURVE",
"273 684 OFFCURVE",
"273 684 CURVE",
"273 684 OFFCURVE",
"273 684 OFFCURVE",
"273 684 CURVE",
"273 684 OFFCURVE",
"273 684 OFFCURVE",
"273 684 CURVE",
"273 684 OFFCURVE",
"273 684 OFFCURVE",
"273 684 CURVE",
"273 684 OFFCURVE",
"273 684 OFFCURVE",
"273 684 CURVE",
"274 684 LINE",
"274 684 OFFCURVE",
"274 684 OFFCURVE",
"274 684 CURVE",
"274 684 OFFCURVE",
"274 684 OFFCURVE",
"274 684 CURVE",
"274 684 OFFCURVE",
"274 684 OFFCURVE",
"274 684 CURVE",
"274 684 OFFCURVE",
"274 684 OFFCURVE",
"274 684 CURVE",
"274.667 684 OFFCURVE",
"275 684 OFFCURVE",
"275 684 CURVE",
"275 684 OFFCURVE",
"275 684 OFFCURVE",
"275 684 CURVE",
"275 684 OFFCURVE",
"275 684 OFFCURVE",
"275 684 CURVE",
"275 684 OFFCURVE",
"275 684 OFFCURVE",
"275 684 CURVE",
"275 684 OFFCURVE",
"275 684 OFFCURVE",
"275 684 CURVE",
"275 684 OFFCURVE",
"275 684 OFFCURVE",
"275 684 CURVE",
"275 684 OFFCURVE",
"275 684 OFFCURVE",
"275 684 CURVE",
"276 684 LINE",
"276 684 OFFCURVE",
"276 684 OFFCURVE",
"276 684 CURVE",
"276 684 OFFCURVE",
"276 684 OFFCURVE",
"276 684 CURVE",
"276 684 OFFCURVE",
"276 684 OFFCURVE",
"276 684 CURVE",
"276.667 684 OFFCURVE",
"277 684 OFFCURVE",
"277 684 CURVE",
"277 684 OFFCURVE",
"277 684 OFFCURVE",
"277 684 CURVE",
"277 684 OFFCURVE",
"277 684 OFFCURVE",
"277 684 CURVE",
"277 684 OFFCURVE",
"277 684 OFFCURVE",
"277 684 CURVE",
"277 684 OFFCURVE",
"277 684 OFFCURVE",
"277 684 CURVE",
"277 684 OFFCURVE",
"277 684 OFFCURVE",
"277 684 CURVE",
"277.667 684 OFFCURVE",
"278 684 OFFCURVE",
"278 684 CURVE",
"278 684 OFFCURVE",
"278 684 OFFCURVE",
"278 684 CURVE",
"278 684 OFFCURVE",
"278 684 OFFCURVE",
"278 684 CURVE",
"278 684 OFFCURVE",
"278 684 OFFCURVE",
"278 684 CURVE",
"278 684 OFFCURVE",
"278 684 OFFCURVE",
"278 684 CURVE",
"278 684 OFFCURVE",
"278 684 OFFCURVE",
"278 684 CURVE",
"278 684 OFFCURVE",
"278 684 OFFCURVE",
"278 684 CURVE",
"278 684 OFFCURVE",
"278 684 OFFCURVE",
"278 684 CURVE",
"281 684 LINE SMOOTH",
"295 684 OFFCURVE",
"311 684.333 OFFCURVE",
"329 685 CURVE",
"330 766 LINE",
"234 766 LINE",
"234 685 LINE SMOOTH",
"234 684.333 OFFCURVE",
"239 684 OFFCURVE",
"249 684 CURVE SMOOTH"
);
}
);
width = 402;
}
);
unicode = 00D6;
},
{
glyphname = Ograve;
lastChange = "2024-07-25 09:45:54 +0000";
layers = (
{
layerId = "27BA4E46-0A2B-46F0-A320-1D87D61B7B36";
paths = (
{
closed = 1;
nodes = (
"358.694 0 OFFCURVE",
"374 67.949 OFFCURVE",
"374 197 CURVE SMOOTH",
"374 484 LINE SMOOTH",
"374 603.826 OFFCURVE",
"326.811 649 OFFCURVE",
"199 649 CURVE SMOOTH",
"68.754 649 OFFCURVE",
"25 601.89 OFFCURVE",
"25 484 CURVE SMOOTH",
"25 165 LINE SMOOTH",
"25 47.11 OFFCURVE",
"68.754 0 OFFCURVE",
"199 0 CURVE SMOOTH"
);
},
{
closed = 1;
nodes = (
"143.721 108 OFFCURVE",
"137 123.828 OFFCURVE",
"137 192 CURVE SMOOTH",
"135 484 LINE SMOOTH",
"135 533.109 OFFCURVE",
"139.187 543 OFFCURVE",
"199 543 CURVE SMOOTH",
"258.458 543 OFFCURVE",
"262 541.585 OFFCURVE",
"262 484 CURVE SMOOTH",
"262 197 LINE SMOOTH",
"262 134.593 OFFCURVE",
"258.739 108 OFFCURVE",
"201 108 CURVE SMOOTH"
);
},
{
closed = 1;
nodes = (
"189.167 679 OFFCURVE",
"200 679.333 OFFCURVE",
"212 680 CURVE SMOOTH",
"226 680 OFFCURVE",
"242 680.333 OFFCURVE",
"260 681 CURVE",
"200 762 LINE",
"103 762 LINE",
"114.333 747.333 OFFCURVE",
"124.667 734 OFFCURVE",
"134 722 CURVE SMOOTH",
"141.333 712 OFFCURVE",
"148.333 702.667 OFFCURVE",
"155 694 CURVE SMOOTH",
"161.667 685.333 OFFCURVE",
"165 680.667 OFFCURVE",
"165 680 CURVE SMOOTH",
"165 679.333 OFFCURVE",
"169.833 679 OFFCURVE",
"179.5 679 CURVE SMOOTH"
);
}
);
width = 402;
}
);
unicode = 00D2;
},
{
glyphname = Ohungarumlaut;
lastChange = "2024-07-25 09:45:54 +0000";
layers = (
{
layerId = "27BA4E46-0A2B-46F0-A320-1D87D61B7B36";
paths = (
{
closed = 1;
nodes = (
"358.694 0 OFFCURVE",
"374 67.949 OFFCURVE",
"374 197 CURVE SMOOTH",
"374 484 LINE SMOOTH",
"374 603.826 OFFCURVE",
"326.811 649 OFFCURVE",
"199 649 CURVE SMOOTH",
"68.754 649 OFFCURVE",
"25 601.89 OFFCURVE",
"25 484 CURVE SMOOTH",
"25 165 LINE SMOOTH",
"25 47.11 OFFCURVE",
"68.754 0 OFFCURVE",
"199 0 CURVE SMOOTH"
);
},
{
closed = 1;
nodes = (
"143.721 108 OFFCURVE",
"137 123.828 OFFCURVE",
"137 192 CURVE SMOOTH",
"135 484 LINE SMOOTH",
"135 533.109 OFFCURVE",
"139.187 543 OFFCURVE",
"199 543 CURVE SMOOTH",
"258.458 543 OFFCURVE",
"262 541.585 OFFCURVE",
"262 484 CURVE SMOOTH",
"262 197 LINE SMOOTH",
"262 134.593 OFFCURVE",
"258.739 108 OFFCURVE",
"201 108 CURVE SMOOTH"
);
},
{
closed = 1;
nodes = (
"74.167 681 OFFCURVE",
"85 681.333 OFFCURVE",
"97 682 CURVE SMOOTH",
"111 682 OFFCURVE",
"127 682.333 OFFCURVE",
"145 683 CURVE",
"199 764 LINE",
"102 764 LINE",
"76 724 LINE SMOOTH",
"69.333 714 OFFCURVE",
"63.333 704.667 OFFCURVE",
"58 696 CURVE SMOOTH",
"52.667 687.333 OFFCURVE",
"50 682.667 OFFCURVE",
"50 682 CURVE SMOOTH",
"50 681.333 OFFCURVE",
"54.833 681 OFFCURVE",
"64.5 681 CURVE SMOOTH"
);
},
{
closed = 1;
nodes = (
"238.167 681 OFFCURVE",
"249 681.333 OFFCURVE",
"261 682 CURVE SMOOTH",
"275 682 OFFCURVE",
"291 682.333 OFFCURVE",
"309 683 CURVE",
"363 764 LINE",
"266 764 LINE",
"240 724 LINE SMOOTH",
"233.333 714 OFFCURVE",
"227.333 704.667 OFFCURVE",
"222 696 CURVE SMOOTH",
"216.667 687.333 OFFCURVE",
"214 682.667 OFFCURVE",
"214 682 CURVE SMOOTH",
"214 681.333 OFFCURVE",
"218.833 681 OFFCURVE",
"228.5 681 CURVE SMOOTH"
);
}
);
width = 402;
}
);
unicode = 0150;
},
{
glyphname = Omacron;
lastChange = "2024-07-25 09:45:54 +0000";
layers = (
{
layerId = "27BA4E46-0A2B-46F0-A320-1D87D61B7B36";
paths = (
{
closed = 1;
nodes = (
"358.694 0 OFFCURVE",
"374 67.949 OFFCURVE",
"374 197 CURVE SMOOTH",
"374 484 LINE SMOOTH",
"374 603.826 OFFCURVE",
"326.811 649 OFFCURVE",
"199 649 CURVE SMOOTH",
"68.754 649 OFFCURVE",
"25 601.89 OFFCURVE",
"25 484 CURVE SMOOTH",
"25 165 LINE SMOOTH",
"25 47.11 OFFCURVE",
"68.754 0 OFFCURVE",
"199 0 CURVE SMOOTH"
);
},
{
closed = 1;
nodes = (
"143.721 108 OFFCURVE",
"137 123.828 OFFCURVE",
"137 192 CURVE SMOOTH",
"135 484 LINE SMOOTH",
"135 533.109 OFFCURVE",
"139.187 543 OFFCURVE",
"199 543 CURVE SMOOTH",
"258.458 543 OFFCURVE",
"262 541.585 OFFCURVE",
"262 484 CURVE SMOOTH",
"262 197 LINE SMOOTH",
"262 134.593 OFFCURVE",
"258.739 108 OFFCURVE",
"201 108 CURVE SMOOTH"
);
},
{
closed = 1;
nodes = (
"145 683 LINE",
"145 683 OFFCURVE",
"145 683 OFFCURVE",
"145 683 CURVE",
"145 683 OFFCURVE",
"145 683 OFFCURVE",
"145 683 CURVE",
"145 683 OFFCURVE",
"145 683 OFFCURVE",
"145 683 CURVE",
"150 683 LINE",
"150 683 OFFCURVE",
"150 683 OFFCURVE",
"150 683 CURVE",
"150 683 OFFCURVE",
"150 683 OFFCURVE",
"150 683 CURVE",
"150 683 OFFCURVE",
"150 683 OFFCURVE",
"150 683 CURVE",
"153 683 LINE",
"153 683 OFFCURVE",
"153 683 OFFCURVE",
"153 683 CURVE",
"153 683 OFFCURVE",
"153 683 OFFCURVE",
"153 683 CURVE",
"153 683 OFFCURVE",
"153 683 OFFCURVE",
"153 683 CURVE",
"180 683 LINE",
"180 683 OFFCURVE",
"180 683 OFFCURVE",
"180 683 CURVE",
"185 683 LINE",
"185 683 OFFCURVE",
"185 683 OFFCURVE",
"185 683 CURVE",
"188 683 LINE",
"188 683 OFFCURVE",
"188 683 OFFCURVE",
"188 683 CURVE",
"188 683 OFFCURVE",
"188 683 OFFCURVE",
"188 683 CURVE",
"193 683 LINE",
"193 683 OFFCURVE",
"193 683 OFFCURVE",
"193 683 CURVE",
"195 683 LINE",
"195 683 OFFCURVE",
"195 683 OFFCURVE",
"195 683 CURVE",
"195 683 OFFCURVE",
"195 683 OFFCURVE",
"195 683 CURVE",
"195 683 OFFCURVE",
"195 683 OFFCURVE",
"195 683 CURVE",
"198 683 LINE SMOOTH",
"227.333 683 OFFCURVE",
"260.667 683.333 OFFCURVE",
"298 684 CURVE",
"299 765 LINE",
"99 765 LINE",
"99 684 LINE",
"99 684 OFFCURVE",
"101.833 683.833 OFFCURVE",
"107.5 683.5 CURVE SMOOTH",
"113.167 683.167 OFFCURVE",
"120.667 683 OFFCURVE",
"130 683 CURVE SMOOTH"
);
}
);
width = 402;
}
);
unicode = 014C;
},
{
glyphname = Oslash;
lastChange = "2024-07-25 09:45:54 +0000";
layers = (
{
layerId = "27BA4E46-0A2B-46F0-A320-1D87D61B7B36";
paths = (
{
closed = 1;
nodes = (
"107 14 LINE",
"133 4.667 OFFCURVE",
"164.667 0 OFFCURVE",
"202 0 CURVE SMOOTH",
"361.694 0 OFFCURVE",
"377 67.949 OFFCURVE",
"377 197 CURVE SMOOTH",
"377 484 LINE SMOOTH",
"377 540 OFFCURVE",
"367.667 578.333 OFFCURVE",
"345 605 CURVE",
"364 652 LINE",
"364 652 LINE",
"308 675 LINE",
"293 638 LINE",
"269 646 OFFCURVE",
"239.333 649 OFFCURVE",
"202 649 CURVE SMOOTH",
"71.754 649 OFFCURVE",
"28 601.89 OFFCURVE",
"28 484 CURVE SMOOTH",
"28 165 LINE SMOOTH",
"28 114.333 OFFCURVE",
"37.333 76.333 OFFCURVE",
"56 51 CURVE",
"36 0 LINE",
"92 -23 LINE"
);
},
{
closed = 1;
nodes = (
"176.667 108 OFFCURVE",
"159 113.333 OFFCURVE",
"151 124 CURVE",
"265 407 LINE",
"265 197 LINE SMOOTH",
"265 134.593 OFFCURVE",
"261.739 108 OFFCURVE",
"204 108 CURVE SMOOTH"
);
},
{
closed = 1;
nodes = (
"138 484 LINE SMOOTH",
"138 533.109 OFFCURVE",
"142.187 543 OFFCURVE",
"202 543 CURVE SMOOTH",
"228.667 543 OFFCURVE",
"243.667 543.333 OFFCURVE",
"253 538 CURVE",
"140 259 LINE"
);
}
);
width = 402;
}
);
unicode = 00D8;
},
{
glyphname = Oslashacute;
lastChange = "2024-07-25 09:45:54 +0000";
layers = (
{
layerId = "27BA4E46-0A2B-46F0-A320-1D87D61B7B36";
paths = (
{
closed = 1;
nodes = (
"107 14 LINE",
"133 4.667 OFFCURVE",
"164.667 0 OFFCURVE",
"202 0 CURVE SMOOTH",
"361.694 0 OFFCURVE",
"377 67.949 OFFCURVE",
"377 197 CURVE SMOOTH",
"377 484 LINE SMOOTH",
"377 540 OFFCURVE",
"367.667 578.333 OFFCURVE",
"345 605 CURVE",
"364 652 LINE",
"364 652 LINE",
"308 675 LINE",
"293 638 LINE",
"269 646 OFFCURVE",
"239.333 649 OFFCURVE",
"202 649 CURVE SMOOTH",
"71.754 649 OFFCURVE",
"28 601.89 OFFCURVE",
"28 484 CURVE SMOOTH",
"28 165 LINE SMOOTH",
"28 114.333 OFFCURVE",
"37.333 76.333 OFFCURVE",
"56 51 CURVE",
"36 0 LINE",
"92 -23 LINE"
);
},
{
closed = 1;
nodes = (
"176.667 108 OFFCURVE",
"159 113.333 OFFCURVE",
"151 124 CURVE",
"265 407 LINE",
"265 197 LINE SMOOTH",
"265 134.593 OFFCURVE",
"261.739 108 OFFCURVE",
"204 108 CURVE SMOOTH"
);
},
{
closed = 1;
nodes = (
"138 484 LINE SMOOTH",
"138 533.109 OFFCURVE",
"142.187 543 OFFCURVE",
"202 543 CURVE SMOOTH",
"228.667 543 OFFCURVE",
"243.667 543.333 OFFCURVE",
"253 538 CURVE",
"140 259 LINE"
);
},
{
closed = 1;
nodes = (
"160.167 681 OFFCURVE",
"171 681.333 OFFCURVE",
"183 682 CURVE SMOOTH",
"197 682 OFFCURVE",
"213 682.333 OFFCURVE",
"231 683 CURVE",
"285 764 LINE",
"188 764 LINE",
"162 724 LINE SMOOTH",
"155.333 714 OFFCURVE",
"149.333 704.667 OFFCURVE",
"144 696 CURVE SMOOTH",
"138.667 687.333 OFFCURVE",
"136 682.667 OFFCURVE",
"136 682 CURVE SMOOTH",
"136 681.333 OFFCURVE",
"140.833 681 OFFCURVE",
"150.5 681 CURVE SMOOTH"
);
}
);
width = 402;
}
);
unicode = 01FE;
},
{
glyphname = Otilde;
lastChange = "2024-07-25 09:45:54 +0000";
layers = (
{
layerId = "27BA4E46-0A2B-46F0-A320-1D87D61B7B36";
paths = (
{
closed = 1;
nodes = (
"358.694 0 OFFCURVE",
"374 67.949 OFFCURVE",
"374 197 CURVE SMOOTH",
"374 484 LINE SMOOTH",
"374 603.826 OFFCURVE",
"326.811 649 OFFCURVE",
"199 649 CURVE SMOOTH",
"68.754 649 OFFCURVE",
"25 601.89 OFFCURVE",
"25 484 CURVE SMOOTH",
"25 165 LINE SMOOTH",
"25 47.11 OFFCURVE",
"68.754 0 OFFCURVE",
"199 0 CURVE SMOOTH"
);
},
{
closed = 1;
nodes = (
"143.721 108 OFFCURVE",
"137 123.828 OFFCURVE",
"137 192 CURVE SMOOTH",
"135 484 LINE SMOOTH",
"135 533.109 OFFCURVE",
"139.187 543 OFFCURVE",
"199 543 CURVE SMOOTH",
"258.458 543 OFFCURVE",
"262 541.585 OFFCURVE",
"262 484 CURVE SMOOTH",
"262 197 LINE SMOOTH",
"262 134.593 OFFCURVE",
"258.739 108 OFFCURVE",
"201 108 CURVE SMOOTH"
);
},
{
closed = 1;
nodes = (
"118 691 LINE SMOOTH",
"120.667 693.667 OFFCURVE",
"124.333 696.667 OFFCURVE",
"129 700 CURVE SMOOTH",
"137 704 OFFCURVE",
"146.333 708 OFFCURVE",
"157 708 CURVE SMOOTH",
"165 708 OFFCURVE",
"172 704 OFFCURVE",
"180 700 CURVE",
"208.667 680.667 OFFCURVE",
"235.333 671 OFFCURVE",
"260 671 CURVE SMOOTH",
"268 671 LINE",
"268 671 OFFCURVE",
"268 671 OFFCURVE",
"268 671 CURVE",
"269 671 LINE",
"269 671 OFFCURVE",
"269 671 OFFCURVE",
"269 671 CURVE",
"269 671 OFFCURVE",
"269 671 OFFCURVE",
"269 671 CURVE",
"272.333 671 OFFCURVE",
"275.667 671.333 OFFCURVE",
"279 672 CURVE SMOOTH",
"303 678 OFFCURVE",
"325.333 693.333 OFFCURVE",
"346 718 CURVE SMOOTH",
"350 723 LINE",
"304 767 LINE",
"304 767 LINE",
"301 762 LINE SMOOTH",
"291 748.667 OFFCURVE",
"280 740.333 OFFCURVE",
"268 737 CURVE SMOOTH",
"265.333 736.333 OFFCURVE",
"262.667 736 OFFCURVE",
"260 736 CURVE SMOOTH",
"246.667 736 OFFCURVE",
"230.667 742.333 OFFCURVE",
"212 755 CURVE SMOOTH",
"194 767 OFFCURVE",
"175.667 773 OFFCURVE",
"157 773 CURVE SMOOTH",
"137 773 OFFCURVE",
"118 767 OFFCURVE",
"100 755 CURVE SMOOTH",
"86.667 747.667 OFFCURVE",
"76.167 739.5 OFFCURVE",
"68.5 730.5 CURVE SMOOTH",
"60.833 721.5 OFFCURVE",
"56.333 716.333 OFFCURVE",
"55 715 CURVE",
"52 709 LINE",
"97 669 LINE"
);
}
);
width = 402;
}
);
unicode = 00D5;
},
{
glyphname = OE;
lastChange = "2024-07-25 09:45:54 +0000";
layers = (
{
layerId = "27BA4E46-0A2B-46F0-A320-1D87D61B7B36";
paths = (
{
closed = 1;
nodes = (
"561 0 LINE",
"561 106 LINE",
"357 106 LINE",
"357 287 LINE",
"501 287 LINE",
"501 393 LINE",
"357 393 LINE",
"357 544 LINE",
"561 544 LINE",
"561 544 LINE",
"561 649 LINE",
"245 649 LINE SMOOTH",
"117.806 649 OFFCURVE",
"25 604.389 OFFCURVE",
"25 484 CURVE SMOOTH",
"25 165 LINE SMOOTH",
"25 44.611 OFFCURVE",
"117.806 0 OFFCURVE",
"245 0 CURVE SMOOTH"
);
},
{
closed = 1;
nodes = (
"189.932 108 OFFCURVE",
"137 123.443 OFFCURVE",
"137 192 CURVE SMOOTH",
"135 483 LINE SMOOTH",
"135 530.888 OFFCURVE",
"183.958 543 OFFCURVE",
"245 543 CURVE",
"245 108 LINE"
);
}
);
width = 580;
}
);
unicode = 0152;
},
{
glyphname = P;
lastChange = "2024-07-25 09:45:54 +0000";
layers = (
{
layerId = "27BA4E46-0A2B-46F0-A320-1D87D61B7B36";
paths = (
{
closed = 1;
nodes = (
"140 0 LINE",
"140 224 LINE",
"286.595 224 OFFCURVE",
"380 223.815 OFFCURVE",
"380 388 CURVE SMOOTH",
"380 394.667 OFFCURVE",
"380.167 401.167 OFFCURVE",
"380.5 407.5 CURVE SMOOTH",
"380.833 413.833 OFFCURVE",
"381 420 OFFCURVE",
"381 426 CURVE SMOOTH",
"381 433.333 OFFCURVE",
"381.167 440.667 OFFCURVE",
"381.5 448 CURVE SMOOTH",
"381.833 455.333 OFFCURVE",
"382 462.667 OFFCURVE",
"382 470 CURVE SMOOTH",
"382 573.768 OFFCURVE",
"360.993 648 OFFCURVE",
"203 648 CURVE SMOOTH",
"27 648 LINE",
"27 0 LINE"
);
},
{
closed = 1;
nodes = (
"140 543 LINE",
"140 543 LINE",
"168 543 LINE SMOOTH",
"216.98 543 OFFCURVE",
"269 546.569 OFFCURVE",
"269 481 CURVE SMOOTH",
"269 478 LINE",
"269 478 OFFCURVE",
"269 478 OFFCURVE",
"269 478 CURVE",
"269 478 OFFCURVE",
"269 478 OFFCURVE",
"269 478 CURVE",
"269 477 LINE",
"269 477 OFFCURVE",
"269 477 OFFCURVE",
"269 477 CURVE",
"269 477 OFFCURVE",
"269 477 OFFCURVE",
"269 477 CURVE",
"269 476 LINE",
"269 476 OFFCURVE",
"269 476 OFFCURVE",
"269 476 CURVE",
"269 476 OFFCURVE",
"269 476 OFFCURVE",
"269 476 CURVE",
"269 475 LINE",
"269 475 OFFCURVE",
"269 475 OFFCURVE",
"269 475 CURVE",
"269 475 OFFCURVE",
"269 475 OFFCURVE",
"269 475 CURVE",
"269 475 OFFCURVE",
"269 475 OFFCURVE",
"269 475 CURVE",
"269 475 OFFCURVE",
"269 475 OFFCURVE",
"269 475 CURVE",
"269 475 OFFCURVE",
"269 475 OFFCURVE",
"269 475 CURVE",
"269 475 OFFCURVE",
"269 475 OFFCURVE",
"269 475 CURVE",
"269 475 OFFCURVE",
"269 475 OFFCURVE",
"269 475 CURVE",
"269 475 OFFCURVE",
"269 475 OFFCURVE",
"269 475 CURVE",
"269 475 OFFCURVE",
"269 475 OFFCURVE",
"269 475 CURVE",
"269 475 OFFCURVE",
"269 475 OFFCURVE",
"269 475 CURVE",
"269 401 LINE",
"269 401 OFFCURVE",
"269 401 OFFCURVE",
"269 401 CURVE",
"269 401 OFFCURVE",
"269 401 OFFCURVE",
"269 401 CURVE",
"269 400 LINE",
"269 400 OFFCURVE",
"269 400 OFFCURVE",
"269 400 CURVE",
"269 400 OFFCURVE",
"269 400 OFFCURVE",
"269 400 CURVE",
"269 400 OFFCURVE",
"269 400 OFFCURVE",
"269 400 CURVE",
"269 399 LINE",
"269 399 OFFCURVE",
"269 399 OFFCURVE",
"269 399 CURVE",
"269 399 OFFCURVE",
"269 399 OFFCURVE",
"269 399 CURVE",
"269 399 OFFCURVE",
"269 399 OFFCURVE",
"269 399 CURVE",
"269 399 OFFCURVE",
"269 399 OFFCURVE",
"269 399 CURVE",
"269 399 OFFCURVE",
"269 399 OFFCURVE",
"269 399 CURVE",
"269 399 OFFCURVE",
"269 399 OFFCURVE",
"269 399 CURVE",
"269 399 OFFCURVE",
"269 399 OFFCURVE",
"269 399 CURVE",
"269 399 OFFCURVE",
"269 399 OFFCURVE",
"269 399 CURVE",
"269 396 LINE",
"269 396 OFFCURVE",
"269 396 OFFCURVE",
"269 396 CURVE",
"269 396 OFFCURVE",
"269 396 OFFCURVE",
"269 396 CURVE",
"269 395 LINE",
"269 395 OFFCURVE",
"269 395 OFFCURVE",
"269 395 CURVE",
"269 395 OFFCURVE",
"269 395 OFFCURVE",
"269 395 CURVE",
"269 395 OFFCURVE",
"269 395 OFFCURVE",
"269 395 CURVE",
"269 395 OFFCURVE",
"269 395 OFFCURVE",
"269 395 CURVE",
"269 395 OFFCURVE",
"269 395 OFFCURVE",
"269 395 CURVE",
"269 395 OFFCURVE",
"269 395 OFFCURVE",
"269 395 CURVE",
"269 395 OFFCURVE",
"269 395 OFFCURVE",
"269 395 CURVE",
"269 394 LINE",
"269 394 OFFCURVE",
"269 394 OFFCURVE",
"269 394 CURVE",
"269 394 OFFCURVE",
"269 394 OFFCURVE",
"269 394 CURVE",
"269 394 OFFCURVE",
"269 394 OFFCURVE",
"269 394 CURVE",
"269 393 LINE",
"269 393 OFFCURVE",
"269 393 OFFCURVE",
"269 393 CURVE",
"269 393 OFFCURVE",
"269 393 OFFCURVE",
"269 393 CURVE",
"269 391 LINE",
"269 391 OFFCURVE",
"269 391 OFFCURVE",
"269 391 CURVE",
"269 391 OFFCURVE",
"269 391 OFFCURVE",
"269 391 CURVE",
"269 328.423 OFFCURVE",
"263.812 329 OFFCURVE",
"140 329 CURVE"
);
},
{
closed = 1;
nodes = (
"269 397 OFFCURVE",
"269 397 OFFCURVE",
"269 397 CURVE",
"269 397 OFFCURVE",
"269 397 OFFCURVE",
"269 397 CURVE"
);
}
);
width = 405;
}
);
unicode = 0050;
},
{
glyphname = Thorn;
lastChange = "2024-07-25 09:45:54 +0000";
layers = (
{
layerId = "27BA4E46-0A2B-46F0-A320-1D87D61B7B36";
paths = (
{
closed = 1;
nodes = (
"138 0 LINE",
"138 74 LINE",
"156.667 71.333 OFFCURVE",
"176.333 69 OFFCURVE",
"199 69 CURVE SMOOTH",
"358.694 69 OFFCURVE",
"374 136.949 OFFCURVE",
"374 266 CURVE SMOOTH",
"374 410 LINE SMOOTH",
"374 529.826 OFFCURVE",
"326.811 575 OFFCURVE",
"199 575 CURVE SMOOTH",
"176.333 575 OFFCURVE",
"156.667 573.667 OFFCURVE",
"138 571 CURVE",
"138 653 LINE",
"25 653 LINE",
"25 0 LINE"
);
},
{
closed = 1;
nodes = (
"154.333 177 OFFCURVE",
"140.667 188.333 OFFCURVE",
"138 227 CURVE",
"138 447 LINE",
"140.667 455.667 OFFCURVE",
"146.333 461.5 OFFCURVE",
"155 464.5 CURVE SMOOTH",
"163.667 467.5 OFFCURVE",
"178.333 469 OFFCURVE",
"199 469 CURVE SMOOTH",
"258.458 469 OFFCURVE",
"262 467.585 OFFCURVE",
"262 410 CURVE SMOOTH",
"262 266 LINE SMOOTH",
"262 203.593 OFFCURVE",
"258.739 177 OFFCURVE",
"201 177 CURVE SMOOTH"
);
}
);
width = 392;
}
);
unicode = 00DE;
},
{
glyphname = Q;
lastChange = "2024-07-25 09:45:54 +0000";
layers = (
{
layerId = "27BA4E46-0A2B-46F0-A320-1D87D61B7B36";
paths = (
{
closed = 1;
nodes = (
"318.333 -46.333 OFFCURVE",
"355.333 -22.667 OFFCURVE",
"382 -4 CURVE",
"367 17 LINE SMOOTH",
"363.667 21.667 OFFCURVE",
"360.167 26.667 OFFCURVE",
"356.5 32 CURVE SMOOTH",
"352.833 37.333 OFFCURVE",
"349.333 41.667 OFFCURVE",
"346 45 CURVE",
"379.333 83.667 OFFCURVE",
"378 134.333 OFFCURVE",
"378 181 CURVE SMOOTH",
"378 484 LINE SMOOTH",
"378 601.597 OFFCURVE",
"333.04 649 OFFCURVE",
"203 649 CURVE SMOOTH",
"72.035 649 OFFCURVE",
"28 600.766 OFFCURVE",
"28 484 CURVE SMOOTH",
"28 165 LINE SMOOTH",
"28 41 OFFCURVE",
"83 0 OFFCURVE",
"195 0 CURVE SMOOTH",
"208.333 0 OFFCURVE",
"225.333 0.667 OFFCURVE",
"240 2 CURVE",
"289 -65 LINE"
);
},
{
closed = 1;
nodes = (
"142.161 107 OFFCURVE",
"140 130.032 OFFCURVE",
"140 163 CURVE SMOOTH",
"140 505 LINE SMOOTH",
"140 533 OFFCURVE",
"169.333 546 OFFCURVE",
"200 546 CURVE SMOOTH",
"232 546 OFFCURVE",
"266 531.667 OFFCURVE",
"266 505 CURVE SMOOTH",
"266 188 LINE SMOOTH",
"266 139.648 OFFCURVE",
"265.147 109.607 OFFCURVE",
"213 107 CURVE SMOOTH"
);
}
);
width = 410;
}
);
unicode = 0051;
},
{
glyphname = R;
lastChange = "2024-07-25 09:45:54 +0000";
layers = (
{
layerId = "27BA4E46-0A2B-46F0-A320-1D87D61B7B36";
paths = (
{
closed = 1;
nodes = (
"143 0 LINE",
"143 224 LINE",
"176 224 LINE",
"264 0 LINE",
"384 0 LINE",
"384 0 LINE",
"292 235 LINE",
"380.764 259.965 OFFCURVE",
"383 336.579 OFFCURVE",
"383 417 CURVE SMOOTH",
"383 439.667 OFFCURVE",
"385 517.667 OFFCURVE",
"373 559 CURVE SMOOTH",
"354.728 621.939 OFFCURVE",
"304.246 649 OFFCURVE",
"207 649 CURVE SMOOTH",
"31 649 LINE",
"31 0 LINE"
);
},
{
closed = 1;
nodes = (
"143 544 LINE",
"143 544 LINE",
"207 544 LINE SMOOTH",
"229 544 OFFCURVE",
"245.167 538.5 OFFCURVE",
"255.5 527.5 CURVE SMOOTH",
"276.167 505.5 OFFCURVE",
"272 438.333 OFFCURVE",
"272 421 CURVE SMOOTH",
"272 331.198 OFFCURVE",
"265.867 329 OFFCURVE",
"143 329 CURVE"
);
}
);
width = 410;
}
);
unicode = 0052;
},
{
glyphname = Racute;
lastChange = "2024-07-25 09:45:54 +0000";
layers = (
{
layerId = "27BA4E46-0A2B-46F0-A320-1D87D61B7B36";
paths = (
{
closed = 1;
nodes = (
"143 0 LINE",
"143 224 LINE",
"176 224 LINE",
"264 0 LINE",
"384 0 LINE",
"384 0 LINE",
"292 235 LINE",
"380.764 259.965 OFFCURVE",
"383 336.579 OFFCURVE",
"383 417 CURVE SMOOTH",
"383 439.667 OFFCURVE",
"385 517.667 OFFCURVE",
"373 559 CURVE SMOOTH",
"354.728 621.939 OFFCURVE",
"304.246 649 OFFCURVE",
"207 649 CURVE SMOOTH",
"31 649 LINE",
"31 0 LINE"
);
},
{
closed = 1;
nodes = (
"143 544 LINE",
"143 544 LINE",
"207 544 LINE SMOOTH",
"229 544 OFFCURVE",
"245.167 538.5 OFFCURVE",
"255.5 527.5 CURVE SMOOTH",
"276.167 505.5 OFFCURVE",
"272 438.333 OFFCURVE",
"272 421 CURVE SMOOTH",
"272 331.198 OFFCURVE",
"265.867 329 OFFCURVE",
"143 329 CURVE"
);
},
{
closed = 1;
nodes = (
"155.167 681 OFFCURVE",
"166 681.333 OFFCURVE",
"178 682 CURVE SMOOTH",
"192 682 OFFCURVE",
"208 682.333 OFFCURVE",
"226 683 CURVE",
"280 764 LINE",
"183 764 LINE",
"157 724 LINE SMOOTH",
"150.333 714 OFFCURVE",
"144.333 704.667 OFFCURVE",
"139 696 CURVE SMOOTH",
"133.667 687.333 OFFCURVE",
"131 682.667 OFFCURVE",
"131 682 CURVE SMOOTH",
"131 681.333 OFFCURVE",
"135.833 681 OFFCURVE",
"145.5 681 CURVE SMOOTH"
);
}
);
width = 410;
}
);
unicode = 0154;
},
{
glyphname = Rcaron;
lastChange = "2024-07-25 09:45:54 +0000";
layers = (
{
layerId = "27BA4E46-0A2B-46F0-A320-1D87D61B7B36";
paths = (
{
closed = 1;
nodes = (
"143 0 LINE",
"143 224 LINE",
"176 224 LINE",
"264 0 LINE",
"384 0 LINE",
"384 0 LINE",
"292 235 LINE",
"380.764 259.965 OFFCURVE",
"383 336.579 OFFCURVE",
"383 417 CURVE SMOOTH",
"383 439.667 OFFCURVE",
"385 517.667 OFFCURVE",
"373 559 CURVE SMOOTH",
"354.728 621.939 OFFCURVE",
"304.246 649 OFFCURVE",
"207 649 CURVE SMOOTH",
"31 649 LINE",
"31 0 LINE"
);
},
{
closed = 1;
nodes = (
"143 544 LINE",
"143 544 LINE",
"207 544 LINE SMOOTH",
"229 544 OFFCURVE",
"245.167 538.5 OFFCURVE",
"255.5 527.5 CURVE SMOOTH",
"276.167 505.5 OFFCURVE",
"272 438.333 OFFCURVE",
"272 421 CURVE SMOOTH",
"272 331.198 OFFCURVE",
"265.867 329 OFFCURVE",
"143 329 CURVE"
);
},
{
closed = 1;
nodes = (
"285 671 LINE",
"343 765 LINE",
"343 765 LINE",
"239 765 LINE",
"200 705 LINE",
"158 761 LINE",
"54 761 LINE",
"114 669 LINE"
);
}
);
width = 410;
}
);
unicode = 0158;
},
{
glyphname = S;
lastChange = "2024-07-25 09:45:54 +0000";
layers = (
{
layerId = "27BA4E46-0A2B-46F0-A320-1D87D61B7B36";
paths = (
{
closed = 1;
nodes = (
"330.157 0 OFFCURVE",
"375 45.075 OFFCURVE",
"375 165 CURVE SMOOTH",
"375 187 LINE SMOOTH",
"375 305.8 OFFCURVE",
"376.32 393 OFFCURVE",
"200 393 CURVE SMOOTH",
"163.906 393 OFFCURVE",
"142.401 398.797 OFFCURVE",
"141 403 CURVE SMOOTH",
"134.333 421.667 OFFCURVE",
"135 438.333 OFFCURVE",
"135 445 CURVE SMOOTH",
"135 453 OFFCURVE",
"135.333 460.667 OFFCURVE",
"136 468 CURVE SMOOTH",
"136 484 LINE SMOOTH",
"136 539.95 OFFCURVE",
"138.793 543 OFFCURVE",
"200 543 CURVE SMOOTH",
"259.834 543 OFFCURVE",
"263 543.226 OFFCURVE",
"263 479 CURVE",
"375 479 LINE",
"375 599.306 OFFCURVE",
"330.105 648 OFFCURVE",
"200 648 CURVE SMOOTH",
"69.771 648 OFFCURVE",
"25 602.797 OFFCURVE",
"25 484 CURVE SMOOTH",
"25 357.391 OFFCURVE",
"36.363 287 OFFCURVE",
"200 287 CURVE SMOOTH",
"204 287 LINE SMOOTH",
"224.094 287 OFFCURVE",
"255.15 285.124 OFFCURVE",
"260 273 CURVE",
"265.333 246.333 OFFCURVE",
"265 227.333 OFFCURVE",
"265 218 CURVE SMOOTH",
"265 209.333 OFFCURVE",
"264.667 200.667 OFFCURVE",
"264 192 CURVE SMOOTH",
"264 186.667 OFFCURVE",
"263.833 182 OFFCURVE",
"263.5 178 CURVE SMOOTH",
"263.167 174 OFFCURVE",
"263 169.667 OFFCURVE",
"263 165 CURVE SMOOTH",
"263 154 LINE SMOOTH",
"263 108.757 OFFCURVE",
"259.414 108.521 OFFCURVE",
"209 106 CURVE SMOOTH",
"200 106 LINE",
"200 106 OFFCURVE",
"200 106 OFFCURVE",
"200 106 CURVE",
"200 106 OFFCURVE",
"200 106 OFFCURVE",
"200 106 CURVE",
"200 106 OFFCURVE",
"200 106 OFFCURVE",
"200 106 CURVE",
"200 106 OFFCURVE",
"200 106 OFFCURVE",
"200 106 CURVE",
"200 106 OFFCURVE",
"200 106 OFFCURVE",
"200 106 CURVE",
"200 106 OFFCURVE",
"200 106 OFFCURVE",
"200 106 CURVE",
"195 106 LINE",
"195 106 OFFCURVE",
"195 106 OFFCURVE",
"195 106 CURVE",
"195 106 OFFCURVE",
"195 106 OFFCURVE",
"195 106 CURVE",
"195 106 OFFCURVE",
"195 106 OFFCURVE",
"195 106 CURVE",
"195 106 OFFCURVE",
"195 106 OFFCURVE",
"195 106 CURVE",
"192 106 LINE",
"192 106 OFFCURVE",
"192 106 OFFCURVE",
"192 106 CURVE",
"192 106 OFFCURVE",
"192 106 OFFCURVE",
"192 106 CURVE",
"192 106 OFFCURVE",
"192 106 OFFCURVE",
"192 106 CURVE",
"192 106 OFFCURVE",
"192 106 OFFCURVE",
"192 106 CURVE",
"192 106 OFFCURVE",
"192 106 OFFCURVE",
"192 106 CURVE",
"192 106 OFFCURVE",
"192 106 OFFCURVE",
"192 106 CURVE",
"192 106 OFFCURVE",
"192 106 OFFCURVE",
"192 106 CURVE",
"140.171 106 OFFCURVE",
"135 114.909 OFFCURVE",
"135 149 CURVE SMOOTH",
"135 163 LINE",
"135 163 OFFCURVE",
"135 163 OFFCURVE",
"135 163 CURVE",
"135 163 OFFCURVE",
"135 163 OFFCURVE",
"135 163 CURVE",
"135 163 OFFCURVE",
"135 163 OFFCURVE",
"135 163 CURVE",
"135 163 OFFCURVE",
"135 163 OFFCURVE",
"135 163 CURVE",
"135 163 OFFCURVE",
"135 163 OFFCURVE",
"135 163 CURVE",
"135 165 LINE SMOOTH",
"135 170.333 OFFCURVE",
"135.167 176.333 OFFCURVE",
"135.5 183 CURVE SMOOTH",
"135.833 189.667 OFFCURVE",
"136 196 OFFCURVE",
"136 202 CURVE",
"25 202 LINE",
"25 73.47 OFFCURVE",
"35.56 0 OFFCURVE",
"200 0 CURVE SMOOTH"
);
}
);
width = 402;
}
);
unicode = 0053;
},
{
glyphname = Sacute;
lastChange = "2024-07-25 09:45:54 +0000";
layers = (
{
layerId = "27BA4E46-0A2B-46F0-A320-1D87D61B7B36";
paths = (
{
closed = 1;
nodes = (
"330.157 0 OFFCURVE",
"375 45.075 OFFCURVE",
"375 165 CURVE SMOOTH",
"375 187 LINE SMOOTH",
"375 305.8 OFFCURVE",
"376.32 393 OFFCURVE",
"200 393 CURVE SMOOTH",
"163.906 393 OFFCURVE",
"142.401 398.797 OFFCURVE",
"141 403 CURVE SMOOTH",
"134.333 421.667 OFFCURVE",
"135 438.333 OFFCURVE",
"135 445 CURVE SMOOTH",
"135 453 OFFCURVE",
"135.333 460.667 OFFCURVE",
"136 468 CURVE SMOOTH",
"136 484 LINE SMOOTH",
"136 539.95 OFFCURVE",
"138.793 543 OFFCURVE",
"200 543 CURVE SMOOTH",
"259.834 543 OFFCURVE",
"263 543.226 OFFCURVE",
"263 479 CURVE",
"375 479 LINE",
"375 599.306 OFFCURVE",
"330.105 648 OFFCURVE",
"200 648 CURVE SMOOTH",
"69.771 648 OFFCURVE",
"25 602.797 OFFCURVE",
"25 484 CURVE SMOOTH",
"25 357.391 OFFCURVE",
"36.363 287 OFFCURVE",
"200 287 CURVE SMOOTH",
"204 287 LINE SMOOTH",
"224.094 287 OFFCURVE",
"255.15 285.124 OFFCURVE",
"260 273 CURVE",
"265.333 246.333 OFFCURVE",
"265 227.333 OFFCURVE",
"265 218 CURVE SMOOTH",
"265 209.333 OFFCURVE",
"264.667 200.667 OFFCURVE",
"264 192 CURVE SMOOTH",
"264 186.667 OFFCURVE",
"263.833 182 OFFCURVE",
"263.5 178 CURVE SMOOTH",
"263.167 174 OFFCURVE",
"263 169.667 OFFCURVE",
"263 165 CURVE SMOOTH",
"263 154 LINE SMOOTH",
"263 108.757 OFFCURVE",
"259.414 108.521 OFFCURVE",
"209 106 CURVE SMOOTH",
"200 106 LINE",
"200 106 OFFCURVE",
"200 106 OFFCURVE",
"200 106 CURVE",
"200 106 OFFCURVE",
"200 106 OFFCURVE",
"200 106 CURVE",
"200 106 OFFCURVE",
"200 106 OFFCURVE",
"200 106 CURVE",
"200 106 OFFCURVE",
"200 106 OFFCURVE",
"200 106 CURVE",
"200 106 OFFCURVE",
"200 106 OFFCURVE",
"200 106 CURVE",
"200 106 OFFCURVE",
"200 106 OFFCURVE",
"200 106 CURVE",
"195 106 LINE",
"195 106 OFFCURVE",
"195 106 OFFCURVE",
"195 106 CURVE",
"195 106 OFFCURVE",
"195 106 OFFCURVE",
"195 106 CURVE",
"195 106 OFFCURVE",
"195 106 OFFCURVE",
"195 106 CURVE",
"195 106 OFFCURVE",
"195 106 OFFCURVE",
"195 106 CURVE",
"192 106 LINE",
"192 106 OFFCURVE",
"192 106 OFFCURVE",
"192 106 CURVE",
"192 106 OFFCURVE",
"192 106 OFFCURVE",
"192 106 CURVE",
"192 106 OFFCURVE",
"192 106 OFFCURVE",
"192 106 CURVE",
"192 106 OFFCURVE",
"192 106 OFFCURVE",
"192 106 CURVE",
"192 106 OFFCURVE",
"192 106 OFFCURVE",
"192 106 CURVE",
"192 106 OFFCURVE",
"192 106 OFFCURVE",
"192 106 CURVE",
"192 106 OFFCURVE",
"192 106 OFFCURVE",
"192 106 CURVE",
"140.171 106 OFFCURVE",
"135 114.909 OFFCURVE",
"135 149 CURVE SMOOTH",
"135 163 LINE",
"135 163 OFFCURVE",
"135 163 OFFCURVE",
"135 163 CURVE",
"135 163 OFFCURVE",
"135 163 OFFCURVE",
"135 163 CURVE",
"135 163 OFFCURVE",
"135 163 OFFCURVE",
"135 163 CURVE",
"135 163 OFFCURVE",
"135 163 OFFCURVE",
"135 163 CURVE",
"135 163 OFFCURVE",
"135 163 OFFCURVE",
"135 163 CURVE",
"135 165 LINE SMOOTH",
"135 170.333 OFFCURVE",
"135.167 176.333 OFFCURVE",
"135.5 183 CURVE SMOOTH",
"135.833 189.667 OFFCURVE",
"136 196 OFFCURVE",
"136 202 CURVE",
"25 202 LINE",
"25 73.47 OFFCURVE",
"35.56 0 OFFCURVE",
"200 0 CURVE SMOOTH"
);
},
{
closed = 1;
nodes = (
"149.167 681 OFFCURVE",
"160 681.333 OFFCURVE",
"172 682 CURVE SMOOTH",
"186 682 OFFCURVE",
"202 682.333 OFFCURVE",
"220 683 CURVE",
"274 764 LINE",
"177 764 LINE",
"151 724 LINE SMOOTH",
"144.333 714 OFFCURVE",
"138.333 704.667 OFFCURVE",
"133 696 CURVE SMOOTH",
"127.667 687.333 OFFCURVE",
"125 682.667 OFFCURVE",
"125 682 CURVE SMOOTH",
"125 681.333 OFFCURVE",
"129.833 681 OFFCURVE",
"139.5 681 CURVE SMOOTH"
);
}
);
width = 402;
}
);
unicode = 015A;
},
{
glyphname = Scaron;
lastChange = "2024-07-25 09:45:54 +0000";
layers = (
{
layerId = "27BA4E46-0A2B-46F0-A320-1D87D61B7B36";
paths = (
{
closed = 1;
nodes = (
"330.157 0 OFFCURVE",
"375 45.075 OFFCURVE",
"375 165 CURVE SMOOTH",
"375 187 LINE SMOOTH",
"375 305.8 OFFCURVE",
"376.32 393 OFFCURVE",
"200 393 CURVE SMOOTH",
"163.906 393 OFFCURVE",
"142.401 398.797 OFFCURVE",
"141 403 CURVE SMOOTH",
"134.333 421.667 OFFCURVE",
"135 438.333 OFFCURVE",
"135 445 CURVE SMOOTH",
"135 453 OFFCURVE",
"135.333 460.667 OFFCURVE",
"136 468 CURVE SMOOTH",
"136 484 LINE SMOOTH",
"136 539.95 OFFCURVE",
"138.793 543 OFFCURVE",
"200 543 CURVE SMOOTH",
"259.834 543 OFFCURVE",
"263 543.226 OFFCURVE",
"263 479 CURVE",
"375 479 LINE",
"375 599.306 OFFCURVE",
"330.105 648 OFFCURVE",
"200 648 CURVE SMOOTH",
"69.771 648 OFFCURVE",
"25 602.797 OFFCURVE",
"25 484 CURVE SMOOTH",
"25 357.391 OFFCURVE",
"36.363 287 OFFCURVE",
"200 287 CURVE SMOOTH",
"204 287 LINE SMOOTH",
"224.094 287 OFFCURVE",
"255.15 285.124 OFFCURVE",
"260 273 CURVE",
"265.333 246.333 OFFCURVE",
"265 227.333 OFFCURVE",
"265 218 CURVE SMOOTH",
"265 209.333 OFFCURVE",
"264.667 200.667 OFFCURVE",
"264 192 CURVE SMOOTH",
"264 186.667 OFFCURVE",
"263.833 182 OFFCURVE",
"263.5 178 CURVE SMOOTH",
"263.167 174 OFFCURVE",
"263 169.667 OFFCURVE",
"263 165 CURVE SMOOTH",
"263 154 LINE SMOOTH",
"263 108.757 OFFCURVE",
"259.414 108.521 OFFCURVE",
"209 106 CURVE SMOOTH",
"200 106 LINE",
"200 106 OFFCURVE",
"200 106 OFFCURVE",
"200 106 CURVE",
"200 106 OFFCURVE",
"200 106 OFFCURVE",
"200 106 CURVE",
"200 106 OFFCURVE",
"200 106 OFFCURVE",
"200 106 CURVE",
"200 106 OFFCURVE",
"200 106 OFFCURVE",
"200 106 CURVE",
"200 106 OFFCURVE",
"200 106 OFFCURVE",
"200 106 CURVE",
"200 106 OFFCURVE",
"200 106 OFFCURVE",
"200 106 CURVE",
"195 106 LINE",
"195 106 OFFCURVE",
"195 106 OFFCURVE",
"195 106 CURVE",
"195 106 OFFCURVE",
"195 106 OFFCURVE",
"195 106 CURVE",
"195 106 OFFCURVE",
"195 106 OFFCURVE",
"195 106 CURVE",
"195 106 OFFCURVE",
"195 106 OFFCURVE",
"195 106 CURVE",
"192 106 LINE",
"192 106 OFFCURVE",
"192 106 OFFCURVE",
"192 106 CURVE",
"192 106 OFFCURVE",
"192 106 OFFCURVE",
"192 106 CURVE",
"192 106 OFFCURVE",
"192 106 OFFCURVE",
"192 106 CURVE",
"192 106 OFFCURVE",
"192 106 OFFCURVE",
"192 106 CURVE",
"192 106 OFFCURVE",
"192 106 OFFCURVE",
"192 106 CURVE",
"192 106 OFFCURVE",
"192 106 OFFCURVE",
"192 106 CURVE",
"192 106 OFFCURVE",
"192 106 OFFCURVE",
"192 106 CURVE",
"140.171 106 OFFCURVE",
"135 114.909 OFFCURVE",
"135 149 CURVE SMOOTH",
"135 163 LINE",
"135 163 OFFCURVE",
"135 163 OFFCURVE",
"135 163 CURVE",
"135 163 OFFCURVE",
"135 163 OFFCURVE",
"135 163 CURVE",
"135 163 OFFCURVE",
"135 163 OFFCURVE",
"135 163 CURVE",
"135 163 OFFCURVE",
"135 163 OFFCURVE",
"135 163 CURVE",
"135 163 OFFCURVE",
"135 163 OFFCURVE",
"135 163 CURVE",
"135 165 LINE SMOOTH",
"135 170.333 OFFCURVE",
"135.167 176.333 OFFCURVE",
"135.5 183 CURVE SMOOTH",
"135.833 189.667 OFFCURVE",
"136 196 OFFCURVE",
"136 202 CURVE",
"25 202 LINE",
"25 73.47 OFFCURVE",
"35.56 0 OFFCURVE",
"200 0 CURVE SMOOTH"
);
},
{
closed = 1;
nodes = (
"280 671 LINE",
"338 765 LINE",
"338 765 LINE",
"234 765 LINE",
"195 705 LINE",
"153 761 LINE",
"49 761 LINE",
"109 669 LINE"
);
}
);
width = 402;
}
);
unicode = 0160;
},
{
glyphname = Scedilla;
lastChange = "2024-07-25 09:45:54 +0000";
layers = (
{
layerId = "27BA4E46-0A2B-46F0-A320-1D87D61B7B36";
paths = (
{
closed = 1;
nodes = (
"195.333 -135 OFFCURVE",
"223 -139.667 OFFCURVE",
"255 -113 CURVE SMOOTH",
"272.333 -98.333 OFFCURVE",
"281 -75.667 OFFCURVE",
"281 -57 CURVE SMOOTH",
"281 -43 OFFCURVE",
"276.333 -30.667 OFFCURVE",
"267 -20 CURVE SMOOTH",
"259.667 -12 OFFCURVE",
"247.667 -5.333 OFFCURVE",
"231 0 CURVE",
"240 0 LINE SMOOTH",
"242.667 0 OFFCURVE",
"245.333 0.333 OFFCURVE",
"248 1 CURVE SMOOTH",
"250.667 1 OFFCURVE",
"253.333 1.167 OFFCURVE",
"256 1.5 CURVE SMOOTH",
"258.667 1.833 OFFCURVE",
"261.333 2 OFFCURVE",
"264 2 CURVE SMOOTH",
"257 2 LINE",
"346.333 15.333 OFFCURVE",
"377 64 OFFCURVE",
"377 164 CURVE SMOOTH",
"377 186 LINE SMOOTH",
"377 304.8 OFFCURVE",
"378.32 392 OFFCURVE",
"202 392 CURVE SMOOTH",
"165.906 392 OFFCURVE",
"144.401 397.797 OFFCURVE",
"143 402 CURVE SMOOTH",
"136.333 420.667 OFFCURVE",
"137 437.333 OFFCURVE",
"137 444 CURVE SMOOTH",
"137 452 OFFCURVE",
"137.333 459.667 OFFCURVE",
"138 467 CURVE SMOOTH",
"138 483 LINE SMOOTH",
"138 539.483 OFFCURVE",
"141.515 542 OFFCURVE",
"202 542 CURVE SMOOTH",
"261.834 542 OFFCURVE",
"265 542.226 OFFCURVE",
"265 478 CURVE",
"377 478 LINE",
"377 598.306 OFFCURVE",
"332.105 647 OFFCURVE",
"202 647 CURVE SMOOTH",
"71.771 647 OFFCURVE",
"27 601.797 OFFCURVE",
"27 483 CURVE SMOOTH",
"27 356.391 OFFCURVE",
"38.363 286 OFFCURVE",
"202 286 CURVE SMOOTH",
"206 286 LINE SMOOTH",
"222.91 286 OFFCURVE",
"256.352 283.296 OFFCURVE",
"262 272 CURVE",
"267.333 245.333 OFFCURVE",
"267 226.333 OFFCURVE",
"267 217 CURVE SMOOTH",
"267 208.333 OFFCURVE",
"266.667 199.667 OFFCURVE",
"266 191 CURVE SMOOTH",
"266 185.667 OFFCURVE",
"265.833 181 OFFCURVE",
"265.5 177 CURVE SMOOTH",
"265.167 173 OFFCURVE",
"265 168.667 OFFCURVE",
"265 164 CURVE SMOOTH",
"265 153 LINE SMOOTH",
"265 110.365 OFFCURVE",
"263.064 107.603 OFFCURVE",
"211 105 CURVE SMOOTH",
"198 105 LINE",
"198 105 OFFCURVE",
"198 105 OFFCURVE",
"198 105 CURVE",
"198 105 OFFCURVE",
"198 105 OFFCURVE",
"198 105 CURVE",
"198 105 OFFCURVE",
"198 105 OFFCURVE",
"198 105 CURVE",
"197.333 105 OFFCURVE",
"197 105 OFFCURVE",
"197 105 CURVE",
"197 105 OFFCURVE",
"197 105 OFFCURVE",
"197 105 CURVE",
"197 105 OFFCURVE",
"197 105 OFFCURVE",
"197 105 CURVE",
"194 105 LINE SMOOTH",
"142.171 105 OFFCURVE",
"137 113.909 OFFCURVE",
"137 148 CURVE",
"137 148 OFFCURVE",
"137 148 OFFCURVE",
"137 148 CURVE",
"137 149 LINE",
"137 149 OFFCURVE",
"137 149 OFFCURVE",
"137 149 CURVE",
"137 149 OFFCURVE",
"137 149 OFFCURVE",
"137 149 CURVE",
"137 149 OFFCURVE",
"137 149 OFFCURVE",
"137 149 CURVE",
"137 161 LINE",
"137 161 OFFCURVE",
"137 161 OFFCURVE",
"137 161 CURVE",
"137 162 LINE",
"137 162 OFFCURVE",
"137 162 OFFCURVE",
"137 162 CURVE",
"137 162 OFFCURVE",
"137 162 OFFCURVE",
"137 162 CURVE",
"137 162 OFFCURVE",
"137 162 OFFCURVE",
"137 162 CURVE",
"137 163 LINE",
"137 163 OFFCURVE",
"137 163 OFFCURVE",
"137 163 CURVE",
"137 164 LINE",
"137 164 OFFCURVE",
"137 164 OFFCURVE",
"137 164 CURVE",
"137 164 OFFCURVE",
"137 164 OFFCURVE",
"137 164 CURVE",
"137 164 OFFCURVE",
"137 164 OFFCURVE",
"137 164 CURVE",
"137 169.333 OFFCURVE",
"137.167 175.333 OFFCURVE",
"137.5 182 CURVE SMOOTH",
"137.833 188.667 OFFCURVE",
"138 195 OFFCURVE",
"138 201 CURVE",
"27 201 LINE",
"27 75.949 OFFCURVE",
"38.709 4.307 OFFCURVE",
"182 -1 CURVE",
"157 -38 LINE",
"159 -38 OFFCURVE",
"161 -37.833 OFFCURVE",
"163 -37.5 CURVE SMOOTH",
"165 -37.167 OFFCURVE",
"166.667 -37 OFFCURVE",
"168 -37 CURVE SMOOTH",
"177.333 -37 OFFCURVE",
"185.667 -40 OFFCURVE",
"193 -46 CURVE SMOOTH",
"199.667 -52.667 OFFCURVE",
"203 -59.667 OFFCURVE",
"203 -67 CURVE SMOOTH",
"203 -78.333 OFFCURVE",
"198 -88.333 OFFCURVE",
"188 -97 CURVE SMOOTH",
"176.667 -106.333 OFFCURVE",
"164 -111 OFFCURVE",
"150 -111 CURVE SMOOTH",
"143.333 -111 OFFCURVE",
"137 -110.333 OFFCURVE",
"129 -109 CURVE",
"137 -133 LINE",
"153 -134.333 OFFCURVE",
"168 -135 OFFCURVE",
"182 -135 CURVE SMOOTH"
);
}
);
width = 402;
}
);
unicode = 015E;
},
{
glyphname = Scircumflex;
lastChange = "2024-07-25 09:45:54 +0000";
layers = (
{
layerId = "27BA4E46-0A2B-46F0-A320-1D87D61B7B36";
paths = (
{
closed = 1;
nodes = (
"330.157 0 OFFCURVE",
"375 45.075 OFFCURVE",
"375 165 CURVE SMOOTH",
"375 187 LINE SMOOTH",
"375 305.8 OFFCURVE",
"376.32 393 OFFCURVE",
"200 393 CURVE SMOOTH",
"163.906 393 OFFCURVE",
"142.401 398.797 OFFCURVE",
"141 403 CURVE SMOOTH",
"134.333 421.667 OFFCURVE",
"135 438.333 OFFCURVE",
"135 445 CURVE SMOOTH",
"135 453 OFFCURVE",
"135.333 460.667 OFFCURVE",
"136 468 CURVE SMOOTH",
"136 484 LINE SMOOTH",
"136 539.95 OFFCURVE",
"138.793 543 OFFCURVE",
"200 543 CURVE SMOOTH",
"259.834 543 OFFCURVE",
"263 543.226 OFFCURVE",
"263 479 CURVE",
"375 479 LINE",
"375 599.306 OFFCURVE",
"330.105 648 OFFCURVE",
"200 648 CURVE SMOOTH",
"69.771 648 OFFCURVE",
"25 602.797 OFFCURVE",
"25 484 CURVE SMOOTH",
"25 357.391 OFFCURVE",
"36.363 287 OFFCURVE",
"200 287 CURVE SMOOTH",
"204 287 LINE SMOOTH",
"224.094 287 OFFCURVE",
"255.15 285.124 OFFCURVE",
"260 273 CURVE",
"265.333 246.333 OFFCURVE",
"265 227.333 OFFCURVE",
"265 218 CURVE SMOOTH",
"265 209.333 OFFCURVE",
"264.667 200.667 OFFCURVE",
"264 192 CURVE SMOOTH",
"264 186.667 OFFCURVE",
"263.833 182 OFFCURVE",
"263.5 178 CURVE SMOOTH",
"263.167 174 OFFCURVE",
"263 169.667 OFFCURVE",
"263 165 CURVE SMOOTH",
"263 154 LINE SMOOTH",
"263 108.757 OFFCURVE",
"259.414 108.521 OFFCURVE",
"209 106 CURVE SMOOTH",
"200 106 LINE",
"200 106 OFFCURVE",
"200 106 OFFCURVE",
"200 106 CURVE",
"200 106 OFFCURVE",
"200 106 OFFCURVE",
"200 106 CURVE",
"200 106 OFFCURVE",
"200 106 OFFCURVE",
"200 106 CURVE",
"200 106 OFFCURVE",
"200 106 OFFCURVE",
"200 106 CURVE",
"200 106 OFFCURVE",
"200 106 OFFCURVE",
"200 106 CURVE",
"200 106 OFFCURVE",
"200 106 OFFCURVE",
"200 106 CURVE",
"195 106 LINE",
"195 106 OFFCURVE",
"195 106 OFFCURVE",
"195 106 CURVE",
"195 106 OFFCURVE",
"195 106 OFFCURVE",
"195 106 CURVE",
"195 106 OFFCURVE",
"195 106 OFFCURVE",
"195 106 CURVE",
"195 106 OFFCURVE",
"195 106 OFFCURVE",
"195 106 CURVE",
"192 106 LINE",
"192 106 OFFCURVE",
"192 106 OFFCURVE",
"192 106 CURVE",
"192 106 OFFCURVE",
"192 106 OFFCURVE",
"192 106 CURVE",
"192 106 OFFCURVE",
"192 106 OFFCURVE",
"192 106 CURVE",
"192 106 OFFCURVE",
"192 106 OFFCURVE",
"192 106 CURVE",
"192 106 OFFCURVE",
"192 106 OFFCURVE",
"192 106 CURVE",
"192 106 OFFCURVE",
"192 106 OFFCURVE",
"192 106 CURVE",
"192 106 OFFCURVE",
"192 106 OFFCURVE",
"192 106 CURVE",
"140.171 106 OFFCURVE",
"135 114.909 OFFCURVE",
"135 149 CURVE SMOOTH",
"135 163 LINE",
"135 163 OFFCURVE",
"135 163 OFFCURVE",
"135 163 CURVE",
"135 163 OFFCURVE",
"135 163 OFFCURVE",
"135 163 CURVE",
"135 163 OFFCURVE",
"135 163 OFFCURVE",
"135 163 CURVE",
"135 163 OFFCURVE",
"135 163 OFFCURVE",
"135 163 CURVE",
"135 163 OFFCURVE",
"135 163 OFFCURVE",
"135 163 CURVE",
"135 165 LINE SMOOTH",
"135 170.333 OFFCURVE",
"135.167 176.333 OFFCURVE",
"135.5 183 CURVE SMOOTH",
"135.833 189.667 OFFCURVE",
"136 196 OFFCURVE",
"136 202 CURVE",
"25 202 LINE",
"25 73.47 OFFCURVE",
"35.56 0 OFFCURVE",
"200 0 CURVE SMOOTH"
);
},
{
closed = 1;
nodes = (
"158 676 LINE",
"197 736 LINE",
"239 680 LINE",
"343 680 LINE",
"283 774 LINE",
"112 772 LINE",
"54 676 LINE",
"54 676 LINE"
);
}
);
width = 402;
}
);
unicode = 015C;
},
{
glyphname = Germandbls;
lastChange = "2024-07-25 09:45:54 +0000";
layers = (
{
layerId = "27BA4E46-0A2B-46F0-A320-1D87D61B7B36";
paths = (
{
closed = 1;
nodes = (
"134 0 LINE",
"134 548 LINE",
"254 548 LINE",
"196 396 LINE",
"196 289 LINE",
"224 289 LINE SMOOTH",
"230.667 289 OFFCURVE",
"236.333 288.333 OFFCURVE",
"241 287 CURVE SMOOTH",
"245.667 285.667 OFFCURVE",
"251.667 284 OFFCURVE",
"259 282 CURVE SMOOTH",
"270.333 278.667 OFFCURVE",
"278 271 OFFCURVE",
"282 259 CURVE SMOOTH",
"286 247 OFFCURVE",
"288 226.667 OFFCURVE",
"288 198 CURVE SMOOTH",
"288 181 LINE SMOOTH",
"288 142.333 OFFCURVE",
"260 108.667 OFFCURVE",
"192 106 CURVE",
"192 0 LINE",
"354.609 0 OFFCURVE",
"400 69.831 OFFCURVE",
"400 198 CURVE SMOOTH",
"400 260.728 OFFCURVE",
"405.861 333.407 OFFCURVE",
"307 382 CURVE",
"397 653 LINE",
"397 653 LINE",
"23 653 LINE",
"23 0 LINE"
);
}
);
width = 423;
}
);
unicode = 1E9E;
},
{
glyphname = T;
lastChange = "2024-07-25 09:45:54 +0000";
layers = (
{
layerId = "27BA4E46-0A2B-46F0-A320-1D87D61B7B36";
paths = (
{
closed = 1;
nodes = (
"202 0 LINE",
"202 544 LINE",
"306 544 LINE",
"306 649 LINE",
"306 649 LINE",
"-13 649 LINE",
"-13 544 LINE",
"91 544 LINE",
"91 0 LINE"
);
}
);
width = 297;
}
);
unicode = 0054;
},
{
glyphname = Tbar;
lastChange = "2024-07-25 09:45:54 +0000";
layers = (
{
layerId = "27BA4E46-0A2B-46F0-A320-1D87D61B7B36";
paths = (
{
closed = 1;
nodes = (
"203 0 LINE",
"203 355 LINE",
"285 355 LINE",
"285 430 LINE",
"203 430 LINE",
"203 544 LINE",
"307 544 LINE",
"307 649 LINE",
"307 649 LINE",
"-12 649 LINE",
"-12 544 LINE",
"92 544 LINE",
"92 430 LINE",
"10 430 LINE",
"10 355 LINE",
"92 355 LINE",
"92 0 LINE"
);
}
);
width = 297;
}
);
unicode = 0166;
},
{
glyphname = Tcaron;
lastChange = "2024-07-25 09:45:54 +0000";
layers = (
{
layerId = "27BA4E46-0A2B-46F0-A320-1D87D61B7B36";
paths = (
{
closed = 1;
nodes = (
"202 0 LINE",
"202 544 LINE",
"306 544 LINE",
"306 649 LINE",
"306 649 LINE",
"-13 649 LINE",
"-13 544 LINE",
"91 544 LINE",
"91 0 LINE"
);
},
{
closed = 1;
nodes = (
"236 671 LINE",
"294 765 LINE",
"294 765 LINE",
"190 765 LINE",
"151 705 LINE",
"109 761 LINE",
"5 761 LINE",
"65 669 LINE"
);
}
);
width = 297;
}
);
unicode = 0164;
},
{
glyphname = U;
lastChange = "2024-07-25 09:45:54 +0000";
layers = (
{
layerId = "27BA4E46-0A2B-46F0-A320-1D87D61B7B36";
paths = (
{
closed = 1;
nodes = (
"362.927 0 OFFCURVE",
"375 69.3 OFFCURVE",
"375 197 CURVE SMOOTH",
"375 648 LINE",
"264 648 LINE",
"264 632.667 OFFCURVE",
"263.333 460.333 OFFCURVE",
"262 131 CURVE",
"259.333 116.333 OFFCURVE",
"230 107 OFFCURVE",
"202 107 CURVE SMOOTH",
"175.333 107 OFFCURVE",
"149.667 114.333 OFFCURVE",
"143 125 CURVE",
"144 125 LINE",
"140 134.333 OFFCURVE",
"140 149.333 OFFCURVE",
"140 160 CURVE SMOOTH",
"140 165 LINE",
"137 648 LINE",
"25 648 LINE",
"25 648 LINE",
"25 165 LINE SMOOTH",
"25 45.075 OFFCURVE",
"69.843 0 OFFCURVE",
"200 0 CURVE SMOOTH"
);
}
);
width = 401;
}
);
unicode = 0055;
},
{
glyphname = Uacute;
lastChange = "2024-07-25 09:45:54 +0000";
layers = (
{
layerId = "27BA4E46-0A2B-46F0-A320-1D87D61B7B36";
paths = (
{
closed = 1;
nodes = (
"362.927 0 OFFCURVE",
"375 69.3 OFFCURVE",
"375 197 CURVE SMOOTH",
"375 648 LINE",
"264 648 LINE",
"264 617.333 OFFCURVE",
"263.333 161.667 OFFCURVE",
"262 131 CURVE",
"259.333 116.333 OFFCURVE",
"230 107 OFFCURVE",
"202 107 CURVE SMOOTH",
"175.333 107 OFFCURVE",
"149.667 114.333 OFFCURVE",
"143 125 CURVE",
"144 125 LINE",
"140 134.333 OFFCURVE",
"140 149.333 OFFCURVE",
"140 160 CURVE SMOOTH",
"140 165 LINE",
"137 648 LINE",
"25 648 LINE",
"25 648 LINE",
"25 165 LINE SMOOTH",
"25 45.075 OFFCURVE",
"69.843 0 OFFCURVE",
"200 0 CURVE SMOOTH"
);
},
{
closed = 1;
nodes = (
"164.167 681 OFFCURVE",
"175 681.333 OFFCURVE",
"187 682 CURVE SMOOTH",
"201 682 OFFCURVE",
"217 682.333 OFFCURVE",
"235 683 CURVE",
"289 764 LINE",
"192 764 LINE",
"166 724 LINE SMOOTH",
"159.333 714 OFFCURVE",
"153.333 704.667 OFFCURVE",
"148 696 CURVE SMOOTH",
"142.667 687.333 OFFCURVE",
"140 682.667 OFFCURVE",
"140 682 CURVE SMOOTH",
"140 681.333 OFFCURVE",
"144.833 681 OFFCURVE",
"154.5 681 CURVE SMOOTH"
);
}
);
width = 401;
}
);
unicode = 00DA;
},
{
glyphname = Ubreve;
lastChange = "2024-07-25 09:45:54 +0000";
layers = (
{
layerId = "27BA4E46-0A2B-46F0-A320-1D87D61B7B36";
paths = (
{
closed = 1;
nodes = (
"362.927 0 OFFCURVE",
"375 69.3 OFFCURVE",
"375 197 CURVE SMOOTH",
"375 648 LINE",
"264 648 LINE",
"264 632.667 OFFCURVE",
"264.167 617.833 OFFCURVE",
"264.5 603.5 CURVE SMOOTH",
"264.833 589.167 OFFCURVE",
"265 572 OFFCURVE",
"265 552 CURVE SMOOTH",
"265 472 OFFCURVE",
"263.333 161.667 OFFCURVE",
"262 131 CURVE",
"259.333 116.333 OFFCURVE",
"230 107 OFFCURVE",
"202 107 CURVE SMOOTH",
"175.333 107 OFFCURVE",
"149.667 114.333 OFFCURVE",
"143 125 CURVE",
"144 125 LINE",
"140 134.333 OFFCURVE",
"140 149.333 OFFCURVE",
"140 160 CURVE SMOOTH",
"140 165 LINE",
"137 648 LINE",
"25 648 LINE",
"25 648 LINE",
"25 165 LINE SMOOTH",
"25 45.075 OFFCURVE",
"69.843 0 OFFCURVE",
"200 0 CURVE SMOOTH"
);
},
{
closed = 1;
nodes = (
"276 679 OFFCURVE",
"313.333 708.333 OFFCURVE",
"316 783 CURVE",
"251 783 LINE",
"245.667 744.333 OFFCURVE",
"229.333 742 OFFCURVE",
"200 742 CURVE SMOOTH",
"172 742 OFFCURVE",
"157.333 744.333 OFFCURVE",
"152 783 CURVE",
"87 783 LINE",
"89.667 708.333 OFFCURVE",
"124 679 OFFCURVE",
"200 679 CURVE SMOOTH"
);
}
);
width = 401;
}
);
unicode = 016C;
},
{
glyphname = Ucircumflex;
lastChange = "2024-07-25 09:45:54 +0000";
layers = (
{
layerId = "27BA4E46-0A2B-46F0-A320-1D87D61B7B36";
paths = (
{
closed = 1;
nodes = (
"362.927 0 OFFCURVE",
"375 69.3 OFFCURVE",
"375 197 CURVE SMOOTH",
"375 648 LINE",
"264 648 LINE",
"264 632.667 OFFCURVE",
"264.167 617.833 OFFCURVE",
"264.5 603.5 CURVE SMOOTH",
"264.833 589.167 OFFCURVE",
"265 572 OFFCURVE",
"265 552 CURVE SMOOTH",
"265 472 OFFCURVE",
"263.333 161.667 OFFCURVE",
"262 131 CURVE",
"259.333 116.333 OFFCURVE",
"230 107 OFFCURVE",
"202 107 CURVE SMOOTH",
"175.333 107 OFFCURVE",
"149.667 114.333 OFFCURVE",
"143 125 CURVE",
"144 125 LINE",
"140 134.333 OFFCURVE",
"140 149.333 OFFCURVE",
"140 160 CURVE SMOOTH",
"140 165 LINE",
"137 648 LINE",
"25 648 LINE",
"25 648 LINE",
"25 165 LINE SMOOTH",
"25 45.075 OFFCURVE",
"69.843 0 OFFCURVE",
"200 0 CURVE SMOOTH"
);
},
{
closed = 1;
nodes = (
"160 676 LINE",
"199 736 LINE",
"241 680 LINE",
"345 680 LINE",
"285 774 LINE",
"114 772 LINE",
"56 676 LINE",
"56 676 LINE"
);
}
);
width = 401;
}
);
unicode = 00DB;
},
{
glyphname = Udieresis;
lastChange = "2024-07-25 09:45:54 +0000";
layers = (
{
layerId = "27BA4E46-0A2B-46F0-A320-1D87D61B7B36";
paths = (
{
closed = 1;
nodes = (
"362.927 0 OFFCURVE",
"375 69.3 OFFCURVE",
"375 197 CURVE SMOOTH",
"375 648 LINE",
"264 648 LINE",
"264 632.667 OFFCURVE",
"264.167 617.833 OFFCURVE",
"264.5 603.5 CURVE SMOOTH",
"264.833 589.167 OFFCURVE",
"265 572 OFFCURVE",
"265 552 CURVE SMOOTH",
"265 472 OFFCURVE",
"263.333 161.667 OFFCURVE",
"262 131 CURVE",
"259.333 116.333 OFFCURVE",
"230 107 OFFCURVE",
"202 107 CURVE SMOOTH",
"175.333 107 OFFCURVE",
"149.667 114.333 OFFCURVE",
"143 125 CURVE",
"144 125 LINE",
"140 134.333 OFFCURVE",
"140 149.333 OFFCURVE",
"140 160 CURVE SMOOTH",
"140 165 LINE",
"137 648 LINE",
"25 648 LINE",
"25 648 LINE",
"25 165 LINE SMOOTH",
"25 45.075 OFFCURVE",
"69.843 0 OFFCURVE",
"200 0 CURVE SMOOTH"
);
},
{
closed = 1;
nodes = (
"94.167 680 OFFCURVE",
"105 680.333 OFFCURVE",
"117 681 CURVE SMOOTH",
"131 681 OFFCURVE",
"147 681.333 OFFCURVE",
"165 682 CURVE",
"166 763 LINE",
"70 763 LINE",
"70 681 LINE SMOOTH",
"70 680.333 OFFCURVE",
"74.833 680 OFFCURVE",
"84.5 680 CURVE SMOOTH"
);
},
{
closed = 1;
nodes = (
"254 683 LINE",
"254 683 OFFCURVE",
"254 683 OFFCURVE",
"254 683 CURVE",
"258 683 LINE",
"258 683 OFFCURVE",
"258 683 OFFCURVE",
"258 683 CURVE",
"258 683 OFFCURVE",
"258 683 OFFCURVE",
"258 683 CURVE",
"260 683 LINE",
"260 683 OFFCURVE",
"260 683 OFFCURVE",
"260 683 CURVE",
"260 683 OFFCURVE",
"260 683 OFFCURVE",
"260 683 CURVE",
"261 683 LINE",
"261 683 OFFCURVE",
"261 683 OFFCURVE",
"261 683 CURVE",
"261 683 OFFCURVE",
"261 683 OFFCURVE",
"261 683 CURVE",
"261 683 OFFCURVE",
"261 683 OFFCURVE",
"261 683 CURVE",
"266 683 LINE",
"266 683 OFFCURVE",
"266 683 OFFCURVE",
"266 683 CURVE",
"266 683 OFFCURVE",
"266 683 OFFCURVE",
"266 683 CURVE",
"267 683 LINE",
"267 683 OFFCURVE",
"267 683 OFFCURVE",
"267 683 CURVE",
"270 683 LINE SMOOTH",
"284 683 OFFCURVE",
"300 683.333 OFFCURVE",
"318 684 CURVE",
"319 765 LINE",
"223 765 LINE",
"223 684 LINE SMOOTH",
"223 683.333 OFFCURVE",
"228 683 OFFCURVE",
"238 683 CURVE SMOOTH"
);
}
);
width = 401;
}
);
unicode = 00DC;
},
{
glyphname = Ugrave;
lastChange = "2024-07-25 09:45:54 +0000";
layers = (
{
layerId = "27BA4E46-0A2B-46F0-A320-1D87D61B7B36";
paths = (
{
closed = 1;
nodes = (
"362.927 0 OFFCURVE",
"375 69.3 OFFCURVE",
"375 197 CURVE SMOOTH",
"375 648 LINE",
"264 648 LINE",
"264 617.333 OFFCURVE",
"263.333 161.667 OFFCURVE",
"262 131 CURVE",
"259.333 116.333 OFFCURVE",
"230 107 OFFCURVE",
"202 107 CURVE SMOOTH",
"175.333 107 OFFCURVE",
"149.667 114.333 OFFCURVE",
"143 125 CURVE",
"144 125 LINE",
"140 134.333 OFFCURVE",
"140 149.333 OFFCURVE",
"140 160 CURVE SMOOTH",
"140 165 LINE",
"137 648 LINE",
"25 648 LINE",
"25 648 LINE",
"25 165 LINE SMOOTH",
"25 45.075 OFFCURVE",
"69.843 0 OFFCURVE",
"200 0 CURVE SMOOTH"
);
},
{
closed = 1;
nodes = (
"198.167 680 OFFCURVE",
"209 680.333 OFFCURVE",
"221 681 CURVE SMOOTH",
"235 681 OFFCURVE",
"251 681.333 OFFCURVE",
"269 682 CURVE",
"209 763 LINE",
"112 763 LINE",
"123.333 748.333 OFFCURVE",
"133.667 735 OFFCURVE",
"143 723 CURVE SMOOTH",
"150.333 713 OFFCURVE",
"157.333 703.667 OFFCURVE",
"164 695 CURVE SMOOTH",
"170.667 686.333 OFFCURVE",
"174 681.667 OFFCURVE",
"174 681 CURVE SMOOTH",
"174 680.333 OFFCURVE",
"178.833 680 OFFCURVE",
"188.5 680 CURVE SMOOTH"
);
}
);
width = 401;
}
);
unicode = 00D9;
},
{
glyphname = Uhungarumlaut;
lastChange = "2024-07-25 09:45:54 +0000";
layers = (
{
layerId = "27BA4E46-0A2B-46F0-A320-1D87D61B7B36";
paths = (
{
closed = 1;
nodes = (
"362.927 0 OFFCURVE",
"375 69.3 OFFCURVE",
"375 197 CURVE SMOOTH",
"375 648 LINE",
"264 648 LINE",
"264 617.333 OFFCURVE",
"263.333 161.667 OFFCURVE",
"262 131 CURVE",
"259.333 116.333 OFFCURVE",
"230 107 OFFCURVE",
"202 107 CURVE SMOOTH",
"175.333 107 OFFCURVE",
"149.667 114.333 OFFCURVE",
"143 125 CURVE",
"144 125 LINE",
"140 134.333 OFFCURVE",
"140 149.333 OFFCURVE",
"140 160 CURVE SMOOTH",
"140 165 LINE",
"137 648 LINE",
"25 648 LINE",
"25 648 LINE",
"25 165 LINE SMOOTH",
"25 45.075 OFFCURVE",
"69.843 0 OFFCURVE",
"200 0 CURVE SMOOTH"
);
},
{
closed = 1;
nodes = (
"74.167 681 OFFCURVE",
"85 681.333 OFFCURVE",
"97 682 CURVE SMOOTH",
"111 682 OFFCURVE",
"127 682.333 OFFCURVE",
"145 683 CURVE",
"199 764 LINE",
"102 764 LINE",
"76 724 LINE SMOOTH",
"69.333 714 OFFCURVE",
"63.333 704.667 OFFCURVE",
"58 696 CURVE SMOOTH",
"52.667 687.333 OFFCURVE",
"50 682.667 OFFCURVE",
"50 682 CURVE SMOOTH",
"50 681.333 OFFCURVE",
"54.833 681 OFFCURVE",
"64.5 681 CURVE SMOOTH"
);
},
{
closed = 1;
nodes = (
"238.167 681 OFFCURVE",
"249 681.333 OFFCURVE",
"261 682 CURVE SMOOTH",
"275 682 OFFCURVE",
"291 682.333 OFFCURVE",
"309 683 CURVE",
"363 764 LINE",
"266 764 LINE",
"240 724 LINE SMOOTH",
"233.333 714 OFFCURVE",
"227.333 704.667 OFFCURVE",
"222 696 CURVE SMOOTH",
"216.667 687.333 OFFCURVE",
"214 682.667 OFFCURVE",
"214 682 CURVE SMOOTH",
"214 681.333 OFFCURVE",
"218.833 681 OFFCURVE",
"228.5 681 CURVE SMOOTH"
);
}
);
width = 401;
}
);
unicode = 0170;
},
{
glyphname = Umacron;
lastChange = "2024-07-25 09:45:54 +0000";
layers = (
{
layerId = "27BA4E46-0A2B-46F0-A320-1D87D61B7B36";
paths = (
{
closed = 1;
nodes = (
"362.927 0 OFFCURVE",
"375 69.3 OFFCURVE",
"375 197 CURVE SMOOTH",
"375 648 LINE",
"264 648 LINE",
"263.333 318.667 OFFCURVE",
"262.667 146.333 OFFCURVE",
"262 131 CURVE",
"259.333 116.333 OFFCURVE",
"230 107 OFFCURVE",
"202 107 CURVE SMOOTH",
"175.333 107 OFFCURVE",
"149.667 114.333 OFFCURVE",
"143 125 CURVE",
"144 125 LINE",
"140 134.333 OFFCURVE",
"140 149.333 OFFCURVE",
"140 160 CURVE SMOOTH",
"140 165 LINE",
"137 648 LINE",
"25 648 LINE",
"25 648 LINE",
"25 165 LINE SMOOTH",
"25 45.075 OFFCURVE",
"69.843 0 OFFCURVE",
"200 0 CURVE SMOOTH"
);
},
{
closed = 1;
nodes = (
"127 684 LINE",
"127 684 OFFCURVE",
"127 684 OFFCURVE",
"127 684 CURVE",
"127 684 OFFCURVE",
"127 684 OFFCURVE",
"127 684 CURVE",
"128 684 LINE",
"128 684 OFFCURVE",
"128 684 OFFCURVE",
"128 684 CURVE",
"128.667 684 OFFCURVE",
"129 684 OFFCURVE",
"129 684 CURVE",
"129 684 OFFCURVE",
"129 684 OFFCURVE",
"129 684 CURVE",
"129 684 OFFCURVE",
"129 684 OFFCURVE",
"129 684 CURVE",
"129 684 OFFCURVE",
"129 684 OFFCURVE",
"129 684 CURVE",
"129 684 OFFCURVE",
"129 684 OFFCURVE",
"129 684 CURVE",
"140 684 LINE",
"140 684 OFFCURVE",
"140 684 OFFCURVE",
"140 684 CURVE",
"140 684 OFFCURVE",
"140 684 OFFCURVE",
"140 684 CURVE",
"140 684 OFFCURVE",
"140 684 OFFCURVE",
"140 684 CURVE",
"140 684 OFFCURVE",
"140 684 OFFCURVE",
"140 684 CURVE",
"140.667 684 OFFCURVE",
"141 684 OFFCURVE",
"141 684 CURVE",
"141 684 OFFCURVE",
"141 684 OFFCURVE",
"141 684 CURVE",
"141 684 OFFCURVE",
"141 684 OFFCURVE",
"141 684 CURVE",
"141 684 OFFCURVE",
"141 684 OFFCURVE",
"141 684 CURVE",
"141 684 OFFCURVE",
"141 684 OFFCURVE",
"141 684 CURVE",
"144 684 LINE",
"144 684 OFFCURVE",
"144 684 OFFCURVE",
"144 684 CURVE",
"144.667 684 OFFCURVE",
"145 684 OFFCURVE",
"145 684 CURVE",
"145 684 OFFCURVE",
"145 684 OFFCURVE",
"145 684 CURVE",
"145 684 OFFCURVE",
"145 684 OFFCURVE",
"145 684 CURVE",
"145 684 OFFCURVE",
"145 684 OFFCURVE",
"145 684 CURVE",
"145 684 OFFCURVE",
"145 684 OFFCURVE",
"145 684 CURVE",
"146 684 LINE",
"146 684 OFFCURVE",
"146 684 OFFCURVE",
"146 684 CURVE",
"146 684 OFFCURVE",
"146 684 OFFCURVE",
"146 684 CURVE",
"146 684 OFFCURVE",
"146 684 OFFCURVE",
"146 684 CURVE",
"146.667 684 OFFCURVE",
"147 684 OFFCURVE",
"147 684 CURVE",
"147 684 OFFCURVE",
"147 684 OFFCURVE",
"147 684 CURVE",
"147 684 OFFCURVE",
"147 684 OFFCURVE",
"147 684 CURVE",
"147 684 OFFCURVE",
"147 684 OFFCURVE",
"147 684 CURVE",
"147 684 OFFCURVE",
"147 684 OFFCURVE",
"147 684 CURVE",
"147 684 OFFCURVE",
"147 684 OFFCURVE",
"147 684 CURVE",
"147 684 OFFCURVE",
"147 684 OFFCURVE",
"147 684 CURVE",
"148 684 LINE",
"148 684 OFFCURVE",
"148 684 OFFCURVE",
"148 684 CURVE",
"148.667 684 OFFCURVE",
"149 684 OFFCURVE",
"149 684 CURVE",
"149 684 OFFCURVE",
"149 684 OFFCURVE",
"149 684 CURVE",
"149 684 OFFCURVE",
"149 684 OFFCURVE",
"149 684 CURVE",
"149 684 OFFCURVE",
"149 684 OFFCURVE",
"149 684 CURVE",
"149 684 OFFCURVE",
"149 684 OFFCURVE",
"149 684 CURVE",
"149 684 OFFCURVE",
"149 684 OFFCURVE",
"149 684 CURVE",
"149 684 OFFCURVE",
"149 684 OFFCURVE",
"149 684 CURVE",
"149 684 OFFCURVE",
"149 684 OFFCURVE",
"149 684 CURVE",
"150 684 LINE",
"150 684 OFFCURVE",
"150 684 OFFCURVE",
"150 684 CURVE",
"150 684 OFFCURVE",
"150 684 OFFCURVE",
"150 684 CURVE",
"150 684 OFFCURVE",
"150 684 OFFCURVE",
"150 684 CURVE",
"150 684 OFFCURVE",
"150 684 OFFCURVE",
"150 684 CURVE",
"150.667 684 OFFCURVE",
"151 684 OFFCURVE",
"151 684 CURVE",
"151 684 OFFCURVE",
"151 684 OFFCURVE",
"151 684 CURVE",
"151 684 OFFCURVE",
"151 684 OFFCURVE",
"151 684 CURVE",
"151 684 OFFCURVE",
"151 684 OFFCURVE",
"151 684 CURVE",
"151 684 OFFCURVE",
"151 684 OFFCURVE",
"151 684 CURVE",
"151 684 OFFCURVE",
"151 684 OFFCURVE",
"151 684 CURVE",
"151 684 OFFCURVE",
"151 684 OFFCURVE",
"151 684 CURVE",
"152 684 LINE",
"152 684 OFFCURVE",
"152 684 OFFCURVE",
"152 684 CURVE",
"152.667 684 OFFCURVE",
"153 684 OFFCURVE",
"153 684 CURVE",
"153 684 OFFCURVE",
"153 684 OFFCURVE",
"153 684 CURVE",
"153 684 OFFCURVE",
"153 684 OFFCURVE",
"153 684 CURVE",
"153 684 OFFCURVE",
"153 684 OFFCURVE",
"153 684 CURVE",
"153 684 OFFCURVE",
"153 684 OFFCURVE",
"153 684 CURVE",
"160 684 LINE",
"160 684 OFFCURVE",
"160 684 OFFCURVE",
"160 684 CURVE",
"160 684 OFFCURVE",
"160 684 OFFCURVE",
"160 684 CURVE",
"160 684 OFFCURVE",
"160 684 OFFCURVE",
"160 684 CURVE",
"160.667 684 OFFCURVE",
"161 684 OFFCURVE",
"161 684 CURVE",
"161 684 OFFCURVE",
"161 684 OFFCURVE",
"161 684 CURVE",
"161 684 OFFCURVE",
"161 684 OFFCURVE",
"161 684 CURVE",
"161 684 OFFCURVE",
"161 684 OFFCURVE",
"161 684 CURVE",
"161 684 OFFCURVE",
"161 684 OFFCURVE",
"161 684 CURVE",
"161 684 OFFCURVE",
"161 684 OFFCURVE",
"161 684 CURVE",
"161 684 OFFCURVE",
"161 684 OFFCURVE",
"161 684 CURVE",
"175 684 LINE",
"175 684 OFFCURVE",
"175 684 OFFCURVE",
"175 684 CURVE",
"175 684 OFFCURVE",
"175 684 OFFCURVE",
"175 684 CURVE",
"175 684 OFFCURVE",
"175 684 OFFCURVE",
"175 684 CURVE",
"175.667 684 OFFCURVE",
"176 684 OFFCURVE",
"176 684 CURVE",
"176 684 OFFCURVE",
"176 684 OFFCURVE",
"176 684 CURVE",
"176 684 OFFCURVE",
"176 684 OFFCURVE",
"176 684 CURVE",
"176 684 OFFCURVE",
"176 684 OFFCURVE",
"176 684 CURVE",
"176 684 OFFCURVE",
"176 684 OFFCURVE",
"176 684 CURVE",
"176 684 OFFCURVE",
"176 684 OFFCURVE",
"176 684 CURVE",
"176 684 OFFCURVE",
"176 684 OFFCURVE",
"176 684 CURVE",
"176 684 OFFCURVE",
"176 684 OFFCURVE",
"176 684 CURVE",
"179 684 LINE",
"179 684 OFFCURVE",
"179 684 OFFCURVE",
"179 684 CURVE",
"179 684 OFFCURVE",
"179 684 OFFCURVE",
"179 684 CURVE",
"179 684 OFFCURVE",
"179 684 OFFCURVE",
"179 684 CURVE",
"179 684 OFFCURVE",
"179 684 OFFCURVE",
"179 684 CURVE",
"179.667 684 OFFCURVE",
"180 684 OFFCURVE",
"180 684 CURVE",
"180 684 OFFCURVE",
"180 684 OFFCURVE",
"180 684 CURVE",
"180 684 OFFCURVE",
"180 684 OFFCURVE",
"180 684 CURVE",
"180 684 OFFCURVE",
"180 684 OFFCURVE",
"180 684 CURVE",
"180 684 OFFCURVE",
"180 684 OFFCURVE",
"180 684 CURVE",
"180 684 OFFCURVE",
"180 684 OFFCURVE",
"180 684 CURVE",
"180 684 OFFCURVE",
"180 684 OFFCURVE",
"180 684 CURVE",
"180 684 OFFCURVE",
"180 684 OFFCURVE",
"180 684 CURVE",
"181 684 LINE",
"181 684 OFFCURVE",
"181 684 OFFCURVE",
"181 684 CURVE",
"181 684 OFFCURVE",
"181 684 OFFCURVE",
"181 684 CURVE",
"181 684 OFFCURVE",
"181 684 OFFCURVE",
"181 684 CURVE",
"182 684 LINE",
"182 684 OFFCURVE",
"182 684 OFFCURVE",
"182 684 CURVE",
"182 684 OFFCURVE",
"182 684 OFFCURVE",
"182 684 CURVE",
"182 684 OFFCURVE",
"182 684 OFFCURVE",
"182 684 CURVE",
"182 684 OFFCURVE",
"182 684 OFFCURVE",
"182 684 CURVE",
"182.667 684 OFFCURVE",
"183 684 OFFCURVE",
"183 684 CURVE",
"183 684 OFFCURVE",
"183 684 OFFCURVE",
"183 684 CURVE",
"183 684 OFFCURVE",
"183 684 OFFCURVE",
"183 684 CURVE",
"183 684 OFFCURVE",
"183 684 OFFCURVE",
"183 684 CURVE",
"183 684 OFFCURVE",
"183 684 OFFCURVE",
"183 684 CURVE",
"183 684 OFFCURVE",
"183 684 OFFCURVE",
"183 684 CURVE",
"183 684 OFFCURVE",
"183 684 OFFCURVE",
"183 684 CURVE",
"184 684 LINE",
"184 684 OFFCURVE",
"184 684 OFFCURVE",
"184 684 CURVE",
"184 684 OFFCURVE",
"184 684 OFFCURVE",
"184 684 CURVE",
"184 684 OFFCURVE",
"184 684 OFFCURVE",
"184 684 CURVE",
"184 684 OFFCURVE",
"184 684 OFFCURVE",
"184 684 CURVE",
"184.667 684 OFFCURVE",
"185 684 OFFCURVE",
"185 684 CURVE",
"185 684 OFFCURVE",
"185 684 OFFCURVE",
"185 684 CURVE",
"185 684 OFFCURVE",
"185 684 OFFCURVE",
"185 684 CURVE",
"185 684 OFFCURVE",
"185 684 OFFCURVE",
"185 684 CURVE",
"185 684 OFFCURVE",
"185 684 OFFCURVE",
"185 684 CURVE",
"185 684 OFFCURVE",
"185 684 OFFCURVE",
"185 684 CURVE",
"185 684 OFFCURVE",
"185 684 OFFCURVE",
"185 684 CURVE",
"185 684 OFFCURVE",
"185 684 OFFCURVE",
"185 684 CURVE",
"186 684 LINE",
"186 684 OFFCURVE",
"186 684 OFFCURVE",
"186 684 CURVE",
"186 684 OFFCURVE",
"186 684 OFFCURVE",
"186 684 CURVE",
"186 684 OFFCURVE",
"186 684 OFFCURVE",
"186 684 CURVE",
"186 684 OFFCURVE",
"186 684 OFFCURVE",
"186 684 CURVE",
"186.667 684 OFFCURVE",
"187 684 OFFCURVE",
"187 684 CURVE",
"187 684 OFFCURVE",
"187 684 OFFCURVE",
"187 684 CURVE",
"187 684 OFFCURVE",
"187 684 OFFCURVE",
"187 684 CURVE",
"187 684 OFFCURVE",
"187 684 OFFCURVE",
"187 684 CURVE",
"187 684 OFFCURVE",
"187 684 OFFCURVE",
"187 684 CURVE",
"187 684 OFFCURVE",
"187 684 OFFCURVE",
"187 684 CURVE",
"187 684 OFFCURVE",
"187 684 OFFCURVE",
"187 684 CURVE",
"187 684 OFFCURVE",
"187 684 OFFCURVE",
"187 684 CURVE",
"188 684 LINE",
"188 684 OFFCURVE",
"188 684 OFFCURVE",
"188 684 CURVE",
"188 684 OFFCURVE",
"188 684 OFFCURVE",
"188 684 CURVE",
"188 684 OFFCURVE",
"188 684 OFFCURVE",
"188 684 CURVE",
"188 684 OFFCURVE",
"188 684 OFFCURVE",
"188 684 CURVE",
"188.667 684 OFFCURVE",
"189 684 OFFCURVE",
"189 684 CURVE",
"189 684 OFFCURVE",
"189 684 OFFCURVE",
"189 684 CURVE",
"189 684 OFFCURVE",
"189 684 OFFCURVE",
"189 684 CURVE",
"189 684 OFFCURVE",
"189 684 OFFCURVE",
"189 684 CURVE",
"189 684 OFFCURVE",
"189 684 OFFCURVE",
"189 684 CURVE",
"189 684 OFFCURVE",
"189 684 OFFCURVE",
"189 684 CURVE",
"189 684 OFFCURVE",
"189 684 OFFCURVE",
"189 684 CURVE",
"189 684 OFFCURVE",
"189 684 OFFCURVE",
"189 684 CURVE",
"189.667 684 OFFCURVE",
"190 684 OFFCURVE",
"190 684 CURVE",
"190 684 OFFCURVE",
"190 684 OFFCURVE",
"190 684 CURVE",
"190 684 OFFCURVE",
"190 684 OFFCURVE",
"190 684 CURVE",
"190 684 OFFCURVE",
"190 684 OFFCURVE",
"190 684 CURVE",
"190 684 OFFCURVE",
"190 684 OFFCURVE",
"190 684 CURVE",
"190 684 OFFCURVE",
"190 684 OFFCURVE",
"190 684 CURVE",
"190 684 OFFCURVE",
"190 684 OFFCURVE",
"190 684 CURVE",
"193 684 LINE SMOOTH",
"222.333 684 OFFCURVE",
"255.667 684.333 OFFCURVE",
"293 685 CURVE",
"294 766 LINE",
"94 766 LINE",
"94 685 LINE",
"94 685 OFFCURVE",
"96.833 684.833 OFFCURVE",
"102.5 684.5 CURVE SMOOTH",
"108.167 684.167 OFFCURVE",
"115.667 684 OFFCURVE",
"125 684 CURVE SMOOTH"
);
}
);
width = 401;
}
);
unicode = 016A;
},
{
glyphname = Uogonek;
lastChange = "2024-07-25 09:45:54 +0000";
layers = (
{
layerId = "27BA4E46-0A2B-46F0-A320-1D87D61B7B36";
paths = (
{
closed = 1;
nodes = (
"243.333 -132 OFFCURVE",
"256 -131.333 OFFCURVE",
"270 -130 CURVE",
"277 -106 LINE",
"270.333 -107.333 OFFCURVE",
"264.333 -108 OFFCURVE",
"259 -108 CURVE SMOOTH",
"247 -108 OFFCURVE",
"236.333 -103.333 OFFCURVE",
"227 -94 CURVE SMOOTH",
"218.333 -85.333 OFFCURVE",
"214 -75.333 OFFCURVE",
"214 -64 CURVE SMOOTH",
"214 -57.333 OFFCURVE",
"217 -50.333 OFFCURVE",
"223 -43 CURVE SMOOTH",
"227.667 -37 OFFCURVE",
"234.667 -34 OFFCURVE",
"244 -34 CURVE SMOOTH",
"245.333 -34 OFFCURVE",
"246.833 -34.167 OFFCURVE",
"248.5 -34.5 CURVE SMOOTH",
"250.167 -34.833 OFFCURVE",
"251.667 -35 OFFCURVE",
"253 -35 CURVE",
"232 2 LINE",
"367.26 9.956 OFFCURVE",
"376 81.437 OFFCURVE",
"376 198 CURVE SMOOTH",
"376 649 LINE",
"265 649 LINE",
"265 641.667 OFFCURVE",
"264.833 595 OFFCURVE",
"264.5 509 CURVE SMOOTH",
"264.167 423 OFFCURVE",
"263.667 297.333 OFFCURVE",
"263 132 CURVE",
"260.333 117.333 OFFCURVE",
"231 108 OFFCURVE",
"203 108 CURVE SMOOTH",
"176.333 108 OFFCURVE",
"150.667 115.333 OFFCURVE",
"144 126 CURVE",
"145 126 LINE",
"141 135.333 OFFCURVE",
"141 150.333 OFFCURVE",
"141 161 CURVE SMOOTH",
"141 166 LINE",
"138 649 LINE",
"26 649 LINE",
"26 166 LINE SMOOTH",
"26 56.692 OFFCURVE",
"64.792 3.671 OFFCURVE",
"185 1 CURVE",
"174.333 -3.667 OFFCURVE",
"166 -9.667 OFFCURVE",
"160 -17 CURVE SMOOTH",
"152 -27 OFFCURVE",
"148 -39.333 OFFCURVE",
"148 -54 CURVE SMOOTH",
"148 -72.667 OFFCURVE",
"155.333 -95.333 OFFCURVE",
"170 -110 CURVE SMOOTH",
"196.667 -136.667 OFFCURVE",
"220 -132 OFFCURVE",
"232 -132 CURVE SMOOTH"
);
}
);
width = 401;
}
);
unicode = 0172;
},
{
glyphname = Uring;
lastChange = "2024-07-25 09:45:54 +0000";
layers = (
{
layerId = "27BA4E46-0A2B-46F0-A320-1D87D61B7B36";
paths = (
{
closed = 1;
nodes = (
"362.927 0 OFFCURVE",
"375 69.3 OFFCURVE",
"375 197 CURVE SMOOTH",
"375 648 LINE",
"264 648 LINE",
"263.333 318.667 OFFCURVE",
"262.667 146.333 OFFCURVE",
"262 131 CURVE",
"259.333 116.333 OFFCURVE",
"230 107 OFFCURVE",
"202 107 CURVE SMOOTH",
"175.333 107 OFFCURVE",
"149.667 114.333 OFFCURVE",
"143 125 CURVE",
"144 125 LINE",
"140 134.333 OFFCURVE",
"140 149.333 OFFCURVE",
"140 160 CURVE SMOOTH",
"140 165 LINE",
"137 648 LINE",
"25 648 LINE",
"25 648 LINE",
"25 165 LINE SMOOTH",
"25 45.075 OFFCURVE",
"69.843 0 OFFCURVE",
"200 0 CURVE SMOOTH"
);
},
{
closed = 1;
nodes = (
"272 679 OFFCURVE",
"312.333 708.333 OFFCURVE",
"315 783 CURVE",
"250 783 LINE",
"244.667 744.333 OFFCURVE",
"225.333 742 OFFCURVE",
"196 742 CURVE SMOOTH",
"168 742 OFFCURVE",
"149.333 744.333 OFFCURVE",
"144 783 CURVE",
"79 783 LINE",
"81.667 708.333 OFFCURVE",
"120 679 OFFCURVE",
"196 679 CURVE SMOOTH"
);
}
);
width = 401;
}
);
unicode = 016E;
},
{
glyphname = Utilde;
lastChange = "2024-07-25 09:45:54 +0000";
layers = (
{
layerId = "27BA4E46-0A2B-46F0-A320-1D87D61B7B36";
paths = (
{
closed = 1;
nodes = (
"362.927 0 OFFCURVE",
"375 69.3 OFFCURVE",
"375 197 CURVE SMOOTH",
"375 648 LINE",
"264 648 LINE",
"263.333 318.667 OFFCURVE",
"262.667 146.333 OFFCURVE",
"262 131 CURVE",
"259.333 116.333 OFFCURVE",
"230 107 OFFCURVE",
"202 107 CURVE SMOOTH",
"175.333 107 OFFCURVE",
"149.667 114.333 OFFCURVE",
"143 125 CURVE",
"144 125 LINE",
"140 134.333 OFFCURVE",
"140 149.333 OFFCURVE",
"140 160 CURVE SMOOTH",
"140 165 LINE",
"137 648 LINE",
"25 648 LINE",
"25 648 LINE",
"25 165 LINE SMOOTH",
"25 45.075 OFFCURVE",
"69.843 0 OFFCURVE",
"200 0 CURVE SMOOTH"
);
},
{
closed = 1;
nodes = (
"107 691 LINE SMOOTH",
"109.667 693.667 OFFCURVE",
"113.333 696.667 OFFCURVE",
"118 700 CURVE SMOOTH",
"126 704 OFFCURVE",
"135.333 708 OFFCURVE",
"146 708 CURVE SMOOTH",
"154 708 OFFCURVE",
"161 704 OFFCURVE",
"169 700 CURVE",
"197.667 680.667 OFFCURVE",
"224.333 671 OFFCURVE",
"249 671 CURVE SMOOTH",
"256 671 LINE",
"256 671 OFFCURVE",
"256 671 OFFCURVE",
"256 671 CURVE",
"256 671 OFFCURVE",
"256 671 OFFCURVE",
"256 671 CURVE",
"257 671 LINE",
"257 671 OFFCURVE",
"257 671 OFFCURVE",
"257 671 CURVE",
"257 671 OFFCURVE",
"257 671 OFFCURVE",
"257 671 CURVE",
"257 671 OFFCURVE",
"257 671 OFFCURVE",
"257 671 CURVE",
"258 671 LINE",
"258 671 OFFCURVE",
"258 671 OFFCURVE",
"258 671 CURVE",
"258 671 OFFCURVE",
"258 671 OFFCURVE",
"258 671 CURVE",
"258 671 OFFCURVE",
"258 671 OFFCURVE",
"258 671 CURVE",
"261.333 671 OFFCURVE",
"264.667 671.333 OFFCURVE",
"268 672 CURVE SMOOTH",
"292 678 OFFCURVE",
"314.333 693.333 OFFCURVE",
"335 718 CURVE SMOOTH",
"339 723 LINE",
"293 767 LINE",
"293 767 LINE",
"290 762 LINE SMOOTH",
"280 748.667 OFFCURVE",
"269 740.333 OFFCURVE",
"257 737 CURVE SMOOTH",
"254.333 736.333 OFFCURVE",
"251.667 736 OFFCURVE",
"249 736 CURVE SMOOTH",
"235.667 736 OFFCURVE",
"219.667 742.333 OFFCURVE",
"201 755 CURVE SMOOTH",
"183 767 OFFCURVE",
"164.667 773 OFFCURVE",
"146 773 CURVE SMOOTH",
"126 773 OFFCURVE",
"107 767 OFFCURVE",
"89 755 CURVE SMOOTH",
"75.667 747.667 OFFCURVE",
"65.167 739.5 OFFCURVE",
"57.5 730.5 CURVE SMOOTH",
"49.833 721.5 OFFCURVE",
"45.333 716.333 OFFCURVE",
"44 715 CURVE",
"41 709 LINE",
"86 669 LINE"
);
}
);
width = 401;
}
);
unicode = 0168;
},
{
glyphname = V;
lastChange = "2024-07-25 09:45:54 +0000";
layers = (
{
layerId = "27BA4E46-0A2B-46F0-A320-1D87D61B7B36";
paths = (
{
closed = 1;
nodes = (
"223 0 LINE",
"349.715 158.394 OFFCURVE",
"363 329.517 OFFCURVE",
"363 504 CURVE SMOOTH",
"363 648 LINE",
"363 648 LINE",
"251 648 LINE",
"251 636 OFFCURVE",
"251.167 623.167 OFFCURVE",
"251.5 609.5 CURVE SMOOTH",
"251.833 595.833 OFFCURVE",
"252 583.333 OFFCURVE",
"252 572 CURVE SMOOTH",
"252 560.667 OFFCURVE",
"252.167 549.167 OFFCURVE",
"252.5 537.5 CURVE SMOOTH",
"252.833 525.833 OFFCURVE",
"253 514.333 OFFCURVE",
"253 503 CURVE SMOOTH",
"253 379 OFFCURVE",
"244 261 OFFCURVE",
"188 145 CURVE",
"128.297 256.264 OFFCURVE",
"122 378.906 OFFCURVE",
"122 501 CURVE SMOOTH",
"122 513 OFFCURVE",
"122.167 525 OFFCURVE",
"122.5 537 CURVE SMOOTH",
"122.833 549 OFFCURVE",
"123 561 OFFCURVE",
"123 573 CURVE SMOOTH",
"123 584.333 OFFCURVE",
"123.167 596.833 OFFCURVE",
"123.5 610.5 CURVE SMOOTH",
"123.833 624.167 OFFCURVE",
"124 636.667 OFFCURVE",
"124 648 CURVE",
"13 648 LINE",
"13 504 LINE SMOOTH",
"13 324.919 OFFCURVE",
"25.932 157.585 OFFCURVE",
"152 0 CURVE"
);
}
);
width = 383;
}
);
unicode = 0056;
},
{
glyphname = W;
lastChange = "2024-07-25 09:45:54 +0000";
layers = (
{
layerId = "27BA4E46-0A2B-46F0-A320-1D87D61B7B36";
paths = (
{
closed = 1;
nodes = (
"230 0 LINE",
"264.667 45.333 OFFCURVE",
"292 93.333 OFFCURVE",
"312 140 CURVE",
"333.333 92 OFFCURVE",
"362 44 OFFCURVE",
"394 0 CURVE",
"468 0 LINE",
"592.485 164.214 OFFCURVE",
"606 327.036 OFFCURVE",
"606 510 CURVE SMOOTH",
"606 649 LINE",
"606 649 LINE",
"494 649 LINE",
"494 637 OFFCURVE",
"494.167 624.167 OFFCURVE",
"494.5 610.5 CURVE SMOOTH",
"494.833 596.833 OFFCURVE",
"495 584 OFFCURVE",
"495 572 CURVE SMOOTH",
"495 560 OFFCURVE",
"495.167 548 OFFCURVE",
"495.5 536 CURVE SMOOTH",
"495.833 524 OFFCURVE",
"496 511.667 OFFCURVE",
"496 499 CURVE SMOOTH",
"496 376.333 OFFCURVE",
"486.667 254.333 OFFCURVE",
"432 145 CURVE",
"376.304 256.393 OFFCURVE",
"366 382.293 OFFCURVE",
"366 507 CURVE SMOOTH",
"366 518.333 OFFCURVE",
"366.167 529.667 OFFCURVE",
"366.5 541 CURVE SMOOTH",
"366.833 552.333 OFFCURVE",
"367 563.667 OFFCURVE",
"367 575 CURVE SMOOTH",
"367 586.333 OFFCURVE",
"367.167 598.5 OFFCURVE",
"367.5 611.5 CURVE SMOOTH",
"367.833 624.5 OFFCURVE",
"368 637 OFFCURVE",
"368 649 CURVE",
"256 649 LINE",
"256 637 OFFCURVE",
"256.167 624.167 OFFCURVE",
"256.5 610.5 CURVE SMOOTH",
"256.833 596.833 OFFCURVE",
"257 584 OFFCURVE",
"257 572 CURVE SMOOTH",
"257 560 OFFCURVE",
"257.167 548 OFFCURVE",
"257.5 536 CURVE SMOOTH",
"257.833 524 OFFCURVE",
"258 511.667 OFFCURVE",
"258 499 CURVE SMOOTH",
"258 376.579 OFFCURVE",
"250.429 255.636 OFFCURVE",
"193 146 CURVE",
"135.689 263.226 OFFCURVE",
"129 376.108 OFFCURVE",
"129 501 CURVE SMOOTH",
"129 512.333 OFFCURVE",
"129.167 523.667 OFFCURVE",
"129.5 535 CURVE SMOOTH",
"129.833 546.333 OFFCURVE",
"130 558 OFFCURVE",
"130 570 CURVE SMOOTH",
"130 582 OFFCURVE",
"130.167 595 OFFCURVE",
"130.5 609 CURVE SMOOTH",
"130.833 623 OFFCURVE",
"131 636.333 OFFCURVE",
"131 649 CURVE",
"19 649 LINE",
"19 507 LINE SMOOTH",
"19 324.974 OFFCURVE",
"31.778 163.82 OFFCURVE",
"158 0 CURVE"
);
}
);
width = 630;
}
);
unicode = 0057;
},
{
glyphname = Wacute;
lastChange = "2024-07-25 09:45:54 +0000";
layers = (
{
layerId = "27BA4E46-0A2B-46F0-A320-1D87D61B7B36";
paths = (
{
closed = 1;
nodes = (
"230 0 LINE",
"264.667 45.333 OFFCURVE",
"292 93.333 OFFCURVE",
"312 140 CURVE",
"333.333 92 OFFCURVE",
"362 44 OFFCURVE",
"394 0 CURVE",
"468 0 LINE",
"592.485 164.214 OFFCURVE",
"606 327.036 OFFCURVE",
"606 510 CURVE SMOOTH",
"606 649 LINE",
"606 649 LINE",
"494 649 LINE",
"494 637 OFFCURVE",
"494.167 624.167 OFFCURVE",
"494.5 610.5 CURVE SMOOTH",
"494.833 596.833 OFFCURVE",
"495 584 OFFCURVE",
"495 572 CURVE SMOOTH",
"495 560 OFFCURVE",
"495.167 548 OFFCURVE",
"495.5 536 CURVE SMOOTH",
"495.833 524 OFFCURVE",
"496 511.667 OFFCURVE",
"496 499 CURVE SMOOTH",
"496 376.333 OFFCURVE",
"486.667 254.333 OFFCURVE",
"432 145 CURVE",
"376.304 256.393 OFFCURVE",
"366 382.293 OFFCURVE",
"366 507 CURVE SMOOTH",
"366 518.333 OFFCURVE",
"366.167 529.667 OFFCURVE",
"366.5 541 CURVE SMOOTH",
"366.833 552.333 OFFCURVE",
"367 563.667 OFFCURVE",
"367 575 CURVE SMOOTH",
"367 586.333 OFFCURVE",
"367.167 598.5 OFFCURVE",
"367.5 611.5 CURVE SMOOTH",
"367.833 624.5 OFFCURVE",
"368 637 OFFCURVE",
"368 649 CURVE",
"256 649 LINE",
"256 637 OFFCURVE",
"256.167 624.167 OFFCURVE",
"256.5 610.5 CURVE SMOOTH",
"256.833 596.833 OFFCURVE",
"257 584 OFFCURVE",
"257 572 CURVE SMOOTH",
"257 560 OFFCURVE",
"257.167 548 OFFCURVE",
"257.5 536 CURVE SMOOTH",
"257.833 524 OFFCURVE",
"258 511.667 OFFCURVE",
"258 499 CURVE SMOOTH",
"258 376.579 OFFCURVE",
"250.429 255.636 OFFCURVE",
"193 146 CURVE",
"135.689 263.226 OFFCURVE",
"129 376.108 OFFCURVE",
"129 501 CURVE SMOOTH",
"129 512.333 OFFCURVE",
"129.167 523.667 OFFCURVE",
"129.5 535 CURVE SMOOTH",
"129.833 546.333 OFFCURVE",
"130 558 OFFCURVE",
"130 570 CURVE SMOOTH",
"130 582 OFFCURVE",
"130.167 595 OFFCURVE",
"130.5 609 CURVE SMOOTH",
"130.833 623 OFFCURVE",
"131 636.333 OFFCURVE",
"131 649 CURVE",
"19 649 LINE",
"19 507 LINE SMOOTH",
"19 324.974 OFFCURVE",
"31.778 163.82 OFFCURVE",
"158 0 CURVE"
);
},
{
closed = 1;
nodes = (
"277.167 681 OFFCURVE",
"288 681.333 OFFCURVE",
"300 682 CURVE SMOOTH",
"314 682 OFFCURVE",
"330 682.333 OFFCURVE",
"348 683 CURVE",
"402 764 LINE",
"305 764 LINE",
"279 724 LINE SMOOTH",
"272.333 714 OFFCURVE",
"266.333 704.667 OFFCURVE",
"261 696 CURVE SMOOTH",
"255.667 687.333 OFFCURVE",
"253 682.667 OFFCURVE",
"253 682 CURVE SMOOTH",
"253 681.333 OFFCURVE",
"257.833 681 OFFCURVE",
"267.5 681 CURVE SMOOTH"
);
}
);
width = 630;
}
);
unicode = 1E82;
},
{
glyphname = Wcircumflex;
lastChange = "2024-07-25 09:45:54 +0000";
layers = (
{
layerId = "27BA4E46-0A2B-46F0-A320-1D87D61B7B36";
paths = (
{
closed = 1;
nodes = (
"230 0 LINE",
"264.667 45.333 OFFCURVE",
"292 93.333 OFFCURVE",
"312 140 CURVE",
"333.333 92 OFFCURVE",
"362 44 OFFCURVE",
"394 0 CURVE",
"468 0 LINE",
"592.485 164.214 OFFCURVE",
"606 327.036 OFFCURVE",
"606 510 CURVE SMOOTH",
"606 649 LINE",
"606 649 LINE",
"494 649 LINE",
"494 637 OFFCURVE",
"494.167 624.167 OFFCURVE",
"494.5 610.5 CURVE SMOOTH",
"494.833 596.833 OFFCURVE",
"495 584 OFFCURVE",
"495 572 CURVE SMOOTH",
"495 560 OFFCURVE",
"495.167 548 OFFCURVE",
"495.5 536 CURVE SMOOTH",
"495.833 524 OFFCURVE",
"496 511.667 OFFCURVE",
"496 499 CURVE SMOOTH",
"496 376.333 OFFCURVE",
"486.667 254.333 OFFCURVE",
"432 145 CURVE",
"376.304 256.393 OFFCURVE",
"366 382.293 OFFCURVE",
"366 507 CURVE SMOOTH",
"366 518.333 OFFCURVE",
"366.167 529.667 OFFCURVE",
"366.5 541 CURVE SMOOTH",
"366.833 552.333 OFFCURVE",
"367 563.667 OFFCURVE",
"367 575 CURVE SMOOTH",
"367 586.333 OFFCURVE",
"367.167 598.5 OFFCURVE",
"367.5 611.5 CURVE SMOOTH",
"367.833 624.5 OFFCURVE",
"368 637 OFFCURVE",
"368 649 CURVE",
"256 649 LINE",
"256 637 OFFCURVE",
"256.167 624.167 OFFCURVE",
"256.5 610.5 CURVE SMOOTH",
"256.833 596.833 OFFCURVE",
"257 584 OFFCURVE",
"257 572 CURVE SMOOTH",
"257 560 OFFCURVE",
"257.167 548 OFFCURVE",
"257.5 536 CURVE SMOOTH",
"257.833 524 OFFCURVE",
"258 511.667 OFFCURVE",
"258 499 CURVE SMOOTH",
"258 376.579 OFFCURVE",
"250.429 255.636 OFFCURVE",
"193 146 CURVE",
"135.689 263.226 OFFCURVE",
"129 376.108 OFFCURVE",
"129 501 CURVE SMOOTH",
"129 512.333 OFFCURVE",
"129.167 523.667 OFFCURVE",
"129.5 535 CURVE SMOOTH",
"129.833 546.333 OFFCURVE",
"130 558 OFFCURVE",
"130 570 CURVE SMOOTH",
"130 582 OFFCURVE",
"130.167 595 OFFCURVE",
"130.5 609 CURVE SMOOTH",
"130.833 623 OFFCURVE",
"131 636.333 OFFCURVE",
"131 649 CURVE",
"19 649 LINE",
"19 507 LINE SMOOTH",
"19 324.974 OFFCURVE",
"31.778 163.82 OFFCURVE",
"158 0 CURVE"
);
},
{
closed = 1;
nodes = (
"269 684 LINE",
"308 738 LINE",
"350 684 LINE",
"454 684 LINE",
"394 776 LINE",
"223 775 LINE",
"165 684 LINE",
"165 684 LINE"
);
}
);
width = 630;
}
);
unicode = 0174;
},
